EncodeSans-Light.ufo
<glyph name="exclam" format="2">
  <advance width="477.0840404040404"/>
  <unicode hex="0021"/>
  <outline>
    <contour>
      <point x="199.72626262626264" y="347.37454545454545" type="line"/>
      <point x="278.0840404040404" y="347.37454545454545" type="line"/>
      <point x="302.14000000000004" y="905.3967676767677" type="line"/>
      <point x="302.14000000000004" y="1480.0" type="line"/>
      <point x="174.9440404040404" y="1480.0" type="line"/>
      <point x="174.9440404040404" y="905.3967676767677" type="line"/>
    </contour>
    <contour>
      <point x="238.5420202020202" y="-11.452525252525254" type="curve" smooth="yes"/>
      <point x="292.9890909090909" y="-11.452525252525254"/>
      <point x="330.4640404040404" y="22.86040404040405"/>
      <point x="330.4640404040404" y="75.82141414141415" type="curve" smooth="yes"/>
      <point x="330.4640404040404" y="128.78242424242427"/>
      <point x="293.57010101010104" y="164.80484848484852"/>
      <point x="238.5420202020202" y="164.80484848484852" type="curve" smooth="yes"/>
      <point x="183.51393939393938" y="164.80484848484852"/>
      <point x="146.61999999999998" y="129.36343434343436"/>
      <point x="146.61999999999998" y="75.82141414141415" type="curve" smooth="yes"/>
      <point x="146.61999999999998" y="22.279393939393945"/>
      <point x="184.0949494949495" y="-11.452525252525254"/>
    </contour>
  </outline>
</glyph>
<glyph name="numbersign" format="2">
  <advance width="1131.9555555555555"/>
  <unicode hex="0023"/>
  <outline>
    <contour>
      <point x="621.3575757575758" y="0.0" type="line"/>
      <point x="724.3969696969697" y="0.0" type="line"/>
      <point x="878.3969696969697" y="1480.0" type="line"/>
      <point x="775.3575757575758" y="1480.0" type="line"/>
    </contour>
    <contour>
      <point x="100.0" y="473.08363636363634" type="line"/>
      <point x="1031.9555555555555" y="473.08363636363634" type="line"/>
      <point x="1031.9555555555555" y="575.3967676767677" type="line"/>
      <point x="100.0" y="575.3967676767677" type="line"/>
    </contour>
    <contour>
      <point x="253.55858585858584" y="0.0" type="line"/>
      <point x="356.5979797979798" y="0.0" type="line"/>
      <point x="510.5979797979798" y="1480.0" type="line"/>
      <point x="407.55858585858584" y="1480.0" type="line"/>
    </contour>
    <contour>
      <point x="100.0" y="904.6032323232323" type="line"/>
      <point x="1031.9555555555555" y="904.6032323232323" type="line"/>
      <point x="1031.9555555555555" y="1006.9163636363636" type="line"/>
      <point x="100.0" y="1006.9163636363636" type="line"/>
    </contour>
  </outline>
</glyph>
<glyph name="dollar" format="2">
  <advance width="1039.6315151515153"/>
  <unicode hex="0024"/>
  <outline>
    <contour>
      <point x="449.9107070707071" y="-18.29050505050505" type="curve" smooth="yes"/>
      <point x="776.4359595959596" y="-18.29050505050505"/>
      <point x="960.8773737373738" y="129.2458585858586"/>
      <point x="960.8773737373738" y="391.76545454545453" type="curve" smooth="yes"/>
      <point x="960.8773737373738" y="602.9777777777778"/>
      <point x="838.4080808080809" y="724.8828282828283"/>
      <point x="568.0505050505051" y="793.4638383838384" type="curve" smooth="yes"/>
      <point x="495.8828282828283" y="812.0783838383838" type="line" smooth="yes"/>
      <point x="281.45838383838384" y="868.5755555555555"/>
      <point x="202.75454545454548" y="945.7151515151515"/>
      <point x="202.75454545454548" y="1105.6870707070707" type="curve" smooth="yes"/>
      <point x="202.75454545454548" y="1287.9159595959595"/>
      <point x="324.4248484848485" y="1391.7650505050506"/>
      <point x="586.9220202020202" y="1391.7650505050506" type="curve" smooth="yes"/>
      <point x="690.9220202020202" y="1391.7650505050506"/>
      <point x="796.279595959596" y="1377.4745454545455"/>
      <point x="899.1008080808081" y="1345.7818181818182" type="curve"/>
      <point x="899.1008080808081" y="1454.3072727272727" type="line"/>
      <point x="807.519797979798" y="1483.1452525252525"/>
      <point x="692.4862626262626" y="1498.290505050505"/>
      <point x="585.8381818181819" y="1498.290505050505" type="curve" smooth="yes"/>
      <point x="249.46929292929292" y="1498.290505050505"/>
      <point x="78.75414141414142" y="1346.0781818181817"/>
      <point x="78.75414141414142" y="1098.9272727272728" type="curve" smooth="yes"/>
      <point x="78.75414141414142" y="888.5696969696969"/>
      <point x="201.51393939393938" y="765.6646464646465"/>
      <point x="451.2737373737374" y="701.5193939393939" type="curve" smooth="yes"/>
      <point x="523.4414141414142" y="682.9048484848485" type="line" smooth="yes"/>
      <point x="748.0446464646465" y="623.9719191919191"/>
      <point x="836.8769696969697" y="549.8155555555555"/>
      <point x="836.8769696969697" y="384.8436363636364" type="curve" smooth="yes"/>
      <point x="836.8769696969697" y="190.21252525252527"/>
      <point x="711.0949494949494" y="88.23494949494952"/>
      <point x="452.16767676767677" y="88.23494949494952" type="curve" smooth="yes"/>
      <point x="346.5531313131313" y="88.23494949494952"/>
      <point x="222.96646464646466" y="106.39696969696973"/>
      <point x="98.82121212121211" y="147.8159595959596" type="curve"/>
      <point x="98.82121212121211" y="39.29050505050505" type="line"/>
      <point x="211.85474747474746" y="0.435757575757576"/>
      <point x="340.0838383838384" y="-18.29050505050505"/>
    </contour>
    <contour>
      <point x="464.2680808080808" y="-240.0" type="line"/>
      <point x="577.0729292929293" y="-240.0" type="line"/>
      <point x="577.0729292929293" y="20.167676767676774" type="line"/>
      <point x="464.2680808080808" y="11.620202020202028" type="line"/>
    </contour>
    <contour>
      <point x="464.2680808080808" y="1471.2848484848485" type="line"/>
      <point x="577.0729292929293" y="1471.2848484848485" type="line"/>
      <point x="577.0729292929293" y="1720.0" type="line"/>
      <point x="464.2680808080808" y="1720.0" type="line"/>
    </contour>
  </outline>
</glyph>
<glyph name="percent" format="2">
  <advance width="1783.9056565656565"/>
  <unicode hex="0025"/>
  <note>
450
</note>
  <outline>
    <contour>
      <point x="513.5923232323232" y="0.0" type="line"/>
      <point x="623.8105050505051" y="0.0" type="line"/>
      <point x="1270.3133333333335" y="1480.0" type="line"/>
      <point x="1160.0951515151514" y="1480.0" type="line"/>
    </contour>
    <contour>
      <point x="434.2179797979798" y="576.2569696969697" type="curve" smooth="yes"/>
      <point x="624.5644444444445" y="576.2569696969697"/>
      <point x="759.1175757575758" y="704.0670707070707"/>
      <point x="759.1175757575758" y="1037.2737373737373" type="curve" smooth="yes"/>
      <point x="759.1175757575758" y="1370.480404040404"/>
      <point x="627.1286868686868" y="1498.290505050505"/>
      <point x="434.2179797979798" y="1498.290505050505" type="curve" smooth="yes"/>
      <point x="241.30727272727273" y="1498.290505050505"/>
      <point x="109.31838383838384" y="1370.480404040404"/>
      <point x="109.31838383838384" y="1037.2737373737373" type="curve" smooth="yes"/>
      <point x="109.31838383838384" y="704.0670707070707"/>
      <point x="243.87151515151515" y="576.2569696969697"/>
    </contour>
    <contour>
      <point x="434.2179797979798" y="667.5812121212122" type="curve" smooth="yes"/>
      <point x="303.4024242424243" y="667.5812121212122"/>
      <point x="214.37454545454548" y="760.4638383838384"/>
      <point x="214.37454545454548" y="1038.9832323232324" type="curve" smooth="yes"/>
      <point x="214.37454545454548" y="1315.7931313131312"/>
      <point x="303.4024242424243" y="1406.9662626262625"/>
      <point x="434.2179797979798" y="1406.9662626262625" type="curve" smooth="yes"/>
      <point x="564.1787878787878" y="1406.9662626262625"/>
      <point x="654.0614141414142" y="1315.7931313131312"/>
      <point x="654.0614141414142" y="1035.5642424242424" type="curve" smooth="yes"/>
      <point x="654.0614141414142" y="757.0448484848484"/>
      <point x="564.1787878787878" y="667.5812121212122"/>
    </contour>
    <contour>
      <point x="1349.6876767676767" y="-18.0" type="curve" smooth="yes"/>
      <point x="1540.888888888889" y="-18.0"/>
      <point x="1674.5872727272726" y="109.81010101010102"/>
      <point x="1674.5872727272726" y="443.0167676767677" type="curve" smooth="yes"/>
      <point x="1674.5872727272726" y="776.2234343434343"/>
      <point x="1541.7436363636364" y="904.0335353535354"/>
      <point x="1349.6876767676767" y="904.0335353535354" type="curve" smooth="yes"/>
      <point x="1157.6317171717171" y="904.0335353535354"/>
      <point x="1024.7880808080808" y="776.2234343434343"/>
      <point x="1024.7880808080808" y="443.0167676767677" type="curve" smooth="yes"/>
      <point x="1024.7880808080808" y="109.81010101010102"/>
      <point x="1158.4864646464648" y="-18.0"/>
    </contour>
    <contour>
      <point x="1349.6876767676767" y="73.32424242424244" type="curve" smooth="yes"/>
      <point x="1219.7268686868688" y="73.32424242424244"/>
      <point x="1129.8442424242426" y="166.2068686868687"/>
      <point x="1129.8442424242426" y="444.7262626262626" type="curve" smooth="yes"/>
      <point x="1129.8442424242426" y="721.5361616161616"/>
      <point x="1219.7268686868688" y="812.7092929292929"/>
      <point x="1349.6876767676767" y="812.7092929292929" type="curve" smooth="yes"/>
      <point x="1479.648484848485" y="812.7092929292929"/>
      <point x="1569.5311111111112" y="721.5361616161616"/>
      <point x="1569.5311111111112" y="441.30727272727273" type="curve" smooth="yes"/>
      <point x="1569.5311111111112" y="162.7878787878788"/>
      <point x="1479.648484848485" y="73.32424242424244"/>
    </contour>
  </outline>
</glyph>
<glyph name="ampersand" format="2">
  <advance width="1468.8606060606062"/>
  <unicode hex="0026"/>
  <outline>
    <contour>
      <point x="1405.7822222222221" y="-20.0" type="line"/>
      <point x="1468.8606060606062" y="70.20141414141418" type="line"/>
      <point x="693.0056565656565" y="678.1175757575758" type="line" smooth="yes"/>
      <point x="480.39131313131315" y="848.9107070707071"/>
      <point x="428.7321212121212" y="942.759797979798"/>
      <point x="428.7321212121212" y="1083.2345454545455" type="curve" smooth="yes"/>
      <point x="428.7321212121212" y="1281.770707070707"/>
      <point x="542.8717171717171" y="1391.7650505050506"/>
      <point x="810.6090909090909" y="1391.7650505050506" type="curve" smooth="yes"/>
      <point x="893.8828282828283" y="1391.7650505050506"/>
      <point x="970.7878787878788" y="1382.4745454545455"/>
      <point x="1046.480606060606" y="1361.7818181818182" type="curve"/>
      <point x="1046.480606060606" y="1470.3072727272727" type="line"/>
      <point x="978.1565656565656" y="1487.5810101010102"/>
      <point x="897.8492929292929" y="1498.290505050505"/>
      <point x="808.089494949495" y="1498.290505050505" type="curve" smooth="yes"/>
      <point x="469.8826262626263" y="1498.290505050505"/>
      <point x="304.73171717171715" y="1347.0614141414142"/>
      <point x="304.73171717171715" y="1083.8323232323232" type="curve" smooth="yes"/>
      <point x="304.73171717171715" y="909.7541414141414"/>
      <point x="380.1339393939394" y="783.5585858585858"/>
      <point x="629.9272727272727" y="587.9161616161616" type="curve" smooth="yes"/>
    </contour>
    <contour>
      <point x="674.2290909090909" y="-18.0" type="curve" smooth="yes"/>
      <point x="1026.7878787878788" y="-18.0"/>
      <point x="1233.4080808080807" y="163.27939393939394"/>
      <point x="1233.4080808080807" y="507.8717171717172" type="curve" smooth="yes"/>
      <point x="1233.4080808080807" y="596.1119191919192"/>
      <point x="1220.6985858585858" y="692.6593939393939"/>
      <point x="1193.151111111111" y="781.2068686868687" type="curve"/>
      <point x="1084.5139393939394" y="781.2068686868687" type="line"/>
      <point x="1112.9161616161616" y="692.6593939393939"/>
      <point x="1128.3351515151514" y="594.1119191919192"/>
      <point x="1128.3351515151514" y="507.2907070707071" type="curve" smooth="yes"/>
      <point x="1128.3351515151514" y="211.8717171717172"/>
      <point x="962.0949494949496" y="81.69858585858589"/>
      <point x="683.3464646464647" y="81.69858585858589" type="curve" smooth="yes"/>
      <point x="398.71535353535353" y="81.69858585858589"/>
      <point x="269.96121212121216" y="216.35212121212123"/>
      <point x="269.96121212121216" y="414.68161616161615" type="curve" smooth="yes"/>
      <point x="269.96121212121216" y="563.6256565656565"/>
      <point x="340.7153535353536" y="674.0389898989899"/>
      <point x="486.3018181818182" y="743.9719191919191" type="curve"/>
      <point x="421.7206060606061" y="815.0614141414142" type="line"/>
      <point x="246.77090909090907" y="735.7262626262626"/>
      <point x="146.2513131313131" y="591.7430303030303"/>
      <point x="146.2513131313131" y="402.5810101010101" type="curve" smooth="yes"/>
      <point x="146.2513131313131" y="153.12848484848485"/>
      <point x="323.7709090909091" y="-18.0"/>
    </contour>
  </outline>
</glyph>
<glyph name="quotesingle" format="2">
  <advance width="404.5923232323232"/>
  <unicode hex="0027"/>
  <outline>
    <contour>
      <point x="166.31838383838382" y="933.050101010101" type="line"/>
      <point x="238.27393939393943" y="933.050101010101" type="line"/>
      <point x="266.55333333333334" y="1616.0" type="line"/>
      <point x="138.03898989898988" y="1616.0" type="line"/>
    </contour>
  </outline>
</glyph>
<glyph name="parenleft" format="2">
  <advance width="644.5923232323232"/>
  <unicode hex="0028"/>
  <outline>
    <contour>
      <point x="472.1731313131313" y="-440.0" type="curve"/>
      <point x="603.7545454545455" y="-440.0" type="line"/>
      <point x="357.60929292929296" y="-129.5977777777778"/>
      <point x="255.60929292929296" y="213.20666666666665"/>
      <point x="255.60929292929296" y="588.0" type="curve" smooth="yes"/>
      <point x="255.60929292929296" y="962.7933333333333"/>
      <point x="357.60929292929296" y="1305.5977777777778"/>
      <point x="603.7545454545455" y="1616.0" type="curve"/>
      <point x="472.1731313131313" y="1616.0" type="line"/>
      <point x="234.0111111111111" y="1319.0838383838384"/>
      <point x="130.88262626262625" y="968.5028282828283"/>
      <point x="130.88262626262625" y="588.0" type="curve" smooth="yes"/>
      <point x="130.88262626262625" y="207.4971717171717"/>
      <point x="234.0111111111111" y="-143.08383838383838"/>
    </contour>
  </outline>
</glyph>
<glyph name="parenright" format="2">
  <advance width="644.5923232323232"/>
  <unicode hex="0029"/>
  <outline>
    <contour>
      <point x="40.83777777777776" y="-440.0" type="curve"/>
      <point x="172.41919191919195" y="-440.0" type="line"/>
      <point x="410.58121212121216" y="-143.08383838383838"/>
      <point x="513.709696969697" y="207.4971717171717"/>
      <point x="513.709696969697" y="588.0" type="curve" smooth="yes"/>
      <point x="513.709696969697" y="968.5028282828283"/>
      <point x="410.58121212121216" y="1319.0838383838384"/>
      <point x="172.41919191919195" y="1616.0" type="curve"/>
      <point x="40.83777777777776" y="1616.0" type="line"/>
      <point x="286.98303030303026" y="1305.5977777777778"/>
      <point x="388.98303030303026" y="962.7933333333333"/>
      <point x="388.98303030303026" y="588.0" type="curve" smooth="yes"/>
      <point x="388.98303030303026" y="213.20666666666665"/>
      <point x="286.98303030303026" y="-129.5977777777778"/>
    </contour>
  </outline>
</glyph>
<glyph name="asterisk" format="2">
  <advance width="896.469494949495"/>
  <unicode hex="002A"/>
  <outline>
    <contour>
      <point x="493.40808080808085" y="1193.62" type="line"/>
      <point x="689.2292929292929" y="1236.9719191919191" type="line"/>
      <point x="866.469494949495" y="1294.100404040404" type="line"/>
      <point x="837.0280808080809" y="1383.2961616161617" type="line"/>
      <point x="661.4973737373738" y="1326.0224242424242" type="line"/>
      <point x="475.4191919191919" y="1244.8268686868687" type="line"/>
      <point x="495.48626262626266" y="1446.3575757575757" type="line"/>
      <point x="495.48626262626266" y="1616.0" type="line"/>
      <point x="400.9832323232323" y="1616.0" type="line"/>
      <point x="400.9832323232323" y="1446.3575757575757" type="line"/>
      <point x="421.05030303030304" y="1244.8268686868687" type="line"/>
      <point x="234.9721212121212" y="1326.0224242424242" type="line"/>
      <point x="59.44141414141415" y="1383.2961616161617" type="line"/>
      <point x="30.0" y="1294.100404040404" type="line"/>
      <point x="207.24020202020202" y="1236.9719191919191" type="line"/>
      <point x="403.06141414141416" y="1193.62" type="line"/>
      <point x="269.6088888888889" y="1042.558585858586" type="line"/>
      <point x="165.65919191919193" y="901.189898989899" type="line"/>
      <point x="242.35212121212123" y="845.3238383838384" type="line"/>
      <point x="346.3018181818182" y="986.5472727272727" type="line"/>
      <point x="448.2347474747475" y="1162.580808080808" type="line"/>
      <point x="550.1676767676768" y="986.5472727272727" type="line"/>
      <point x="654.1173737373738" y="845.3238383838384" type="line"/>
      <point x="730.8103030303031" y="901.189898989899" type="line"/>
      <point x="626.8606060606061" y="1042.558585858586" type="line"/>
    </contour>
  </outline>
</glyph>
<glyph name="hyphen" format="2">
  <advance width="820.949898989899"/>
  <unicode hex="002D"/>
  <outline>
    <contour>
      <point x="156.6870707070707" y="509.26242424242423" type="line"/>
      <point x="664.2628282828283" y="509.26242424242423" type="line"/>
      <point x="664.2628282828283" y="613.6426262626263" type="line"/>
      <point x="156.6870707070707" y="613.6426262626263" type="line"/>
    </contour>
  </outline>
</glyph>
<glyph name="period" format="2">
  <advance width="437.0840404040404"/>
  <unicode hex="002E"/>
  <outline>
    <contour>
      <point x="218.5420202020202" y="-11.452525252525254" type="curve" smooth="yes"/>
      <point x="272.9890909090909" y="-11.452525252525254"/>
      <point x="310.4640404040404" y="23.44141414141415"/>
      <point x="310.4640404040404" y="77.70969696969699" type="curve" smooth="yes"/>
      <point x="310.4640404040404" y="131.97797979797983"/>
      <point x="273.57010101010104" y="168.58141414141417"/>
      <point x="218.5420202020202" y="168.58141414141417" type="curve" smooth="yes"/>
      <point x="163.51393939393938" y="168.58141414141417"/>
      <point x="126.61999999999999" y="132.55898989898992"/>
      <point x="126.61999999999999" y="77.70969696969699" type="curve" smooth="yes"/>
      <point x="126.61999999999999" y="22.860404040404045"/>
      <point x="164.0949494949495" y="-11.452525252525254"/>
    </contour>
  </outline>
</glyph>
<glyph name="slash" format="2">
  <advance width="573.0674747474748"/>
  <unicode hex="002F"/>
  <outline>
    <contour>
      <point x="0.0" y="-240.0" type="line"/>
      <point x="119.69313131313135" y="-240.0" type="line"/>
      <point x="573.0674747474748" y="1616.0" type="line"/>
      <point x="453.3743434343434" y="1616.0" type="line"/>
    </contour>
  </outline>
</glyph>
<glyph name="zero" format="2">
  <advance width="1226.9052525252525"/>
  <unicode hex="0030"/>
  <note>
600
</note>
  <outline>
    <contour>
      <point x="613.38" y="-18.29050505050505" type="curve" smooth="yes"/>
      <point x="913.3410101010102" y="-18.29050505050505"/>
      <point x="1106.0226262626263" y="184.68161616161618"/>
      <point x="1106.0226262626263" y="740.0" type="curve" smooth="yes"/>
      <point x="1106.0226262626263" y="1295.3183838383839"/>
      <point x="916.76" y="1498.290505050505"/>
      <point x="613.38" y="1498.290505050505" type="curve" smooth="yes"/>
      <point x="310.0" y="1498.290505050505"/>
      <point x="120.88262626262626" y="1295.3183838383839"/>
      <point x="120.88262626262626" y="740.0" type="curve" smooth="yes"/>
      <point x="120.88262626262626" y="184.68161616161618"/>
      <point x="313.4189898989899" y="-18.29050505050505"/>
    </contour>
    <contour>
      <point x="613.5252525252525" y="89.10646464646467" type="curve" smooth="yes"/>
      <point x="389.5030303030303" y="89.10646464646467"/>
      <point x="244.0115151515152" y="238.2460606060606"/>
      <point x="244.0115151515152" y="743.4189898989899" type="curve" smooth="yes"/>
      <point x="244.0115151515152" y="1241.7539393939394"/>
      <point x="389.7935353535354" y="1390.8935353535353"/>
      <point x="613.5252525252525" y="1390.8935353535353" type="curve" smooth="yes"/>
      <point x="837.1117171717171" y="1390.8935353535353"/>
      <point x="982.8937373737374" y="1241.7539393939394"/>
      <point x="982.8937373737374" y="736.5810101010101" type="curve" smooth="yes"/>
      <point x="982.8937373737374" y="238.2460606060606"/>
      <point x="837.1117171717171" y="89.10646464646467"/>
    </contour>
  </outline>
</glyph>
<glyph name="one" format="2">
  <advance width="705.6818181818182"/>
  <unicode hex="0031"/>
  <outline>
    <contour>
      <point x="396.28484848484845" y="0.0" type="line"/>
      <point x="517.4472727272728" y="0.0" type="line"/>
      <point x="517.4472727272728" y="1484.290505050505" type="line"/>
      <point x="440.87717171717173" y="1484.290505050505" type="line"/>
      <point x="23.87151515151515" y="1180.821212121212" type="line"/>
      <point x="23.87151515151515" y="1056.9046464646465" type="line"/>
      <point x="440.87717171717173" y="1358.6644444444444" type="line"/>
      <point x="396.28484848484845" y="1379.050101010101" type="line"/>
    </contour>
  </outline>
</glyph>
<glyph name="two" format="2">
  <advance width="964.469494949495"/>
  <unicode hex="0032"/>
  <outline>
    <contour>
      <point x="63.07818181818182" y="0.0" type="line"/>
      <point x="897.9555555555555" y="0.0" type="line"/>
      <point x="897.9555555555555" y="106.26848484848489" type="line"/>
      <point x="185.77696969696973" y="106.26848484848489" type="line"/>
      <point x="200.17919191919196" y="70.21252525252527" type="line"/>
      <point x="588.0729292929293" y="590.4189898989899" type="line" smooth="yes"/>
      <point x="758.0226262626263" y="815.7038383838384"/>
      <point x="815.0058585858586" y="952.0111111111111"/>
      <point x="815.8606060606061" y="1112.251313131313" type="curve" smooth="yes"/>
      <point x="817.5701010101011" y="1380.8044444444445"/>
      <point x="655.0169696969697" y="1498.290505050505"/>
      <point x="373.0838383838384" y="1498.290505050505" type="curve" smooth="yes"/>
      <point x="253.21232323232323" y="1498.290505050505"/>
      <point x="130.94969696969696" y="1476.709494949495"/>
      <point x="45.787676767676764" y="1441.5810101010102" type="curve"/>
      <point x="45.787676767676764" y="1333.0555555555554" type="line"/>
      <point x="144.04464646464646" y="1372.0387878787878"/>
      <point x="249.6759595959596" y="1391.7650505050506"/>
      <point x="365.96646464646466" y="1391.7650505050506" type="curve" smooth="yes"/>
      <point x="582.430101010101" y="1391.7650505050506"/>
      <point x="694.0054545454545" y="1308.9941414141415"/>
      <point x="694.0054545454545" y="1104.150707070707" type="curve" smooth="yes"/>
      <point x="694.0054545454545" y="971.4468686868687"/>
      <point x="639.3294949494949" y="844.5642424242424"/>
      <point x="490.28484848484845" y="645.1676767676768" type="curve" smooth="yes"/>
      <point x="63.07818181818182" y="67.74323232323235" type="line"/>
    </contour>
  </outline>
</glyph>
<glyph name="three" format="2">
  <advance width="993.4024242424242"/>
  <unicode hex="0033"/>
  <outline>
    <contour>
      <point x="404.24585858585857" y="-18.29050505050505" type="curve" smooth="yes"/>
      <point x="743.5141414141415" y="-18.29050505050505"/>
      <point x="919.0337373737374" y="134.88828282828283"/>
      <point x="919.0337373737374" y="396.77656565656565" type="curve" smooth="yes"/>
      <point x="919.0337373737374" y="612.8715151515152"/>
      <point x="785.3745454545455" y="748.6759595959596"/>
      <point x="537.089696969697" y="779.9664646464646" type="curve"/>
      <point x="536.2349494949495" y="756.0" type="line"/>
      <point x="743.6818181818182" y="798.1284848484848"/>
      <point x="870.1789898989899" y="934.240202020202"/>
      <point x="870.1789898989899" y="1128.3183838383839" type="curve" smooth="yes"/>
      <point x="870.1789898989899" y="1362.9664646464646"/>
      <point x="711.3688888888889" y="1498.290505050505"/>
      <point x="420.50282828282826" y="1498.290505050505" type="curve" smooth="yes"/>
      <point x="304.88828282828285" y="1498.290505050505"/>
      <point x="184.06141414141413" y="1478.709494949495"/>
      <point x="91.18989898989898" y="1444.1452525252525" type="curve"/>
      <point x="91.18989898989898" y="1339.9773737373737" type="line"/>
      <point x="196.02787878787876" y="1378.2511111111112"/>
      <point x="303.0949494949495" y="1395.8321212121211"/>
      <point x="413.240202020202" y="1395.8321212121211" type="curve" smooth="yes"/>
      <point x="634.3630303030303" y="1395.8321212121211"/>
      <point x="750.3573737373737" y="1300.111515151515"/>
      <point x="750.3573737373737" y="1122.3630303030302" type="curve" smooth="yes"/>
      <point x="750.3573737373737" y="922.5531313131313"/>
      <point x="603.8993939393939" y="811.7208080808081"/>
      <point x="325.18444444444447" y="811.7208080808081" type="curve" smooth="yes"/>
      <point x="246.79878787878786" y="811.7208080808081" type="line"/>
      <point x="246.79878787878786" y="708.5361616161616" type="line"/>
      <point x="413.7262626262626" y="708.5361616161616" type="line" smooth="yes"/>
      <point x="678.9608080808081" y="708.5361616161616"/>
      <point x="800.2288888888888" y="593.5753535353535"/>
      <point x="800.2288888888888" y="400.8436363636364" type="curve" smooth="yes"/>
      <point x="800.2288888888888" y="194.29070707070707"/>
      <point x="666.1228282828283" y="84.1678787878788"/>
      <point x="402.3408080808081" y="84.1678787878788" type="curve" smooth="yes"/>
      <point x="292.0167676767677" y="84.1678787878788"/>
      <point x="168.80444444444444" y="104.1678787878788"/>
      <point x="54.09494949494949" y="143.27959595959598" type="curve"/>
      <point x="54.09494949494949" y="39.11171717171717" type="line"/>
      <point x="161.4189898989899" y="1.4189898989898988"/>
      <point x="283.7430303030303" y="-18.29050505050505"/>
    </contour>
  </outline>
</glyph>
<glyph name="four" format="2">
  <advance width="1157.9220202020201"/>
  <unicode hex="0034"/>
  <outline>
    <contour>
      <point x="50.51393939393939" y="367.5864646464646" type="line"/>
      <point x="1114.6818181818182" y="367.5864646464646" type="line"/>
      <point x="1114.6818181818182" y="470.2236363636364" type="line"/>
      <point x="154.84949494949498" y="470.2236363636364" type="line"/>
      <point x="174.9165656565657" y="434.2012121212121" type="line"/>
      <point x="764.2907070707071" y="1480.0" type="line"/>
      <point x="639.4858585858585" y="1480.0" type="line"/>
      <point x="50.51393939393939" y="435.9107070707071" type="line"/>
    </contour>
    <contour>
      <point x="786.4468686868687" y="0.0" type="line"/>
      <point x="900.6371717171718" y="0.0" type="line"/>
      <point x="900.6371717171718" y="980.0" type="line"/>
      <point x="804.2234343434343" y="980.0" type="line"/>
      <point x="786.4468686868687" y="470.2236363636364" type="line"/>
    </contour>
  </outline>
</glyph>
<glyph name="five" format="2">
  <advance width="1003.1286868686868"/>
  <unicode hex="0035"/>
  <outline>
    <contour>
      <point x="431.24585858585857" y="-18.29050505050505" type="curve" smooth="yes"/>
      <point x="767.2068686868687" y="-18.29050505050505"/>
      <point x="944.7432323232324" y="132.3240404040404"/>
      <point x="944.8884848484848" y="412.5531313131313" type="curve" smooth="yes"/>
      <point x="945.0337373737374" y="680.4749494949496"/>
      <point x="772.2907070707071" y="817.2347474747475"/>
      <point x="361.4135353535354" y="841.5252525252525" type="curve" smooth="yes"/>
      <point x="175.83252525252527" y="852.38" type="line"/>
      <point x="256.4472727272728" y="792.2905050505051" type="line"/>
      <point x="300.14000000000004" y="1425.4747474747476" type="line"/>
      <point x="243.2068686868687" y="1377.5080808080809" type="line"/>
      <point x="883.3242424242425" y="1377.5080808080809" type="line"/>
      <point x="883.3242424242425" y="1480.0" type="line"/>
      <point x="186.91616161616162" y="1480.0" type="line"/>
      <point x="137.48040404040404" y="750.6478787878788" type="line"/>
      <point x="323.06141414141416" y="739.7931313131313" type="line" smooth="yes"/>
      <point x="694.1228282828283" y="718.0836363636364"/>
      <point x="825.9383838383839" y="619.3630303030303"/>
      <point x="825.9383838383839" y="410.24585858585857" type="curve" smooth="yes"/>
      <point x="825.9383838383839" y="194.0169696969697"/>
      <point x="694.3965656565656" y="84.74888888888891"/>
      <point x="430.19555555555553" y="84.74888888888891" type="curve" smooth="yes"/>
      <point x="315.59777777777776" y="84.74888888888891"/>
      <point x="192.38545454545454" y="105.74888888888891"/>
      <point x="80.24020202020202" y="144.15111111111113" type="curve"/>
      <point x="80.24020202020202" y="39.98323232323232" type="line"/>
      <point x="185.0" y="2.709494949494949"/>
      <point x="309.03353535353534" y="-18.29050505050505"/>
    </contour>
  </outline>
</glyph>
<glyph name="six" format="2">
  <advance width="1125.5365656565657"/>
  <unicode hex="0036"/>
  <outline>
    <contour>
      <point x="631.0727272727273" y="-18.29050505050505" type="curve" smooth="yes"/>
      <point x="881.0672727272728" y="-18.29050505050505"/>
      <point x="1063.7153535353536" y="126.11737373737374"/>
      <point x="1063.7153535353536" y="413.1341414141414" type="curve" smooth="yes"/>
      <point x="1063.7153535353536" y="702.2179797979798"/>
      <point x="879.0672727272728" y="840.7822222222222"/>
      <point x="611.3410101010102" y="840.7822222222222" type="curve" smooth="yes"/>
      <point x="461.2460606060606" y="840.7822222222222"/>
      <point x="309.8606060606061" y="786.6705050505051"/>
      <point x="224.1846464646465" y="697.2850505050505" type="curve"/>
      <point x="224.1846464646465" y="584.6535353535353" type="line"/>
      <point x="313.8438383838384" y="695.5361616161616"/>
      <point x="468.80464646464645" y="740.2121212121212"/>
      <point x="594.9945454545455" y="740.2121212121212" type="curve" smooth="yes"/>
      <point x="808.7094949494949" y="740.2121212121212"/>
      <point x="947.379797979798" y="639.7820202020202"/>
      <point x="947.379797979798" y="408.8268686868687" type="curve" smooth="yes"/>
      <point x="947.379797979798" y="180.0169696969697"/>
      <point x="811.8547474747475" y="82.57010101010104"/>
      <point x="632.2179797979798" y="82.57010101010104" type="curve" smooth="yes"/>
      <point x="402.9387878787879" y="82.57010101010104"/>
      <point x="252.43050505050508" y="224.2236363636364"/>
      <point x="252.43050505050508" y="681.8323232323232" type="curve" smooth="yes"/>
      <point x="252.43050505050508" y="719.1062626262626" type="line" smooth="yes"/>
      <point x="252.43050505050508" y="1197.8713131313132"/>
      <point x="419.15111111111116" y="1394.670101010101"/>
      <point x="738.1286868686868" y="1394.670101010101" type="curve" smooth="yes"/>
      <point x="823.76" y="1394.670101010101"/>
      <point x="919.4862626262627" y="1381.379595959596"/>
      <point x="997.2460606060606" y="1349.5248484848485" type="curve"/>
      <point x="997.2460606060606" y="1454.8547474747475" type="line"/>
      <point x="920.4862626262626" y="1486.290505050505"/>
      <point x="826.0169696969697" y="1498.290505050505"/>
      <point x="735.6426262626263" y="1498.290505050505" type="curve" smooth="yes"/>
      <point x="346.0670707070707" y="1498.290505050505"/>
      <point x="131.5921212121212" y="1253.6424242424243"/>
      <point x="131.5921212121212" y="692.0" type="curve" smooth="yes"/>
      <point x="131.5921212121212" y="168.93858585858587"/>
      <point x="333.0167676767677" y="-18.29050505050505"/>
    </contour>
  </outline>
</glyph>
<glyph name="seven" format="2">
  <advance width="919.0169696969697"/>
  <unicode hex="0037"/>
  <outline>
    <contour>
      <point x="174.62565656565656" y="0.0" type="line"/>
      <point x="301.51434343434346" y="0.0" type="line"/>
      <point x="860.3074747474748" y="1412.2567676767676" type="line"/>
      <point x="860.3074747474748" y="1480.0" type="line"/>
      <point x="11.854747474747475" y="1480.0" type="line"/>
      <point x="11.854747474747475" y="1373.7315151515152" type="line"/>
      <point x="772.3854545454545" y="1373.7315151515152" type="line"/>
      <point x="739.9216161616162" y="1413.9662626262625" type="line"/>
    </contour>
  </outline>
</glyph>
<glyph name="eight" format="2">
  <advance width="1226.9052525252525"/>
  <unicode hex="0038"/>
  <outline>
    <contour>
      <point x="623.0727272727273" y="-18.29050505050505" type="curve" smooth="yes"/>
      <point x="942.6482828282828" y="-18.29050505050505"/>
      <point x="1122.4248484848486" y="138.10060606060605"/>
      <point x="1122.4248484848486" y="374.9888888888889" type="curve" smooth="yes"/>
      <point x="1122.4248484848486" y="586.8604040404041"/>
      <point x="997.7488888888889" y="708.9107070707071"/>
      <point x="659.469494949495" y="790.7040404040404" type="curve" smooth="yes"/>
      <point x="363.39131313131315" y="860.8660606060606"/>
      <point x="273.38020202020203" y="952.2961616161616"/>
      <point x="273.38020202020203" y="1123.0446464646463" type="curve" smooth="yes"/>
      <point x="273.38020202020203" y="1293.3238383838384"/>
      <point x="388.9387878787879" y="1399.6086868686868"/>
      <point x="611.5923232323232" y="1399.6086868686868" type="curve" smooth="yes"/>
      <point x="831.7765656565657" y="1399.6086868686868"/>
      <point x="960.7373737373738" y="1301.3238383838384"/>
      <point x="960.7373737373738" y="1118.4636363636364" type="curve" smooth="yes"/>
      <point x="960.7373737373738" y="953.6983838383838"/>
      <point x="877.9832323232323" y="854.0727272727273"/>
      <point x="684.329696969697" y="773.6872727272728" type="curve"/>
      <point x="778.4751515151515" y="732.0838383838384" type="line"/>
      <point x="971.1232323232324" y="808.5363636363636"/>
      <point x="1072.6036363636363" y="943.5363636363636"/>
      <point x="1072.6036363636363" y="1125.709494949495" type="curve" smooth="yes"/>
      <point x="1072.6036363636363" y="1356.290505050505"/>
      <point x="899.9387878787879" y="1498.290505050505"/>
      <point x="613.1733333333334" y="1498.290505050505" type="curve" smooth="yes"/>
      <point x="323.38545454545454" y="1498.290505050505"/>
      <point x="152.86585858585858" y="1351.2066666666667"/>
      <point x="152.86585858585858" y="1119.0111111111112" type="curve" smooth="yes"/>
      <point x="152.86585858585858" y="902.7373737373738"/>
      <point x="279.8490909090909" y="770.9272727272727"/>
      <point x="618.6927272727273" y="690.7317171717172" type="curve" smooth="yes"/>
      <point x="905.4636363636364" y="622.3127272727272"/>
      <point x="1002.7820202020202" y="540.4133333333333"/>
      <point x="1002.7820202020202" y="367.2290909090909" type="curve" smooth="yes"/>
      <point x="1002.7820202020202" y="184.09515151515154"/>
      <point x="867.9832323232323" y="80.39131313131315"/>
      <point x="624.0727272727273" y="80.39131313131315" type="curve" smooth="yes"/>
      <point x="358.9387878787879" y="80.39131313131315"/>
      <point x="222.97797979797983" y="186.67616161616164"/>
      <point x="222.97797979797983" y="380.53636363636366" type="curve" smooth="yes"/>
      <point x="222.97797979797983" y="547.9943434343435"/>
      <point x="328.82707070707073" y="679.5864646464646"/>
      <point x="523.2404040404041" y="735.1339393939394" type="curve"/>
      <point x="423.189898989899" y="778.0111111111111" type="line"/>
      <point x="224.15636363636364" y="711.8658585858586"/>
      <point x="103.89939393939393" y="566.189898989899"/>
      <point x="103.89939393939393" y="371.4189898989899" type="curve" smooth="yes"/>
      <point x="103.89939393939393" y="124.92181818181818"/>
      <point x="284.7709090909091" y="-18.29050505050505"/>
    </contour>
  </outline>
</glyph>
<glyph name="less" format="2">
  <advance width="1069.8436363636363"/>
  <unicode hex="003C"/>
  <outline>
    <contour>
      <point x="913.1565656565657" y="379.8545454545454" type="line"/>
      <point x="913.1565656565657" y="487.87717171717173" type="line"/>
      <point x="244.36323232323235" y="773.5977777777778" type="line"/>
      <point x="244.36323232323235" y="747.1284848484848" type="line"/>
      <point x="913.1565656565657" y="1032.1228282828283" type="line"/>
      <point x="913.1565656565657" y="1140.1454545454546" type="line"/>
      <point x="156.6870707070707" y="811.8549494949496" type="line"/>
      <point x="156.6870707070707" y="708.1450505050504" type="line"/>
    </contour>
  </outline>
</glyph>
<glyph name="equal" format="2">
  <advance width="1069.8436363636363"/>
  <unicode hex="003D"/>
  <outline>
    <contour>
      <point x="156.6870707070707" y="899.8323232323232" type="line"/>
      <point x="913.1565656565657" y="899.8323232323232" type="line"/>
      <point x="913.1565656565657" y="1001.0169696969697" type="line"/>
      <point x="156.6870707070707" y="1001.0169696969697" type="line"/>
    </contour>
    <contour>
      <point x="156.6870707070707" y="518.9830303030303" type="line"/>
      <point x="913.1565656565657" y="518.9830303030303" type="line"/>
      <point x="913.1565656565657" y="620.1676767676768" type="line"/>
      <point x="156.6870707070707" y="620.1676767676768" type="line"/>
    </contour>
  </outline>
</glyph>
<glyph name="greater" format="2">
  <advance width="1069.8436363636363"/>
  <unicode hex="003E"/>
  <outline>
    <contour>
      <point x="156.6870707070707" y="379.8545454545454" type="line"/>
      <point x="913.1565656565657" y="708.1450505050504" type="line"/>
      <point x="913.1565656565657" y="811.8549494949496" type="line"/>
      <point x="156.6870707070707" y="1140.1454545454546" type="line"/>
      <point x="156.6870707070707" y="1032.1228282828283" type="line"/>
      <point x="825.480404040404" y="747.1284848484848" type="line"/>
      <point x="825.480404040404" y="773.5977777777778" type="line"/>
      <point x="156.6870707070707" y="487.87717171717173" type="line"/>
    </contour>
  </outline>
</glyph>
<glyph name="question" format="2">
  <advance width="881.6147474747474"/>
  <unicode hex="003F"/>
  <outline>
    <contour>
      <point x="357.0949494949495" y="333.6985858585859" type="line"/>
      <point x="435.4527272727273" y="333.6985858585859" type="line"/>
      <point x="448.21252525252527" y="683.5474747474748" type="line"/>
      <point x="721.659393939394" y="790.4133333333333"/>
      <point x="820.3745454545455" y="916.7206060606061"/>
      <point x="820.3745454545455" y="1127.5921212121211" type="curve" smooth="yes"/>
      <point x="820.3745454545455" y="1362.9664646464646"/>
      <point x="661.5644444444445" y="1498.290505050505"/>
      <point x="370.69838383838385" y="1498.290505050505" type="curve" smooth="yes"/>
      <point x="255.08383838383838" y="1498.290505050505"/>
      <point x="134.2569696969697" y="1478.709494949495"/>
      <point x="41.38545454545454" y="1444.1452525252525" type="curve"/>
      <point x="41.38545454545454" y="1338.5248484848485" type="line"/>
      <point x="146.22343434343435" y="1376.7985858585857"/>
      <point x="253.0" y="1394.379595959596"/>
      <point x="362.29050505050503" y="1394.379595959596" type="curve" smooth="yes"/>
      <point x="584.5585858585858" y="1394.379595959596"/>
      <point x="700.5529292929293" y="1299.0947474747475"/>
      <point x="700.5529292929293" y="1122.0725252525253" type="curve" smooth="yes"/>
      <point x="700.5529292929293" y="947.4860606060606"/>
      <point x="611.4747474747475" y="842.1844444444445"/>
      <point x="336.23454545454547" y="750.7711111111112" type="curve"/>
    </contour>
    <contour>
      <point x="396.34646464646465" y="-11.452525252525254" type="curve" smooth="yes"/>
      <point x="452.5030303030303" y="-11.452525252525254"/>
      <point x="488.2684848484849" y="24.569898989898995"/>
      <point x="488.2684848484849" y="75.82141414141415" type="curve" smooth="yes"/>
      <point x="488.2684848484849" y="128.78242424242427"/>
      <point x="451.37454545454545" y="164.80484848484852"/>
      <point x="396.34646464646465" y="164.80484848484852" type="curve" smooth="yes"/>
      <point x="341.31838383838385" y="164.80484848484852"/>
      <point x="304.4244444444444" y="129.36343434343436"/>
      <point x="304.4244444444444" y="75.82141414141415" type="curve" smooth="yes"/>
      <point x="304.4244444444444" y="23.988888888888894"/>
      <point x="341.8993939393939" y="-11.452525252525254"/>
    </contour>
  </outline>
</glyph>
<glyph name="at" format="2">
  <advance width="1872.0842424242423"/>
  <unicode hex="0040"/>
  <outline>
    <contour>
      <point x="983.3242424242425" y="-460.0" type="curve" smooth="yes"/>
      <point x="1118.8438383838384" y="-460.0"/>
      <point x="1251.9276767676768" y="-438.5810101010101"/>
      <point x="1365.0618181818181" y="-404.29050505050503" type="curve"/>
      <point x="1365.0618181818181" y="-307.53050505050504" type="line"/>
      <point x="1233.6874747474749" y="-346.09474747474746"/>
      <point x="1114.570101010101" y="-364.9494949494949"/>
      <point x="983.3242424242425" y="-364.9494949494949" type="curve" smooth="yes"/>
      <point x="476.9331313131313" y="-364.9494949494949"/>
      <point x="217.74323232323235" y="-117.39090909090908"/>
      <point x="217.74323232323235" y="523.4189898989899" type="curve" smooth="yes"/>
      <point x="217.74323232323235" y="1152.2624242424242"/>
      <point x="475.2236363636364" y="1402.949494949495"/>
      <point x="942.0505050505051" y="1402.949494949495" type="curve" smooth="yes"/>
      <point x="1408.1678787878789" y="1402.949494949495"/>
      <point x="1660.6650505050507" y="1156.8434343434344"/>
      <point x="1661.2460606060606" y="557.7765656565657" type="curve" smooth="yes"/>
      <point x="1661.6818181818182" y="198.28505050505052"/>
      <point x="1558.1064646464647" y="76.76000000000002"/>
      <point x="1445.6260606060607" y="76.76000000000002" type="curve" smooth="yes"/>
      <point x="1358.8719191919192" y="76.76000000000002"/>
      <point x="1317.469696969697" y="124.41919191919195"/>
      <point x="1317.469696969697" y="243.139797979798" type="curve" smooth="yes"/>
      <point x="1317.469696969697" y="728.0836363636364" type="line" smooth="yes"/>
      <point x="1317.469696969697" y="1005.8993939393939"/>
      <point x="1179.1121212121213" y="1096.290505050505"/>
      <point x="927.0169696969697" y="1096.290505050505" type="curve" smooth="yes"/>
      <point x="830.659393939394" y="1096.290505050505"/>
      <point x="713.8828282828283" y="1078.8547474747475"/>
      <point x="626.38" y="1046.2737373737373" type="curve"/>
      <point x="626.0894949494949" y="942.6868686868687" type="line"/>
      <point x="728.3464646464647" y="979.1058585858585"/>
      <point x="834.7989898989899" y="993.8321212121211"/>
      <point x="915.3967676767677" y="993.8321212121211" type="curve" smooth="yes"/>
      <point x="1099.4917171717173" y="993.8321212121211"/>
      <point x="1199.2123232323233" y="937.8656565656565"/>
      <point x="1199.2123232323233" y="730.8434343434343" type="curve" smooth="yes"/>
      <point x="1199.2123232323233" y="231.03919191919192" type="line"/>
      <point x="1117.3632323232323" y="124.14545454545456"/>
      <point x="1005.3856565656566" y="81.95555555555558"/>
      <point x="901.4583838383838" y="81.95555555555558" type="curve" smooth="yes"/>
      <point x="755.0004040404041" y="81.95555555555558"/>
      <point x="678.7937373737375" y="151.25717171717173"/>
      <point x="678.7937373737375" y="284.76545454545453" type="curve" smooth="yes"/>
      <point x="678.7937373737375" y="411.1620202020202"/>
      <point x="755.5478787878789" y="478.6256565656566"/>
      <point x="930.8606060606061" y="499.0111111111111" type="curve" smooth="yes"/>
      <point x="1247.79898989899" y="535.6535353535353" type="line"/>
      <point x="1240.8268686868687" y="623.4414141414142" type="line"/>
      <point x="925.3242424242425" y="586.7989898989899" type="line" smooth="yes"/>
      <point x="669.3464646464647" y="558.9610101010101"/>
      <point x="555.1173737373738" y="458.32969696969695"/>
      <point x="555.1173737373738" y="273.1006060606061" type="curve" smooth="yes"/>
      <point x="555.1173737373738" y="89.06707070707071"/>
      <point x="679.0056565656565" y="-16.87151515151515"/>
      <point x="877.5420202020202" y="-16.87151515151515" type="curve" smooth="yes"/>
      <point x="1008.3632323232323" y="-16.87151515151515"/>
      <point x="1128.910707070707" y="34.513939393939395"/>
      <point x="1200.391111111111" y="126.87151515151515" type="curve"/>
      <point x="1211.1341414141414" y="126.87151515151515" type="line"/>
      <point x="1238.1230303030302" y="38.82121212121212"/>
      <point x="1309.5476767676769" y="-16.87151515151515"/>
      <point x="1427.8270707070708" y="-16.87151515151515" type="curve" smooth="yes"/>
      <point x="1613.7434343434343" y="-16.87151515151515"/>
      <point x="1760.3468686868687" y="146.83797979797978"/>
      <point x="1761.2016161616161" y="564.0670707070707" type="curve" smooth="yes"/>
      <point x="1762.0563636363636" y="1199.9832323232324"/>
      <point x="1468.5646464646466" y="1498.0"/>
      <point x="942.0505050505051" y="1498.0" type="curve" smooth="yes"/>
      <point x="415.68161616161615" y="1498.0"/>
      <point x="110.88262626262626" y="1199.9832323232324"/>
      <point x="110.88262626262626" y="520.0" type="curve" smooth="yes"/>
      <point x="110.88262626262626" y="-165.11171717171717"/>
      <point x="418.24585858585857" y="-459.14525252525254"/>
    </contour>
  </outline>
</glyph>
<glyph name="A" format="2">
  <advance width="1321.4416161616161"/>
  <unicode hex="0041"/>
  <note>
520
</note>
  <anchor x="661.5755555555556" y="0.0" name="bottom"/>
  <anchor x="1289.2349494949494" y="0.0" name="ogonek"/>
  <anchor x="661.4303030303031" y="1520.0" name="top"/>
  <outline>
    <contour>
      <point x="32.20666666666666" y="0.0" type="line"/>
      <point x="155.60929292929296" y="0.0" type="line"/>
      <point x="672.4470707070707" y="1418.9383838383837" type="line"/>
      <point x="646.4135353535354" y="1418.9383838383837" type="line"/>
      <point x="1163.5418181818181" y="0.0" type="line"/>
      <point x="1289.2349494949494" y="0.0" type="line"/>
      <point x="743.8105050505051" y="1480.0" type="line"/>
      <point x="577.6311111111111" y="1480.0" type="line"/>
    </contour>
    <contour>
      <point x="296.9274747474748" y="500.5472727272727" type="line"/>
      <point x="1024.0783838383838" y="500.5472727272727" type="line"/>
      <point x="993.9107070707071" y="606.3464646464647" type="line"/>
      <point x="327.2404040404041" y="606.3464646464647" type="line"/>
    </contour>
  </outline>
</glyph>
<glyph name="B" format="2">
  <advance width="1240.1119191919192"/>
  <unicode hex="0042"/>
  <anchor x="635.7654545454545" y="0.0" name="bottom"/>
  <anchor x="635.7654545454545" y="1480.0" name="top"/>
  <outline>
    <contour>
      <point x="530.2290909090909" y="-11.452525252525254" type="curve" smooth="yes"/>
      <point x="986.4191919191919" y="-11.452525252525254"/>
      <point x="1162.5030303030303" y="131.03353535353534"/>
      <point x="1162.5030303030303" y="399.21232323232323" type="curve" smooth="yes"/>
      <point x="1162.5030303030303" y="602.3743434343435"/>
      <point x="1052.0337373737375" y="743.4189898989899"/>
      <point x="809.9779797979799" y="770.5642424242425" type="curve"/>
      <point x="807.4137373737374" y="756.0" type="line"/>
      <point x="1033.3242424242424" y="789.1452525252525"/>
      <point x="1119.938787878788" y="932.0949494949494"/>
      <point x="1119.938787878788" y="1105.0614141414142" type="curve" smooth="yes"/>
      <point x="1119.938787878788" y="1367.5474747474748"/>
      <point x="955.4024242424243" y="1494.871515151515"/>
      <point x="567.4581818181819" y="1494.871515151515" type="curve" smooth="yes"/>
      <point x="415.9888888888889" y="1494.871515151515"/>
      <point x="296.1731313131313" y="1480.9832323232324"/>
      <point x="178.23454545454544" y="1457.240202020202" type="curve"/>
      <point x="178.23454545454544" y="10.435757575757577" type="line"/>
      <point x="303.1060606060606" y="-5.145252525252525"/>
      <point x="412.77656565656565" y="-11.452525252525254"/>
    </contour>
    <contour>
      <point x="549.6593939393939" y="89.98909090909093" type="curve" smooth="yes"/>
      <point x="456.5030303030303" y="89.98909090909093"/>
      <point x="378.31313131313135" y="93.55333333333336"/>
      <point x="297.7991919191919" y="104.53656565656567" type="curve"/>
      <point x="297.7991919191919" y="1371.5919191919193" type="line"/>
      <point x="376.0058585858586" y="1385.720404040404"/>
      <point x="458.0672727272728" y="1393.429898989899"/>
      <point x="575.3185858585858" y="1393.429898989899" type="curve" smooth="yes"/>
      <point x="883.3183838383839" y="1393.429898989899"/>
      <point x="1002.1339393939394" y="1309.4020202020201"/>
      <point x="1002.1339393939394" y="1101.5753535353535" type="curve" smooth="yes"/>
      <point x="1002.1339393939394" y="907.7151515151515"/>
      <point x="891.3016161616162" y="811.4303030303031"/>
      <point x="607.38" y="811.4303030303031" type="curve" smooth="yes"/>
      <point x="278.0226262626263" y="811.4303030303031" type="line"/>
      <point x="278.0226262626263" y="708.6814141414142" type="line"/>
      <point x="635.2515151515152" y="708.6814141414142" type="line" smooth="yes"/>
      <point x="916.7709090909091" y="708.6814141414142"/>
      <point x="1044.860202020202" y="610.5418181818181"/>
      <point x="1044.860202020202" y="401.97212121212124" type="curve" smooth="yes"/>
      <point x="1044.860202020202" y="191.98343434343437"/>
      <point x="922.4636363636364" y="89.98909090909093"/>
    </contour>
  </outline>
</glyph>
<glyph name="C" format="2">
  <advance width="1129.17898989899"/>
  <unicode hex="0043"/>
  <anchor x="702.7989898989899" y="0.0" name="bottom"/>
  <anchor x="689.9777777777778" y="1520.0" name="top"/>
  <outline>
    <contour>
      <point x="755.1454545454545" y="-18.29050505050505" type="curve" smooth="yes"/>
      <point x="879.6929292929293" y="-18.29050505050505"/>
      <point x="991.0169696969697" y="2.128484848484848"/>
      <point x="1090.709696969697" y="37.6759595959596" type="curve"/>
      <point x="1090.709696969697" y="146.9276767676768" type="line"/>
      <point x="970.2125252525253" y="105.83272727272731"/>
      <point x="872.7767676767677" y="89.68747474747478"/>
      <point x="761.5365656565657" y="89.68747474747478" type="curve" smooth="yes"/>
      <point x="439.31313131313135" y="89.68747474747478"/>
      <point x="238.36909090909094" y="244.4416161616162"/>
      <point x="238.36909090909094" y="741.7094949494949" type="curve" smooth="yes"/>
      <point x="238.36909090909094" y="1220.3014141414142"/>
      <point x="431.3466666666667" y="1390.3125252525251"/>
      <point x="772.3913131313132" y="1390.3125252525251" type="curve" smooth="yes"/>
      <point x="880.9387878787879" y="1390.3125252525251"/>
      <point x="984.0505050505051" y="1376.7482828282828"/>
      <point x="1090.709696969697" y="1344.3628282828283" type="curve"/>
      <point x="1090.709696969697" y="1453.6145454545454" type="line"/>
      <point x="987.4359595959596" y="1483.1620202020201"/>
      <point x="884.709696969697" y="1498.290505050505"/>
      <point x="771.1454545454545" y="1498.290505050505" type="curve" smooth="yes"/>
      <point x="360.03353535353534" y="1498.290505050505"/>
      <point x="110.88262626262626" y="1279.2848484848485"/>
      <point x="110.88262626262626" y="737.7094949494949" type="curve" smooth="yes"/>
      <point x="110.88262626262626" y="177.26262626262627"/>
      <point x="367.2737373737374" y="-18.29050505050505"/>
    </contour>
  </outline>
</glyph>
<glyph name="D" format="2">
  <advance width="1375.3913131313132"/>
  <unicode hex="0044"/>
  <anchor x="626.2515151515152" y="0.0" name="bottom"/>
  <anchor x="685.2347474747475" y="740.0" name="center"/>
  <anchor x="178.23454545454544" y="762.0" name="stroke"/>
  <anchor x="623.3464646464647" y="1520.0" name="top"/>
  <outline>
    <contour>
      <point x="514.3911111111111" y="-11.016767676767678" type="curve" smooth="yes"/>
      <point x="1009.3577777777778" y="-11.016767676767678"/>
      <point x="1264.508686868687" y="219.53070707070708"/>
      <point x="1264.508686868687" y="740.0" type="curve" smooth="yes"/>
      <point x="1264.508686868687" y="1251.5977777777778"/>
      <point x="1019.3745454545455" y="1494.4357575757576"/>
      <point x="544.1062626262626" y="1494.4357575757576" type="curve" smooth="yes"/>
      <point x="425.93858585858584" y="1494.4357575757576"/>
      <point x="293.8993939393939" y="1480.9832323232324"/>
      <point x="178.23454545454544" y="1458.0949494949496" type="curve"/>
      <point x="178.23454545454544" y="9.70949494949495" type="line"/>
      <point x="308.83232323232323" y="-5.581010101010102"/>
      <point x="405.61454545454546" y="-11.016767676767678"/>
    </contour>
    <contour>
      <point x="533.3856565656565" y="95.94444444444447" type="curve" smooth="yes"/>
      <point x="441.2460606060606" y="95.94444444444447"/>
      <point x="371.03939393939396" y="100.21818181818185"/>
      <point x="299.39696969696973" y="110.05616161616165" type="curve"/>
      <point x="299.39696969696973" y="1367.2175757575758" type="line"/>
      <point x="384.6818181818182" y="1380.200808080808"/>
      <point x="467.74323232323235" y="1387.7650505050506"/>
      <point x="544.9163636363636" y="1387.7650505050506" type="curve" smooth="yes"/>
      <point x="943.7876767676768" y="1387.7650505050506"/>
      <point x="1138.4747474747473" y="1191.0165656565657"/>
      <point x="1138.4747474747473" y="740.2905050505051" type="curve" smooth="yes"/>
      <point x="1138.4747474747473" y="284.8549494949495"/>
      <point x="937.4022222222222" y="95.94444444444447"/>
    </contour>
  </outline>
</glyph>
<glyph name="E" format="2">
  <advance width="1143.76"/>
  <unicode hex="0045"/>
  <anchor x="644.1341414141414" y="0.0" name="bottom"/>
  <anchor x="991.1622222222222" y="0.0" name="ogonek"/>
  <anchor x="642.4246464646465" y="1520.0" name="top"/>
  <anchor x="40.56424242424242" y="1480.0" name="topleft"/>
  <outline>
    <contour>
      <point x="178.23454545454544" y="0.0" type="line"/>
      <point x="1072.6147474747474" y="0.0" type="line"/>
      <point x="1072.6147474747474" y="106.089696969697" type="line"/>
      <point x="298.5254545454546" y="106.089696969697" type="line"/>
      <point x="298.5254545454546" y="1373.910303030303" type="line"/>
      <point x="1062.6147474747474" y="1373.910303030303" type="line"/>
      <point x="1062.6147474747474" y="1480.0" type="line"/>
      <point x="178.23454545454544" y="1480.0" type="line"/>
    </contour>
    <contour>
      <point x="257.72080808080807" y="707.0836363636364" type="line"/>
      <point x="966.1622222222222" y="707.0836363636364" type="line"/>
      <point x="966.1622222222222" y="813.1733333333334" type="line"/>
      <point x="257.72080808080807" y="813.1733333333334" type="line"/>
    </contour>
  </outline>
</glyph>
<glyph name="F" format="2">
  <advance width="1102.76"/>
  <unicode hex="0046"/>
  <outline>
    <contour>
      <point x="178.23454545454544" y="0.0" type="line"/>
      <point x="299.39696969696973" y="0.0" type="line"/>
      <point x="299.39696969696973" y="1372.8935353535353" type="line"/>
      <point x="1054.0672727272727" y="1372.8935353535353" type="line"/>
      <point x="1054.0672727272727" y="1480.0" type="line"/>
      <point x="178.23454545454544" y="1480.0" type="line"/>
    </contour>
    <contour>
      <point x="268.5923232323232" y="699.530505050505" type="line"/>
      <point x="957.6147474747474" y="699.530505050505" type="line"/>
      <point x="957.6147474747474" y="806.6369696969697" type="line"/>
      <point x="268.5923232323232" y="806.6369696969697" type="line"/>
    </contour>
  </outline>
</glyph>
<glyph name="G" format="2">
  <advance width="1326.8549494949496"/>
  <unicode hex="0047"/>
  <anchor x="728.7543434343435" y="0.0" name="bottom"/>
  <anchor x="728.7543434343435" y="1520.0" name="top"/>
  <outline>
    <contour>
      <point x="848.2068686868687" y="-11.452525252525254" type="curve" smooth="yes"/>
      <point x="953.2739393939394" y="-11.452525252525254"/>
      <point x="1044.8270707070708" y="-4.29050505050505"/>
      <point x="1169.6985858585858" y="16.70949494949495" type="curve"/>
      <point x="1169.6985858585858" y="720.0" type="line"/>
      <point x="1053.1842424242425" y="720.0" type="line"/>
      <point x="1053.1842424242425" y="65.91636363636366" type="line"/>
      <point x="1099.2961616161615" y="118.78242424242427" type="line"/>
      <point x="1024.329696969697" y="103.79919191919194"/>
      <point x="941.329696969697" y="96.089696969697"/>
      <point x="842.9777777777778" y="96.089696969697" type="curve" smooth="yes"/>
      <point x="442.31313131313135" y="96.089696969697"/>
      <point x="238.93333333333337" y="278.5030303030303"/>
      <point x="238.07858585858588" y="738.4022222222222" type="curve" smooth="yes"/>
      <point x="237.22383838383843" y="1221.010909090909"/>
      <point x="461.6985858585859" y="1390.1672727272728"/>
      <point x="812.3131313131313" y="1390.3125252525251" type="curve" smooth="yes"/>
      <point x="912.7488888888889" y="1390.3125252525251"/>
      <point x="1014.0226262626263" y="1379.1672727272728"/>
      <point x="1137.938787878788" y="1343.9270707070707" type="curve"/>
      <point x="1137.938787878788" y="1453.178787878788" type="line"/>
      <point x="1026.9555555555555" y="1483.0167676767676"/>
      <point x="919.0840404040405" y="1498.290505050505"/>
      <point x="807.2125252525253" y="1498.290505050505" type="curve" smooth="yes"/>
      <point x="388.11171717171715" y="1498.290505050505"/>
      <point x="110.02787878787879" y="1281.8490909090908"/>
      <point x="110.88262626262626" y="737.7094949494949" type="curve" smooth="yes"/>
      <point x="111.73737373737373" y="212.05030303030304"/>
      <point x="365.14525252525254" y="-11.452525252525254"/>
    </contour>
  </outline>
</glyph>
<glyph name="H" format="2">
  <advance width="1424.4359595959595"/>
  <unicode hex="0048"/>
  <anchor x="712.3632323232323" y="0.0" name="bottom"/>
  <anchor x="712.3632323232323" y="1150.3129292929293" name="center"/>
  <anchor x="712.3632323232323" y="1520.0" name="top"/>
  <anchor x="40.273737373737376" y="1480.0" name="topleft"/>
  <outline>
    <contour>
      <point x="178.23454545454544" y="0.0" type="line"/>
      <point x="299.39696969696973" y="0.0" type="line"/>
      <point x="299.39696969696973" y="704.3238383838384" type="line"/>
      <point x="1125.03898989899" y="704.3238383838384" type="line"/>
      <point x="1125.03898989899" y="0.0" type="line"/>
      <point x="1246.2014141414143" y="0.0" type="line"/>
      <point x="1246.2014141414143" y="1480.0" type="line"/>
      <point x="1125.03898989899" y="1480.0" type="line"/>
      <point x="1125.03898989899" y="815.9331313131313" type="line"/>
      <point x="299.39696969696973" y="815.9331313131313" type="line"/>
      <point x="299.39696969696973" y="1480.0" type="line"/>
      <point x="178.23454545454544" y="1480.0" type="line"/>
    </contour>
  </outline>
</glyph>
<glyph name="I" format="2">
  <advance width="477.63151515151515"/>
  <unicode hex="0049"/>
  <anchor x="238.67050505050506" y="0.0" name="bottom"/>
  <anchor x="299.39696969696973" y="0.0" name="ogonek"/>
  <anchor x="238.81575757575757" y="1520.0" name="top"/>
  <outline>
    <contour>
      <point x="178.23454545454544" y="0.0" type="line"/>
      <point x="299.39696969696973" y="0.0" type="line"/>
      <point x="299.39696969696973" y="1480.0" type="line"/>
      <point x="178.23454545454544" y="1480.0" type="line"/>
    </contour>
  </outline>
</glyph>
<glyph name="J" format="2">
  <advance width="477.63151515151515"/>
  <unicode hex="004A"/>
  <anchor x="343.8438383838384" y="0.0" name="bottom"/>
  <anchor x="238.96101010101012" y="1520.0" name="top"/>
  <outline>
    <contour>
      <point x="76.32424242424244" y="-342.03353535353534" type="line"/>
      <point x="232.79919191919194" y="-141.12848484848485"/>
      <point x="289.9947474747475" y="28.972121212121216"/>
      <point x="299.39696969696973" y="262.7319191919192" type="curve"/>
      <point x="299.39696969696973" y="1480.0" type="line"/>
      <point x="178.5250505050505" y="1480.0" type="line"/>
      <point x="178.5250505050505" y="288.61454545454546" type="line" smooth="yes"/>
      <point x="178.5250505050505" y="53.55313131313132"/>
      <point x="124.15636363636364" y="-108.34626262626261"/>
      <point x="-5.357575757575761" y="-285.6814141414141" type="curve"/>
    </contour>
  </outline>
</glyph>
<glyph name="K" format="2">
  <advance width="1213.3577777777778"/>
  <unicode hex="004B"/>
  <anchor x="632.7040404040404" y="0.0" name="bottom"/>
  <anchor x="631.3967676767677" y="1480.0" name="top"/>
  <outline>
    <contour>
      <point x="1090.2791919191918" y="0.0" type="line"/>
      <point x="1230.7656565656566" y="0.0" type="line"/>
      <point x="616.4864646464647" y="779.810101010101" type="line"/>
      <point x="615.3244444444445" y="743.3183838383839" type="line"/>
      <point x="1188.620404040404" y="1480.0" type="line"/>
      <point x="1052.0222222222221" y="1480.0" type="line"/>
      <point x="491.63131313131316" y="757.1284848484848" type="line"/>
    </contour>
    <contour>
      <point x="178.23454545454544" y="0.0" type="line"/>
      <point x="299.39696969696973" y="0.0" type="line"/>
      <point x="299.39696969696973" y="1480.0" type="line"/>
      <point x="178.23454545454544" y="1480.0" type="line"/>
    </contour>
    <contour>
      <point x="277.29636363636365" y="704.3238383838384" type="line"/>
      <point x="553.0616161616161" y="704.3238383838384" type="line"/>
      <point x="553.0616161616161" y="815.0783838383838" type="line"/>
      <point x="277.29636363636365" y="815.0783838383838" type="line"/>
    </contour>
  </outline>
</glyph>
<glyph name="L" format="2">
  <advance width="1051.9834343434343"/>
  <unicode hex="004C"/>
  <anchor x="609.8268686868687" y="0.0" name="bottom"/>
  <anchor x="684.8828282828283" y="1616.0" name="caronalt"/>
  <anchor x="754.5979797979799" y="794.0448484848484" name="periodcentered"/>
  <anchor x="239.3967676767677" y="785.620202020202" name="slash"/>
  <anchor x="239.3967676767677" y="1520.0" name="top"/>
  <outline>
    <contour>
      <point x="178.23454545454544" y="0.0" type="line"/>
      <point x="1039.709696969697" y="0.0" type="line"/>
      <point x="1039.709696969697" y="108.26848484848489" type="line"/>
      <point x="299.39696969696973" y="108.26848484848489" type="line"/>
      <point x="299.39696969696973" y="1480.0" type="line"/>
      <point x="178.23454545454544" y="1480.0" type="line"/>
    </contour>
  </outline>
</glyph>
<glyph name="M" format="2">
  <advance width="1730.3466666666668"/>
  <unicode hex="004D"/>
  <anchor x="869.3856565656565" y="0.0" name="bottom"/>
  <anchor x="869.3856565656565" y="1480.0" name="top"/>
  <outline>
    <contour>
      <point x="182.23454545454544" y="0.0" type="line"/>
      <point x="297.329898989899" y="0.0" type="line"/>
      <point x="297.329898989899" y="1375.2286868686867" type="line"/>
      <point x="251.05050505050508" y="1375.2286868686867" type="line"/>
      <point x="807.4189898989899" y="202.9050505050505" type="line"/>
      <point x="922.9276767676768" y="202.9050505050505" type="line"/>
      <point x="1474.8268686868687" y="1375.2286868686867" type="line"/>
      <point x="1433.0167676767676" y="1375.2286868686867" type="line"/>
      <point x="1433.0167676767676" y="0.0" type="line"/>
      <point x="1548.1121212121213" y="0.0" type="line"/>
      <point x="1548.1121212121213" y="1480.0" type="line"/>
      <point x="1406.8769696969696" y="1480.0" type="line"/>
      <point x="851.1733333333334" y="287.77696969696973" type="line"/>
      <point x="884.6258585858586" y="287.77696969696973" type="line"/>
      <point x="323.469696969697" y="1480.0" type="line"/>
      <point x="182.23454545454544" y="1480.0" type="line"/>
    </contour>
  </outline>
</glyph>
<glyph name="N" format="2">
  <advance width="1450.9666666666667"/>
  <unicode hex="004E"/>
  <anchor x="725.9107070707071" y="0.0" name="bottom"/>
  <anchor x="725.9107070707071" y="1520.0" name="top"/>
  <outline>
    <contour>
      <point x="178.23454545454544" y="0.0" type="line"/>
      <point x="293.76565656565657" y="0.0" type="line"/>
      <point x="293.76565656565657" y="1349.1167676767677" type="line"/>
      <point x="257.6818181818182" y="1349.1167676767677" type="line"/>
      <point x="1145.7317171717173" y="0.0" type="line"/>
      <point x="1272.7321212121212" y="0.0" type="line"/>
      <point x="1272.7321212121212" y="1480.0" type="line"/>
      <point x="1157.20101010101" y="1480.0" type="line"/>
      <point x="1157.20101010101" y="130.8832323232324" type="line"/>
      <point x="1193.2848484848485" y="130.8832323232324" type="line"/>
      <point x="305.23494949494955" y="1480.0" type="line"/>
      <point x="178.23454545454544" y="1480.0" type="line"/>
    </contour>
  </outline>
</glyph>
<glyph name="O" format="2">
  <advance width="1408.089696969697"/>
  <unicode hex="004F"/>
  <anchor x="704.0448484848484" y="0.0" name="bottom"/>
  <anchor x="704.0448484848484" y="740.0" name="center"/>
  <anchor x="866.2236363636364" y="0.0" name="ogonek"/>
  <anchor x="704.0448484848484" y="1520.0" name="top"/>
  <anchor x="45.01676767676768" y="1480.0" name="topleft"/>
  <anchor x="870.0169696969697" y="1480.0" name="topright"/>
  <outline>
    <contour>
      <point x="704.0448484848484" y="-18.29050505050505" type="curve" smooth="yes"/>
      <point x="1057.620404040404" y="-18.29050505050505"/>
      <point x="1297.2070707070707" y="201.39111111111112"/>
      <point x="1297.2070707070707" y="740.0" type="curve" smooth="yes"/>
      <point x="1297.2070707070707" y="1278.608888888889"/>
      <point x="1060.329898989899" y="1498.290505050505"/>
      <point x="704.0448484848484" y="1498.290505050505" type="curve" smooth="yes"/>
      <point x="350.3240404040404" y="1498.290505050505"/>
      <point x="110.88262626262626" y="1278.899393939394"/>
      <point x="110.88262626262626" y="740.0" type="curve" smooth="yes"/>
      <point x="110.88262626262626" y="201.10060606060605"/>
      <point x="347.9050505050505" y="-18.29050505050505"/>
    </contour>
    <contour>
      <point x="704.0448484848484" y="89.23494949494952" type="curve" smooth="yes"/>
      <point x="423.6985858585859" y="89.23494949494952"/>
      <point x="236.9165656565657" y="256.39131313131315"/>
      <point x="236.9165656565657" y="744.5810101010101" type="curve" smooth="yes"/>
      <point x="236.9165656565657" y="1223.6086868686868"/>
      <point x="424.13434343434346" y="1390.7650505050506"/>
      <point x="704.0448484848484" y="1390.7650505050506" type="curve" smooth="yes"/>
      <point x="983.9553535353535" y="1390.7650505050506"/>
      <point x="1171.1731313131313" y="1223.1729292929292"/>
      <point x="1171.1731313131313" y="735.4189898989899" type="curve" smooth="yes"/>
      <point x="1171.1731313131313" y="256.82707070707073"/>
      <point x="984.3911111111111" y="89.23494949494952"/>
    </contour>
  </outline>
</glyph>
<glyph name="P" format="2">
  <advance width="1211.4527272727273"/>
  <unicode hex="0050"/>
  <outline>
    <contour>
      <point x="178.23454545454544" y="0.0" type="line"/>
      <point x="299.39696969696973" y="0.0" type="line"/>
      <point x="299.39696969696973" y="509.24565656565653" type="line"/>
      <point x="372.1511111111111" y="502.4076767676768"/>
      <point x="433.3577777777778" y="499.55292929292926"/>
      <point x="506.6929292929293" y="499.55292929292926" type="curve" smooth="yes"/>
      <point x="929.4191919191919" y="499.55292929292926"/>
      <point x="1117.8270707070708" y="674.7317171717172"/>
      <point x="1117.8270707070708" y="997.9943434343435" type="curve" smooth="yes"/>
      <point x="1117.8270707070708" y="1341.1117171717171"/>
      <point x="918.7264646464647" y="1494.871515151515"/>
      <point x="540.6034343434344" y="1494.871515151515" type="curve" smooth="yes"/>
      <point x="409.88828282828285" y="1494.871515151515"/>
      <point x="296.6088888888889" y="1481.709494949495"/>
      <point x="178.23454545454544" y="1459.4022222222222" type="curve"/>
    </contour>
    <contour>
      <point x="509.83818181818185" y="602.4470707070707" type="curve" smooth="yes"/>
      <point x="432.5030303030303" y="602.4470707070707"/>
      <point x="367.31313131313135" y="606.1565656565657"/>
      <point x="299.39696969696973" y="615.4303030303031" type="curve"/>
      <point x="299.39696969696973" y="1372.010909090909" type="line"/>
      <point x="374.9890909090909" y="1384.848888888889"/>
      <point x="453.4191919191919" y="1391.9773737373737"/>
      <point x="546.7040404040404" y="1391.9773737373737" type="curve" smooth="yes"/>
      <point x="848.3351515151516" y="1391.9773737373737"/>
      <point x="995.4244444444445" y="1272.4020202020201"/>
      <point x="995.4244444444445" y="995.1395959595959" type="curve" smooth="yes"/>
      <point x="995.4244444444445" y="730.8268686868687"/>
      <point x="851.7541414141414" y="602.4470707070707"/>
    </contour>
  </outline>
</glyph>
<glyph name="Q" format="2">
  <advance width="1408.089696969697"/>
  <unicode hex="0051"/>
  <outline>
    <contour>
      <point x="1252.799191919192" y="-208.17898989898993" type="curve"/>
      <point x="1271.8048484848484" y="-103.25131313131313" type="line"/>
      <point x="1054.1735353535355" y="-84.21777777777777"/>
      <point x="808.9501010101011" y="-44.47474747474747"/>
      <point x="630.7321212121212" y="33.28505050505052" type="curve"/>
      <point x="613.9442424242425" y="-2.3351515151515114" type="line"/>
      <point x="1062.4751515151515" y="-56.40222222222222"/>
      <point x="1297.2070707070707" y="206.26262626262627"/>
      <point x="1297.2070707070707" y="740.0" type="curve" smooth="yes"/>
      <point x="1297.2070707070707" y="1283.7373737373737"/>
      <point x="1057.7656565656566" y="1498.290505050505"/>
      <point x="704.0448484848484" y="1498.290505050505" type="curve" smooth="yes"/>
      <point x="350.3240404040404" y="1498.290505050505"/>
      <point x="110.88262626262626" y="1278.899393939394"/>
      <point x="110.88262626262626" y="738.5474747474748" type="curve" smooth="yes"/>
      <point x="110.88262626262626" y="138.18444444444447"/>
      <point x="370.88828282828285" y="-108.23474747474748"/>
    </contour>
    <contour>
      <point x="704.0448484848484" y="89.23494949494952" type="curve" smooth="yes"/>
      <point x="423.40808080808085" y="89.23494949494952"/>
      <point x="236.9165656565657" y="256.1008080808081"/>
      <point x="236.9165656565657" y="744.5810101010101" type="curve" smooth="yes"/>
      <point x="236.9165656565657" y="1223.6086868686868"/>
      <point x="424.13434343434346" y="1390.7650505050506"/>
      <point x="704.0448484848484" y="1390.7650505050506" type="curve" smooth="yes"/>
      <point x="983.9553535353535" y="1390.7650505050506"/>
      <point x="1171.1731313131313" y="1223.1729292929292"/>
      <point x="1171.1731313131313" y="735.4189898989899" type="curve" smooth="yes"/>
      <point x="1171.1731313131313" y="256.82707070707073"/>
      <point x="984.3911111111111" y="89.23494949494952"/>
    </contour>
  </outline>
</glyph>
<glyph name="R" format="2">
  <advance width="1289.0951515151514"/>
  <unicode hex="0052"/>
  <anchor x="673.0727272727273" y="0.0" name="bottom"/>
  <anchor x="617.5420202020202" y="1520.0" name="top"/>
  <outline>
    <contour>
      <point x="178.23454545454544" y="0.0" type="line"/>
      <point x="298.23494949494955" y="0.0" type="line"/>
      <point x="298.23494949494955" y="637.6143434343434" type="line"/>
      <point x="367.5868686868687" y="632.3406060606061"/>
      <point x="426.9555555555556" y="628.6311111111111"/>
      <point x="515.4024242424242" y="628.6311111111111" type="curve" smooth="yes"/>
      <point x="914.0783838383838" y="628.6311111111111"/>
      <point x="1119.6482828282828" y="775.8434343434343"/>
      <point x="1117.938787878788" y="1066.5250505050506" type="curve" smooth="yes"/>
      <point x="1117.938787878788" y="1360.659191919192"/>
      <point x="936.0783838383838" y="1494.871515151515"/>
      <point x="555.4581818181819" y="1494.871515151515" type="curve" smooth="yes"/>
      <point x="404.26262626262627" y="1494.871515151515"/>
      <point x="285.9161616161616" y="1478.4189898989898"/>
      <point x="178.23454545454544" y="1458.0949494949496" type="curve"/>
    </contour>
    <contour>
      <point x="1091.4858585858585" y="0.0" type="line"/>
      <point x="1230.5533333333333" y="0.0" type="line"/>
      <point x="693.4975757575758" y="699.0781818181819" type="line"/>
      <point x="557.5921212121212" y="699.0781818181819" type="line"/>
    </contour>
    <contour>
      <point x="515.1454545454545" y="730.2347474747475" type="curve" smooth="yes"/>
      <point x="427.9723232323233" y="730.2347474747475"/>
      <point x="379.6985858585859" y="733.2347474747475"/>
      <point x="298.23494949494955" y="739.9442424242425" type="curve"/>
      <point x="298.23494949494955" y="1370.7371717171718" type="line"/>
      <point x="378.9723232323232" y="1384.5751515151514"/>
      <point x="450.6147474747475" y="1392.9941414141415"/>
      <point x="559.3018181818181" y="1392.9941414141415" type="curve" smooth="yes"/>
      <point x="870.5585858585858" y="1392.9941414141415"/>
      <point x="1000.9886868686868" y="1298.0947474747475"/>
      <point x="1000.9886868686868" y="1063.960808080808" type="curve" smooth="yes"/>
      <point x="1000.9886868686868" y="838.2123232323232"/>
      <point x="857.7373737373737" y="730.2347474747475"/>
    </contour>
  </outline>
</glyph>
<glyph name="S" format="2">
  <advance width="1039.6315151515153"/>
  <unicode hex="0053"/>
  <anchor x="527.6872727272728" y="0.0" name="bottom"/>
  <anchor x="527.6872727272728" y="1520.0" name="top"/>
  <outline>
    <contour>
      <point x="451.50848484848484" y="-18.29050505050505" type="curve" smooth="yes"/>
      <point x="776.4359595959596" y="-18.29050505050505"/>
      <point x="960.8773737373738" y="129.2458585858586"/>
      <point x="960.8773737373738" y="391.76545454545453" type="curve" smooth="yes"/>
      <point x="960.8773737373738" y="602.9777777777778"/>
      <point x="838.4080808080809" y="724.8828282828283"/>
      <point x="568.0505050505051" y="793.4638383838384" type="curve" smooth="yes"/>
      <point x="495.8828282828283" y="812.0783838383838" type="line" smooth="yes"/>
      <point x="281.45838383838384" y="868.5755555555555"/>
      <point x="202.75454545454548" y="945.7151515151515"/>
      <point x="202.75454545454548" y="1105.6870707070707" type="curve" smooth="yes"/>
      <point x="202.75454545454548" y="1287.9159595959595"/>
      <point x="324.4248484848485" y="1391.7650505050506"/>
      <point x="584.3074747474748" y="1391.7650505050506" type="curve" smooth="yes"/>
      <point x="690.9220202020202" y="1391.7650505050506"/>
      <point x="796.279595959596" y="1377.1840404040404"/>
      <point x="899.1008080808081" y="1345.0555555555554" type="curve"/>
      <point x="899.1008080808081" y="1453.5810101010102" type="line"/>
      <point x="807.519797979798" y="1482.8547474747475"/>
      <point x="692.1957575757576" y="1498.290505050505"/>
      <point x="583.6593939393939" y="1498.290505050505" type="curve" smooth="yes"/>
      <point x="249.46929292929292" y="1498.290505050505"/>
      <point x="78.75414141414142" y="1346.0781818181817"/>
      <point x="78.75414141414142" y="1098.9272727272728" type="curve" smooth="yes"/>
      <point x="78.75414141414142" y="888.5696969696969"/>
      <point x="201.51393939393938" y="765.6646464646465"/>
      <point x="451.2737373737374" y="701.5193939393939" type="curve" smooth="yes"/>
      <point x="523.4414141414142" y="682.9048484848485" type="line" smooth="yes"/>
      <point x="748.0446464646465" y="623.9719191919191"/>
      <point x="836.8769696969697" y="549.8155555555555"/>
      <point x="836.8769696969697" y="384.8436363636364" type="curve" smooth="yes"/>
      <point x="836.8769696969697" y="190.21252525252527"/>
      <point x="711.0949494949494" y="88.23494949494952"/>
      <point x="454.4917171717172" y="88.23494949494952" type="curve" smooth="yes"/>
      <point x="346.26262626262627" y="88.23494949494952"/>
      <point x="222.96646464646466" y="106.68747474747478"/>
      <point x="98.82121212121211" y="148.54222222222225" type="curve"/>
      <point x="98.82121212121211" y="40.01676767676768" type="line"/>
      <point x="211.85474747474746" y="0.7262626262626268"/>
      <point x="340.0838383838384" y="-18.29050505050505"/>
    </contour>
  </outline>
</glyph>
<glyph name="T" format="2">
  <advance width="1147.8773737373738"/>
  <unicode hex="0054"/>
  <anchor x="574.0113131313132" y="0.0" name="bottom"/>
  <anchor x="574.0113131313132" y="785.4747474747475" name="center"/>
  <anchor x="574.0113131313132" y="1520.0" name="top"/>
  <outline>
    <contour>
      <point x="513.2848484848485" y="0.0" type="line"/>
      <point x="634.5925252525253" y="0.0" type="line"/>
      <point x="634.5925252525253" y="1371.7315151515152" type="line"/>
      <point x="1134.0226262626263" y="1371.7315151515152" type="line"/>
      <point x="1134.0226262626263" y="1480.0" type="line"/>
      <point x="13.854747474747475" y="1480.0" type="line"/>
      <point x="13.854747474747475" y="1371.7315151515152" type="line"/>
      <point x="513.2848484848485" y="1371.7315151515152" type="line"/>
    </contour>
  </outline>
</glyph>
<glyph name="U" format="2">
  <advance width="1397.419191919192"/>
  <unicode hex="0055"/>
  <anchor x="700.2179797979798" y="0.0" name="bottom"/>
  <anchor x="852.6482828282828" y="1.7094949494949492" name="ogonek"/>
  <anchor x="700.2179797979798" y="1520.0" name="top"/>
  <anchor x="1113.5418181818181" y="1480.0" name="topright"/>
  <outline>
    <contour>
      <point x="700.2179797979798" y="-18.29050505050505" type="curve" smooth="yes"/>
      <point x="1063.7767676767676" y="-18.29050505050505"/>
      <point x="1226.8941414141414" y="157.55313131313133"/>
      <point x="1226.8941414141414" y="546.4303030303031" type="curve" smooth="yes"/>
      <point x="1226.8941414141414" y="1480.0" type="line"/>
      <point x="1108.6032323232323" y="1480.0" type="line"/>
      <point x="1108.6032323232323" y="531.9274747474748" type="line" smooth="yes"/>
      <point x="1108.6032323232323" y="225.37454545454548"/>
      <point x="983.5753535353535" y="89.2517171717172"/>
      <point x="700.2179797979798" y="89.2517171717172" type="curve" smooth="yes"/>
      <point x="416.8606060606061" y="89.2517171717172"/>
      <point x="291.68747474747477" y="225.37454545454548"/>
      <point x="291.68747474747477" y="531.9274747474748" type="curve" smooth="yes"/>
      <point x="291.68747474747477" y="1480.0" type="line"/>
      <point x="170.5250505050505" y="1480.0" type="line"/>
      <point x="170.5250505050505" y="546.4303030303031" type="line" smooth="yes"/>
      <point x="170.5250505050505" y="157.55313131313133"/>
      <point x="335.6424242424242" y="-18.29050505050505"/>
    </contour>
  </outline>
</glyph>
<glyph name="V" format="2">
  <advance width="1284.3466666666668"/>
  <unicode hex="0056"/>
  <outline>
    <contour>
      <point x="555.2288888888888" y="0.0" type="line"/>
      <point x="729.1177777777779" y="0.0" type="line"/>
      <point x="1270.6874747474749" y="1480.0" type="line"/>
      <point x="1148.8490909090908" y="1480.0" type="line"/>
      <point x="631.8157575757576" y="59.31858585858588" type="line"/>
      <point x="659.1454545454545" y="59.31858585858588" type="line"/>
      <point x="143.41939393939398" y="1480.0" type="line"/>
      <point x="13.659191919191917" y="1480.0" type="line"/>
    </contour>
  </outline>
</glyph>
<glyph name="W" format="2">
  <advance width="2074.3076767676766"/>
  <unicode hex="0057"/>
  <anchor x="1038.4359595959595" y="0.0" name="bottom"/>
  <anchor x="1038.4359595959595" y="1520.0" name="top"/>
  <outline>
    <contour>
      <point x="485.2959595959596" y="0.0" type="line"/>
      <point x="646.1121212121212" y="0.0" type="line"/>
      <point x="1054.151111111111" y="1400.9159595959595" type="line"/>
      <point x="1022.9163636363637" y="1400.9159595959595" type="line"/>
      <point x="1428.1955555555555" y="0.0" type="line"/>
      <point x="1589.0117171717172" y="0.0" type="line"/>
      <point x="2012.4418181818182" y="1480.0" type="line"/>
      <point x="1894.0559595959596" y="1480.0" type="line"/>
      <point x="1492.5979797979799" y="61.352121212121226" type="line"/>
      <point x="1520.6539393939395" y="61.352121212121226" type="line"/>
      <point x="1113.9222222222222" y="1480.0" type="line"/>
      <point x="965.0167676767677" y="1480.0" type="line"/>
      <point x="556.38" y="61.352121212121226" type="line"/>
      <point x="586.0337373737374" y="61.352121212121226" type="line"/>
      <point x="186.88303030303035" y="1480.0" type="line"/>
      <point x="61.011111111111106" y="1480.0" type="line"/>
    </contour>
  </outline>
</glyph>
<glyph name="X" format="2">
  <advance width="1253.810303030303"/>
  <unicode hex="0058"/>
  <outline>
    <contour>
      <point x="1088.670303030303" y="0.0" type="line"/>
      <point x="1231.1735353535355" y="0.0" type="line"/>
      <point x="698.4808080808082" y="752.6480808080809" type="line"/>
      <point x="626.9777777777778" y="847.3969696969697" type="line"/>
      <point x="178.51434343434346" y="1480.0" type="line"/>
      <point x="36.430101010101005" y="1480.0" type="line"/>
      <point x="553.8937373737374" y="751.0670707070707" type="line"/>
      <point x="625.3967676767677" y="655.8991919191919" type="line"/>
    </contour>
    <contour>
      <point x="21.20101010101009" y="0.0" type="line"/>
      <point x="161.2684848484849" y="0.0" type="line"/>
      <point x="625.3967676767677" y="655.8991919191919" type="line"/>
      <point x="698.4808080808082" y="752.6480808080809" type="line"/>
      <point x="1214.6371717171717" y="1480.0" type="line"/>
      <point x="1076.150707070707" y="1480.0" type="line"/>
      <point x="626.9777777777778" y="847.3969696969697" type="line"/>
      <point x="553.8937373737374" y="751.0670707070707" type="line"/>
    </contour>
  </outline>
</glyph>
<glyph name="Y" format="2">
  <advance width="1147.8773737373738"/>
  <unicode hex="0059"/>
  <anchor x="573.8660606060606" y="0.0" name="bottom"/>
  <anchor x="574.0113131313132" y="1520.0" name="top"/>
  <anchor x="9.497171717171714" y="1480.0" name="topleft"/>
  <outline>
    <contour>
      <point x="513.7206060606061" y="0.0" type="line"/>
      <point x="634.8830303030303" y="0.0" type="line"/>
      <point x="634.8830303030303" y="716.5866666666667" type="line"/>
      <point x="607.0058585858586" y="624.5472727272727" type="line"/>
      <point x="1164.9779797979797" y="1480.0" type="line"/>
      <point x="1035.301616161616" y="1480.0" type="line"/>
      <point x="553.6537373737374" y="741.9331313131313" type="line"/>
      <point x="599.5644444444445" y="741.9331313131313" type="line"/>
      <point x="111.35232323232327" y="1480.0" type="line"/>
      <point x="-25.826868686868693" y="1480.0" type="line"/>
      <point x="541.5977777777778" y="624.5472727272727" type="line"/>
      <point x="513.7206060606061" y="717.4581818181819" type="line"/>
    </contour>
  </outline>
</glyph>
<glyph name="Z" format="2">
  <advance width="1131.17898989899"/>
  <unicode hex="005A"/>
  <anchor x="565.6537373737374" y="0.0" name="bottom"/>
  <anchor x="566.2347474747475" y="1520.0" name="top"/>
  <outline>
    <contour>
      <point x="62.273737373737376" y="0.0" type="line"/>
      <point x="1068.9052525252525" y="0.0" type="line"/>
      <point x="1068.9052525252525" y="106.55898989898992" type="line"/>
      <point x="190.62060606060612" y="106.55898989898992" type="line"/>
      <point x="202.58707070707075" y="74.00585858585862" type="line"/>
      <point x="1057.1957575757576" y="1411.3852525252526" type="line"/>
      <point x="1057.1957575757576" y="1480.0" type="line"/>
      <point x="73.98323232323233" y="1480.0" type="line"/>
      <point x="73.98323232323233" y="1373.44101010101" type="line"/>
      <point x="928.8488888888888" y="1373.44101010101" type="line"/>
      <point x="916.8824242424242" y="1405.9941414141415" type="line"/>
      <point x="62.273737373737376" y="68.61474747474749" type="line"/>
    </contour>
  </outline>
</glyph>
<glyph name="bracketleft" format="2">
  <advance width="644.5923232323232"/>
  <unicode hex="005B"/>
  <outline>
    <contour>
      <point x="198.23454545454544" y="-440.0" type="line"/>
      <point x="681.1062626262626" y="-440.0" type="line"/>
      <point x="681.1062626262626" y="-337.3628282828283" type="line"/>
      <point x="318.089696969697" y="-337.3628282828283" type="line"/>
      <point x="318.089696969697" y="1513.3628282828283" type="line"/>
      <point x="682.5587878787878" y="1513.3628282828283" type="line"/>
      <point x="682.5587878787878" y="1616.0" type="line"/>
      <point x="198.23454545454544" y="1616.0" type="line"/>
    </contour>
  </outline>
</glyph>
<glyph name="backslash" format="2">
  <advance width="576.4864646464647"/>
  <unicode hex="005C"/>
  <outline>
    <contour>
      <point x="455.0838383838384" y="-240.0" type="line"/>
      <point x="576.4864646464647" y="-240.0" type="line"/>
      <point x="121.4026262626263" y="1616.0" type="line"/>
      <point x="0.0" y="1616.0" type="line"/>
    </contour>
  </outline>
</glyph>
<glyph name="bracketright" format="2">
  <advance width="644.5923232323232"/>
  <unicode hex="005D"/>
  <outline>
    <contour>
      <point x="-36.51393939393939" y="-440.0" type="line"/>
      <point x="446.3577777777778" y="-440.0" type="line"/>
      <point x="446.3577777777778" y="1616.0" type="line"/>
      <point x="-37.966464646464644" y="1616.0" type="line"/>
      <point x="-37.966464646464644" y="1513.3628282828283" type="line"/>
      <point x="326.5026262626262" y="1513.3628282828283" type="line"/>
      <point x="326.5026262626262" y="-337.3628282828283" type="line"/>
      <point x="-36.51393939393939" y="-337.3628282828283" type="line"/>
    </contour>
  </outline>
</glyph>
<glyph name="asciicircum" format="2">
  <advance width="1131.9555555555555"/>
  <unicode hex="005E"/>
  <outline>
    <contour>
      <point x="103.83232323232322" y="740.0" type="line"/>
      <point x="230.62040404040408" y="740.0" type="line"/>
      <point x="582.6147474747474" y="1412.9048484848486" type="line"/>
      <point x="549.3408080808081" y="1412.9048484848486" type="line"/>
      <point x="901.3351515151516" y="740.0" type="line"/>
      <point x="1028.1232323232323" y="740.0" type="line"/>
      <point x="633.6204040404041" y="1480.0" type="line"/>
      <point x="496.6256565656566" y="1480.0" type="line"/>
    </contour>
  </outline>
</glyph>
<glyph name="underscore" format="2">
  <advance width="1100.469494949495"/>
  <unicode hex="005F"/>
  <outline>
    <contour>
      <point x="93.54747474747475" y="-102.78242424242427" type="line"/>
      <point x="1006.9220202020202" y="-102.78242424242427" type="line"/>
      <point x="1006.9220202020202" y="-0.14525252525252536" type="line"/>
      <point x="93.54747474747475" y="-0.14525252525252536" type="line"/>
    </contour>
  </outline>
</glyph>
<glyph name="a" format="2">
  <advance width="1007.6147474747474"/>
  <unicode hex="0061"/>
  <anchor x="511.4917171717172" y="0.0" name="bottom"/>
  <anchor x="861.0561616161617" y="0.0" name="ogonek"/>
  <anchor x="499.52525252525254" y="1200.0" name="top"/>
  <outline>
    <contour>
      <point x="421.12848484848485" y="-16.87151515151515" type="curve" smooth="yes"/>
      <point x="550.3686868686868" y="-16.87151515151515"/>
      <point x="668.1731313131313" y="34.22343434343434"/>
      <point x="740.430101010101" y="124.07818181818182" type="curve"/>
      <point x="749.8826262626262" y="124.07818181818182" type="line"/>
      <point x="759.2234343434343" y="0.0" type="line"/>
      <point x="861.0561616161617" y="0.0" type="line"/>
      <point x="861.0561616161617" y="726.2456565656565" type="line" smooth="yes"/>
      <point x="861.0561616161617" y="1008.8044444444445"/>
      <point x="722.6985858585858" y="1099.1955555555555"/>
      <point x="466.7319191919192" y="1099.1955555555555" type="curve" smooth="yes"/>
      <point x="368.68161616161615" y="1099.1955555555555"/>
      <point x="250.88828282828283" y="1082.4860606060606"/>
      <point x="162.80444444444444" y="1050.7765656565657" type="curve"/>
      <point x="162.80444444444444" y="947.1896969696969" type="line"/>
      <point x="265.6424242424242" y="982.7371717171717"/>
      <point x="372.38545454545454" y="996.7371717171717"/>
      <point x="454.96646464646466" y="996.7371717171717" type="curve" smooth="yes"/>
      <point x="643.0781818181819" y="996.7371717171717"/>
      <point x="742.7987878787878" y="940.7707070707071"/>
      <point x="742.7987878787878" y="730.4579797979798" type="curve" smooth="yes"/>
      <point x="742.7987878787878" y="230.45818181818183" type="line"/>
      <point x="660.0781818181819" y="123.2739393939394"/>
      <point x="549.9888888888889" y="81.37454545454548"/>
      <point x="445.0448484848485" y="81.37454545454548" type="curve" smooth="yes"/>
      <point x="296.9890909090909" y="81.37454545454548"/>
      <point x="222.38020202020203" y="151.6929292929293"/>
      <point x="222.38020202020203" y="284.18444444444447" type="curve" smooth="yes"/>
      <point x="222.38020202020203" y="409.5642424242424"/>
      <point x="297.84383838383843" y="478.75414141414143"/>
      <point x="482.5755555555556" y="499.13959595959597" type="curve" smooth="yes"/>
      <point x="793.949696969697" y="533.9272727272727" type="line"/>
      <point x="784.4133333333333" y="622.7319191919192" type="line"/>
      <point x="477.45818181818186" y="587.9442424242425" type="line" smooth="yes"/>
      <point x="212.9329292929293" y="560.3967676767677"/>
      <point x="98.70383838383837" y="458.32969696969695"/>
      <point x="98.70383838383837" y="273.1006060606061" type="curve" smooth="yes"/>
      <point x="98.70383838383837" y="90.35757575757576"/>
      <point x="221.73737373737373" y="-16.87151515151515"/>
    </contour>
  </outline>
</glyph>
<glyph name="b" format="2">
  <advance width="1103.8270707070708"/>
  <unicode hex="0062"/>
  <anchor x="554.8492929292929" y="0.0" name="bottom"/>
  <anchor x="219.3967676767677" y="1616.0" name="top"/>
  <outline>
    <contour>
      <point x="471.8660606060606" y="-18.435757575757577" type="curve" smooth="yes"/>
      <point x="818.1678787878789" y="-18.5810101010101"/>
      <point x="1003.8159595959596" y="167.21232323232323"/>
      <point x="1003.8159595959596" y="561.8882828282829" type="curve" smooth="yes"/>
      <point x="1003.8159595959596" y="959.3854545454545"/>
      <point x="817.4919191919192" y="1099.1955555555555"/>
      <point x="591.6204040404041" y="1099.1955555555555" type="curve" smooth="yes"/>
      <point x="458.23494949494955" y="1099.1955555555555"/>
      <point x="353.4137373737374" y="1044.3743434343435"/>
      <point x="287.14000000000004" y="969.6480808080809" type="curve"/>
      <point x="279.2517171717172" y="969.6480808080809" type="line"/>
      <point x="279.2517171717172" y="1616.0" type="line"/>
      <point x="159.39656565656566" y="1616.0" type="line"/>
      <point x="159.39656565656566" y="27.486060606060608" type="line"/>
      <point x="253.8212121212121" y="-2.564242424242424"/>
      <point x="365.86040404040403" y="-18.435757575757577"/>
    </contour>
    <contour>
      <point x="480.65939393939396" y="83.87737373737376" type="curve" smooth="yes"/>
      <point x="404.7767676767677" y="83.87737373737376"/>
      <point x="330.8941414141415" y="95.57010101010104"/>
      <point x="279.2517171717172" y="110.97232323232325" type="curve"/>
      <point x="279.2517171717172" y="851.5696969696969" type="line"/>
      <point x="347.5868686868687" y="948.0612121212121"/>
      <point x="455.6929292929293" y="992.8153535353536"/>
      <point x="563.3632323232323" y="992.8153535353536" type="curve" smooth="yes"/>
      <point x="743.5977777777778" y="992.8153535353536"/>
      <point x="880.3965656565656" y="895.5137373737374"/>
      <point x="880.3965656565656" y="550.2569696969697" type="curve" smooth="yes"/>
      <point x="880.3965656565656" y="219.82141414141415"/>
      <point x="741.5977777777778" y="83.87737373737376"/>
    </contour>
  </outline>
</glyph>
<glyph name="c" format="2">
  <advance width="854.0337373737374"/>
  <unicode hex="0063"/>
  <anchor x="508.62020202020204" y="0.0" name="bottom"/>
  <anchor x="507.69838383838385" y="1200.0" name="top"/>
  <outline>
    <contour>
      <point x="558.4806060606061" y="-18.5810101010101" type="curve" smooth="yes"/>
      <point x="644.8214141414142" y="-18.5810101010101"/>
      <point x="732.4359595959596" y="-3.5810101010101016"/>
      <point x="818.1286868686868" y="27.256969696969694" type="curve"/>
      <point x="818.1286868686868" y="133.31313131313135" type="line"/>
      <point x="721.2907070707071" y="100.34666666666669"/>
      <point x="644.0505050505051" y="86.92767676767679"/>
      <point x="574.3410101010102" y="86.92767676767679" type="curve" smooth="yes"/>
      <point x="346.0729292929293" y="86.92767676767679"/>
      <point x="225.02828282828284" y="207.06727272727275"/>
      <point x="225.02828282828284" y="544.8715151515152" type="curve" smooth="yes"/>
      <point x="225.02828282828284" y="876.24"/>
      <point x="352.1846464646465" y="993.6868686868687"/>
      <point x="611.7264646464647" y="993.6868686868687" type="curve" smooth="yes"/>
      <point x="677.0169696969697" y="993.6868686868687"/>
      <point x="746.5644444444445" y="984.2678787878788"/>
      <point x="818.1286868686868" y="964.8656565656565" type="curve"/>
      <point x="818.1286868686868" y="1070.9218181818183" type="line"/>
      <point x="750.3856565656565" y="1090.340808080808"/>
      <point x="673.2236363636364" y="1099.1955555555555"/>
      <point x="601.0113131313132" y="1099.1955555555555" type="curve" smooth="yes"/>
      <point x="277.61454545454546" y="1099.1955555555555"/>
      <point x="100.0111111111111" y="936.6927272727273"/>
      <point x="100.0111111111111" y="541.0167676767677" type="curve" smooth="yes"/>
      <point x="100.0111111111111" y="145.5028282828283"/>
      <point x="265.4525252525253" y="-18.5810101010101"/>
    </contour>
  </outline>
</glyph>
<glyph name="d" format="2">
  <advance width="1103.8270707070708"/>
  <unicode hex="0064"/>
  <anchor x="551.5923232323232" y="0.0" name="bottom"/>
  <anchor x="1060.0729292929293" y="1616.0" name="caronalt"/>
  <anchor x="549.2682828282828" y="540.7262626262626" name="center"/>
  <anchor x="944.4305050505051" y="1355.5642424242424" name="stroke"/>
  <anchor x="547.5252525252525" y="1200.0" name="top"/>
  <anchor x="1053.989090909091" y="1082.9050505050504" name="topright"/>
  <outline>
    <contour>
      <point x="521.9832323232323" y="-18.29050505050505" type="curve" smooth="yes"/>
      <point x="651.8379797979798" y="-18.29050505050505"/>
      <point x="757.949696969697" y="37.98323232323232"/>
      <point x="823.2234343434343" y="118.12848484848485" type="curve"/>
      <point x="832.6759595959596" y="118.12848484848485" type="line"/>
      <point x="841.4357575757576" y="0.0" type="line"/>
      <point x="944.4305050505051" y="0.0" type="line"/>
      <point x="944.4305050505051" y="1616.0" type="line"/>
      <point x="824.5753535353535" y="1616.0" type="line"/>
      <point x="824.5753535353535" y="1083.3743434343435" type="line"/>
      <point x="769.2234343434343" y="1092.2123232323233"/>
      <point x="700.4692929292929" y="1099.340808080808"/>
      <point x="634.9888888888889" y="1099.340808080808" type="curve" smooth="yes"/>
      <point x="286.0949494949495" y="1099.340808080808"/>
      <point x="100.0111111111111" y="913.1117171717171"/>
      <point x="100.0111111111111" y="519.3072727272727" type="curve" smooth="yes"/>
      <point x="100.0111111111111" y="126.05030303030303"/>
      <point x="286.0949494949495" y="-18.29050505050505"/>
    </contour>
    <contour>
      <point x="543.7208080808081" y="87.94444444444447" type="curve" smooth="yes"/>
      <point x="356.1008080808081" y="87.94444444444447"/>
      <point x="223.43050505050508" y="188.66505050505054"/>
      <point x="223.43050505050508" y="530.7933333333333" type="curve" smooth="yes"/>
      <point x="223.43050505050508" y="860.9383838383839"/>
      <point x="362.22929292929297" y="996.8824242424242"/>
      <point x="632.569898989899" y="996.8824242424242" type="curve" smooth="yes"/>
      <point x="698.6145454545455" y="996.8824242424242"/>
      <point x="772.9329292929293" y="988.6086868686868"/>
      <point x="824.5753535353535" y="976.0612121212121" type="curve"/>
      <point x="824.5753535353535" y="237.33535353535353" type="line"/>
      <point x="756.3854545454545" y="133.13434343434346"/>
      <point x="648.5531313131313" y="87.94444444444447"/>
    </contour>
  </outline>
</glyph>
<glyph name="e" format="2">
  <advance width="1009.8549494949496"/>
  <unicode hex="0065"/>
  <anchor x="521.0727272727273" y="0.0" name="bottom"/>
  <anchor x="784.3020202020202" y="0.0" name="ogonek"/>
  <anchor x="521.0727272727273" y="1200.0" name="top"/>
  <outline>
    <contour>
      <point x="592.3353535353535" y="-18.5810101010101" type="curve" smooth="yes"/>
      <point x="682.5309090909091" y="-18.5810101010101"/>
      <point x="771.7264646464647" y="-5.3072727272727285"/>
      <point x="873.6482828282828" y="26.385454545454543" type="curve"/>
      <point x="873.6482828282828" y="129.6818181818182" type="line"/>
      <point x="772.2460606060606" y="99.00585858585862"/>
      <point x="685.7767676767677" y="83.58686868686871"/>
      <point x="604.76" y="83.58686868686871" type="curve" smooth="yes"/>
      <point x="352.0505050505051" y="83.58686868686871"/>
      <point x="222.84949494949498" y="201.24040404040406"/>
      <point x="222.84949494949498" y="526.1395959595959" type="curve" smooth="yes"/>
      <point x="222.84949494949498" y="564.38" type="line" smooth="yes"/>
      <point x="222.84949494949498" y="890.910505050505"/>
      <point x="338.63151515151515" y="1005.0165656565656"/>
      <point x="520.7989898989899" y="1005.0165656565656" type="curve" smooth="yes"/>
      <point x="701.9664646464646" y="1005.0165656565656"/>
      <point x="808.2010101010101" y="889.910505050505"/>
      <point x="808.2010101010101" y="564.2347474747475" type="curve"/>
      <point x="840.1395959595959" y="588.9274747474748" type="line"/>
      <point x="163.65939393939396" y="588.9274747474748" type="line"/>
      <point x="163.65939393939396" y="498.5250505050505" type="line"/>
      <point x="925.8270707070708" y="498.5250505050505" type="line"/>
      <point x="925.8270707070708" y="539.5642424242425" type="line" smooth="yes"/>
      <point x="925.8270707070708" y="929.2066666666667"/>
      <point x="776.0505050505051" y="1099.1955555555555"/>
      <point x="521.5252525252525" y="1099.1955555555555" type="curve" smooth="yes"/>
      <point x="265.6591919191919" y="1099.1955555555555"/>
      <point x="100.0111111111111" y="928.3519191919191"/>
      <point x="100.0111111111111" y="541.5977777777778" type="curve" smooth="yes"/>
      <point x="100.0111111111111" y="142.7430303030303"/>
      <point x="272.9329292929293" y="-18.5810101010101"/>
    </contour>
  </outline>
</glyph>
<glyph name="f" format="2">
  <advance width="695.0337373737374"/>
  <unicode hex="0066"/>
  <outline>
    <contour>
      <point x="228.31838383838382" y="0.0" type="line"/>
      <point x="347.7377777777778" y="0.0" type="line"/>
      <point x="347.7377777777778" y="1273.4858585858585" type="line" smooth="yes"/>
      <point x="347.7377777777778" y="1460.1226262626262"/>
      <point x="432.23494949494955" y="1531.3628282828283"/>
      <point x="604.8773737373738" y="1531.3628282828283" type="curve" smooth="yes"/>
      <point x="651.4080808080809" y="1531.3628282828283"/>
      <point x="695.7935353535354" y="1526.7985858585857"/>
      <point x="742.0505050505051" y="1518.5248484848485" type="curve"/>
      <point x="742.0505050505051" y="1624.0" type="line"/>
      <point x="695.5979797979799" y="1632.0"/>
      <point x="643.8884848484848" y="1636.0"/>
      <point x="597.9834343434344" y="1636.0" type="curve" smooth="yes"/>
      <point x="353.51959595959596" y="1636.0"/>
      <point x="228.31838383838382" y="1511.6535353535353"/>
      <point x="228.31838383838382" y="1268.0165656565657" type="curve" smooth="yes"/>
    </contour>
    <contour>
      <point x="17.033535353535356" y="980.2678787878788" type="line"/>
      <point x="701.5979797979799" y="980.2678787878788" type="line"/>
      <point x="701.5979797979799" y="1082.9050505050504" type="line"/>
      <point x="17.033535353535356" y="1082.9050505050504" type="line"/>
    </contour>
  </outline>
</glyph>
<glyph name="g" format="2">
  <advance width="1103.8270707070708"/>
  <unicode hex="0067"/>
  <anchor x="566.7989898989899" y="-440.0" name="bottom"/>
  <anchor x="570.8660606060606" y="1200.0" name="top"/>
  <outline>
    <contour>
      <point x="475.44141414141416" y="-460.0" type="curve" smooth="yes"/>
      <point x="785.8438383838384" y="-460.0"/>
      <point x="944.4305050505051" y="-325.57535353535354"/>
      <point x="944.4305050505051" y="15.804646464646474" type="curve" smooth="yes"/>
      <point x="944.4305050505051" y="1053.2737373737373" type="line"/>
      <point x="853.0226262626263" y="1082.0335353535354"/>
      <point x="737.9666666666667" y="1099.1955555555555"/>
      <point x="632.1062626262626" y="1099.1955555555555" type="curve" smooth="yes"/>
      <point x="285.6591919191919" y="1099.050303030303"/>
      <point x="100.0111111111111" y="912.3854545454545"/>
      <point x="100.0111111111111" y="519.4525252525252" type="curve" smooth="yes"/>
      <point x="100.0111111111111" y="124.27939393939394"/>
      <point x="287.3519191919192" y="-15.675959595959593"/>
      <point x="512.2066666666667" y="-15.675959595959593" type="curve" smooth="yes"/>
      <point x="645.5921212121212" y="-15.675959595959593"/>
      <point x="750.4133333333333" y="39.14525252525252"/>
      <point x="816.6870707070707" y="113.87151515151515" type="curve"/>
      <point x="824.5753535353535" y="113.87151515151515" type="line"/>
      <point x="824.5753535353535" y="-0.2345454545454544" type="line" smooth="yes"/>
      <point x="824.5753535353535" y="-264.0444444444444"/>
      <point x="710.3854545454545" y="-356.96060606060604"/>
      <point x="471.0670707070707" y="-356.96060606060604" type="curve" smooth="yes"/>
      <point x="377.32404040404043" y="-356.96060606060604"/>
      <point x="277.5307070707071" y="-341.1058585858585"/>
      <point x="167.33515151515152" y="-304.8321212121212" type="curve"/>
      <point x="167.33515151515152" y="-410.30727272727273" type="line"/>
      <point x="260.1620202020202" y="-443.0167676767677"/>
      <point x="380.0670707070707" y="-460.0"/>
    </contour>
    <contour>
      <point x="540.4638383838384" y="90.26848484848487" type="curve" smooth="yes"/>
      <point x="359.93878787878793" y="90.26848484848487"/>
      <point x="223.43050505050508" y="187.4248484848485"/>
      <point x="223.43050505050508" y="531.3743434343435" type="curve" smooth="yes"/>
      <point x="223.43050505050508" y="860.9383838383839"/>
      <point x="363.1008080808081" y="996.8824242424242"/>
      <point x="623.1676767676768" y="996.8824242424242" type="curve" smooth="yes"/>
      <point x="699.050303030303" y="996.8824242424242"/>
      <point x="772.9329292929293" y="986.0444444444445"/>
      <point x="824.5753535353535" y="972.4969696969697" type="curve"/>
      <point x="824.5753535353535" y="231.51414141414142" type="line"/>
      <point x="756.240202020202" y="135.0226262626263"/>
      <point x="646.4246464646465" y="90.26848484848487"/>
    </contour>
  </outline>
</glyph>
<glyph name="h" format="2">
  <advance width="1115.0337373737375"/>
  <unicode hex="0068"/>
  <anchor x="564.5084848484848" y="0.0" name="bottom"/>
  <anchor x="564.5084848484848" y="541.4525252525252" name="center"/>
  <anchor x="159.39656565656566" y="1355.128484848485" name="stroke"/>
  <anchor x="564.5084848484848" y="1616.0" name="top"/>
  <outline>
    <contour>
      <point x="159.39656565656566" y="0.0" type="line"/>
      <point x="279.2517171717172" y="0.0" type="line"/>
      <point x="279.2517171717172" y="830.3573737373737" type="line"/>
      <point x="364.10080808080806" y="945.1226262626262"/>
      <point x="494.8828282828283" y="988.3460606060605"/>
      <point x="603.2961616161616" y="988.3460606060605" type="curve" smooth="yes"/>
      <point x="750.6424242424242" y="988.3460606060605"/>
      <point x="848.62" y="923.3014141414142"/>
      <point x="848.62" y="723.5864646464646" type="curve" smooth="yes"/>
      <point x="848.62" y="0.0" type="line"/>
      <point x="968.4751515151515" y="0.0" type="line"/>
      <point x="968.4751515151515" y="727.2345454545455" type="line" smooth="yes"/>
      <point x="968.4751515151515" y="1001.8212121212122"/>
      <point x="826.5533333333334" y="1099.1955555555555"/>
      <point x="629.6818181818182" y="1099.1955555555555" type="curve" smooth="yes"/>
      <point x="498.279595959596" y="1099.1955555555555"/>
      <point x="377.9276767676768" y="1052.6313131313132"/>
      <point x="287.14000000000004" y="959.3911111111111" type="curve"/>
      <point x="279.2517171717172" y="959.3911111111111" type="line"/>
      <point x="279.2517171717172" y="1616.0" type="line"/>
      <point x="159.39656565656566" y="1616.0" type="line"/>
    </contour>
  </outline>
</glyph>
<glyph name="k" format="2">
  <advance width="1002.899797979798"/>
  <unicode hex="006B"/>
  <anchor x="540.4973737373738" y="0.0" name="bottom"/>
  <anchor x="219.3967676767677" y="1616.0" name="top"/>
  <outline>
    <contour>
      <point x="882.4971717171717" y="0.0" type="line"/>
      <point x="1021.6763636363637" y="0.0" type="line"/>
      <point x="562.3133333333334" y="572.7319191919192" type="line"/>
      <point x="562.3133333333334" y="537.949696969697" type="line"/>
      <point x="988.950101010101" y="1082.9050505050504" type="line"/>
      <point x="852.0781818181819" y="1082.9050505050504" type="line"/>
      <point x="434.4749494949495" y="554.0335353535354" type="line"/>
    </contour>
    <contour>
      <point x="260.9276767676768" y="502.27919191919193" type="line"/>
      <point x="491.8549494949495" y="502.27919191919193" type="line"/>
      <point x="491.8549494949495" y="605.7878787878788" type="line"/>
      <point x="260.9276767676768" y="605.7878787878788" type="line"/>
    </contour>
    <contour>
      <point x="159.39656565656566" y="0.0" type="line"/>
      <point x="279.2517171717172" y="0.0" type="line"/>
      <point x="279.2517171717172" y="1616.0" type="line"/>
      <point x="159.39656565656566" y="1616.0" type="line"/>
    </contour>
  </outline>
</glyph>
<glyph name="l" format="2">
  <advance width="438.64828282828285"/>
  <unicode hex="006C"/>
  <anchor x="219.25151515151515" y="0.0" name="bottom"/>
  <anchor x="394.8941414141415" y="1616.0" name="caronalt"/>
  <anchor x="455.82727272727277" y="794.0" name="periodcentered"/>
  <anchor x="219.3967676767677" y="714.0" name="slash"/>
  <anchor x="219.3967676767677" y="1616.0" name="top"/>
  <outline>
    <contour>
      <point x="159.39656565656566" y="0.0" type="line"/>
      <point x="279.2517171717172" y="0.0" type="line"/>
      <point x="279.2517171717172" y="1616.0" type="line"/>
      <point x="159.39656565656566" y="1616.0" type="line"/>
    </contour>
  </outline>
</glyph>
<glyph name="m" format="2">
  <advance width="1667.5868686868687"/>
  <unicode hex="006D"/>
  <anchor x="843.5755555555555" y="0.0" name="bottom"/>
  <anchor x="843.5755555555555" y="1200.0" name="top"/>
  <outline>
    <contour>
      <point x="159.39656565656566" y="0.0" type="line"/>
      <point x="279.2517171717172" y="0.0" type="line"/>
      <point x="279.2517171717172" y="826.0836363636364" type="line"/>
      <point x="355.6818181818182" y="945.1226262626262"/>
      <point x="472.6258585858586" y="990.0555555555555"/>
      <point x="567.9274747474748" y="990.0555555555555" type="curve" smooth="yes"/>
      <point x="696.3072727272727" y="990.0555555555555"/>
      <point x="784.1563636363636" y="923.4466666666666"/>
      <point x="784.1563636363636" y="722.6032323232323" type="curve" smooth="yes"/>
      <point x="784.1563636363636" y="0.0" type="line"/>
      <point x="902.7042424242425" y="0.0" type="line"/>
      <point x="902.7042424242425" y="729.1228282828283" type="line" smooth="yes"/>
      <point x="902.7042424242425" y="1002.1117171717171"/>
      <point x="773.2014141414141" y="1099.1955555555555"/>
      <point x="595.6985858585858" y="1099.1955555555555" type="curve" smooth="yes"/>
      <point x="476.1008080808081" y="1099.1955555555555"/>
      <point x="364.13434343434346" y="1051.9218181818183"/>
      <point x="280.0226262626263" y="956.6816161616161" type="curve"/>
      <point x="270.57010101010104" y="956.6816161616161" type="line"/>
      <point x="261.37454545454545" y="1082.9050505050504" type="line"/>
      <point x="159.39656565656566" y="1082.9050505050504" type="line"/>
    </contour>
    <contour>
      <point x="1401.3183838383839" y="0.0" type="line"/>
      <point x="1521.028282828283" y="0.0" type="line"/>
      <point x="1521.028282828283" y="726.9440404040404" type="line" smooth="yes"/>
      <point x="1521.028282828283" y="1001.8212121212122"/>
      <point x="1386.2349494949494" y="1099.1955555555555"/>
      <point x="1203.2628282828282" y="1099.1955555555555" type="curve" smooth="yes"/>
      <point x="1085.6650505050507" y="1099.1955555555555"/>
      <point x="947.9890909090909" y="1051.9050505050504"/>
      <point x="841.3131313131313" y="909.8604040404041" type="curve"/>
      <point x="875.1567676767677" y="800.4412121212121" type="line"/>
      <point x="952.7321212121212" y="945.1226262626262"/>
      <point x="1083.7711111111112" y="990.0555555555555"/>
      <point x="1179.9442424242425" y="990.0555555555555" type="curve" smooth="yes"/>
      <point x="1309.0335353535354" y="990.0555555555555"/>
      <point x="1401.3183838383839" y="923.4466666666666"/>
      <point x="1401.3183838383839" y="722.6032323232323" type="curve" smooth="yes"/>
    </contour>
  </outline>
</glyph>
<glyph name="n" format="2">
  <advance width="1115.0337373737375"/>
  <unicode hex="006E"/>
  <anchor x="12.70949494949495" y="1200.0" name="apostrophe"/>
  <anchor x="564.5084848484848" y="0.0" name="bottom"/>
  <anchor x="564.5084848484848" y="1200.0" name="top"/>
  <outline>
    <contour>
      <point x="159.39656565656566" y="0.0" type="line"/>
      <point x="279.2517171717172" y="0.0" type="line"/>
      <point x="279.2517171717172" y="831.2121212121212" type="line"/>
      <point x="365.81030303030303" y="948.5416161616162"/>
      <point x="499.72080808080807" y="990.0555555555555"/>
      <point x="603.2961616161616" y="990.0555555555555" type="curve" smooth="yes"/>
      <point x="753.2066666666667" y="990.0555555555555"/>
      <point x="848.62" y="921.7371717171717"/>
      <point x="848.62" y="722.3127272727272" type="curve" smooth="yes"/>
      <point x="848.62" y="0.0" type="line"/>
      <point x="968.4751515151515" y="0.0" type="line"/>
      <point x="968.4751515151515" y="726.379797979798" type="line" smooth="yes"/>
      <point x="968.4751515151515" y="1000.8212121212122"/>
      <point x="826.5533333333334" y="1099.1955555555555"/>
      <point x="625.6315151515151" y="1099.1955555555555" type="curve" smooth="yes"/>
      <point x="492.7935353535354" y="1099.1955555555555"/>
      <point x="370.40808080808085" y="1048.5028282828282"/>
      <point x="280.0226262626263" y="957.5363636363636" type="curve"/>
      <point x="270.57010101010104" y="957.5363636363636" type="line"/>
      <point x="261.37454545454545" y="1082.9050505050504" type="line"/>
      <point x="159.39656565656566" y="1082.9050505050504" type="line"/>
    </contour>
  </outline>
</glyph>
<glyph name="o" format="2">
  <advance width="1088.2125252525252"/>
  <unicode hex="006F"/>
  <anchor x="544.1062626262626" y="0.0" name="bottom"/>
  <anchor x="544.1062626262626" y="541.4525252525252" name="center"/>
  <anchor x="686.3856565656566" y="0.0" name="ogonek"/>
  <anchor x="544.1062626262626" y="1200.0" name="top"/>
  <anchor x="651.949696969697" y="1082.9050505050504" name="topright"/>
  <outline>
    <contour>
      <point x="544.1062626262626" y="-18.5810101010101" type="curve" smooth="yes"/>
      <point x="811.6482828282828" y="-18.5810101010101"/>
      <point x="988.2014141414141" y="147.79333333333335"/>
      <point x="988.2014141414141" y="541.1620202020202" type="curve" smooth="yes"/>
      <point x="988.2014141414141" y="937.3686868686868"/>
      <point x="813.2460606060606" y="1099.1955555555555"/>
      <point x="544.1062626262626" y="1099.1955555555555" type="curve" smooth="yes"/>
      <point x="274.96646464646466" y="1099.1955555555555"/>
      <point x="100.0111111111111" y="934.6759595959596"/>
      <point x="100.0111111111111" y="540.8715151515152" type="curve" smooth="yes"/>
      <point x="100.0111111111111" y="144.37434343434344"/>
      <point x="276.5642424242424" y="-18.5810101010101"/>
    </contour>
    <contour>
      <point x="544.1062626262626" y="83.73212121212123" type="curve" smooth="yes"/>
      <point x="348.0840404040404" y="83.73212121212123"/>
      <point x="223.43050505050508" y="197.709696969697"/>
      <point x="223.43050505050508" y="543.7262626262626" type="curve" smooth="yes"/>
      <point x="223.43050505050508" y="884.6143434343434"/>
      <point x="348.37454545454545" y="996.8824242424242"/>
      <point x="544.1062626262626" y="996.8824242424242" type="curve" smooth="yes"/>
      <point x="739.8379797979798" y="996.8824242424242"/>
      <point x="864.7820202020202" y="884.6143434343434"/>
      <point x="864.7820202020202" y="538.3072727272727" type="curve" smooth="yes"/>
      <point x="864.7820202020202" y="197.709696969697"/>
      <point x="740.1284848484848" y="83.73212121212123"/>
    </contour>
  </outline>
</glyph>
<glyph name="p" format="2">
  <advance width="1103.8270707070708"/>
  <unicode hex="0070"/>
  <outline>
    <contour>
      <point x="159.39656565656566" y="-440.0" type="line"/>
      <point x="279.2517171717172" y="-440.0" type="line"/>
      <point x="279.2517171717172" y="-3.3240404040404057" type="line"/>
      <point x="334.6036363636364" y="-11.307272727272728"/>
      <point x="403.3577777777778" y="-18.435757575757577"/>
      <point x="468.83818181818185" y="-18.435757575757577" type="curve" smooth="yes"/>
      <point x="818.5868686868687" y="-18.435757575757577"/>
      <point x="1003.8159595959596" y="167.79333333333335"/>
      <point x="1003.8159595959596" y="561.5977777777778" type="curve" smooth="yes"/>
      <point x="1003.8159595959596" y="960.8379797979798"/>
      <point x="814.3131313131313" y="1099.1955555555555"/>
      <point x="581.8438383838384" y="1099.1955555555555" type="curve" smooth="yes"/>
      <point x="451.9890909090909" y="1099.1955555555555"/>
      <point x="345.8773737373738" y="1042.9218181818183"/>
      <point x="280.6036363636364" y="962.7765656565657" type="curve"/>
      <point x="272.0058585858586" y="962.7765656565657" type="line"/>
      <point x="262.39131313131315" y="1082.9050505050504" type="line"/>
      <point x="159.39656565656566" y="1082.9050505050504" type="line"/>
    </contour>
    <contour>
      <point x="471.25717171717173" y="84.02262626262629" type="curve" smooth="yes"/>
      <point x="405.21252525252527" y="84.02262626262629"/>
      <point x="330.8941414141415" y="92.29636363636365"/>
      <point x="279.2517171717172" y="104.8438383838384" type="curve"/>
      <point x="279.2517171717172" y="843.5696969696969" type="line"/>
      <point x="347.4416161616162" y="947.7707070707071"/>
      <point x="455.27393939393943" y="992.960606060606"/>
      <point x="560.1062626262626" y="992.960606060606" type="curve" smooth="yes"/>
      <point x="743.4525252525252" y="992.960606060606"/>
      <point x="880.3965656565656" y="895.6589898989898"/>
      <point x="880.3965656565656" y="550.1117171717171" type="curve" smooth="yes"/>
      <point x="880.3965656565656" y="219.9666666666667"/>
      <point x="741.5977777777778" y="84.02262626262629"/>
    </contour>
  </outline>
</glyph>
<glyph name="q" format="2">
  <advance width="1103.8270707070708"/>
  <unicode hex="0071"/>
  <outline>
    <contour>
      <point x="824.5753535353535" y="-440.0" type="line"/>
      <point x="944.4305050505051" y="-440.0" type="line"/>
      <point x="944.4305050505051" y="1053.2737373737373" type="line"/>
      <point x="853.0226262626263" y="1082.0335353535354"/>
      <point x="737.9666666666667" y="1099.1955555555555"/>
      <point x="631.9610101010101" y="1099.1955555555555" type="curve" smooth="yes"/>
      <point x="285.6591919191919" y="1099.1955555555555"/>
      <point x="100.0111111111111" y="913.5474747474748"/>
      <point x="100.0111111111111" y="518.8715151515152" type="curve" smooth="yes"/>
      <point x="100.0111111111111" y="121.37434343434344"/>
      <point x="286.3351515151515" y="-18.435757575757577"/>
      <point x="512.2066666666667" y="-18.435757575757577" type="curve" smooth="yes"/>
      <point x="645.5921212121212" y="-18.435757575757577"/>
      <point x="750.4133333333333" y="36.38545454545454"/>
      <point x="816.6870707070707" y="111.11171717171717" type="curve"/>
      <point x="824.5753535353535" y="111.11171717171717" type="line"/>
    </contour>
    <contour>
      <point x="540.4638383838384" y="87.94444444444447" type="curve" smooth="yes"/>
      <point x="360.22929292929297" y="87.94444444444447"/>
      <point x="223.43050505050508" y="185.2460606060606"/>
      <point x="223.43050505050508" y="530.5028282828283" type="curve" smooth="yes"/>
      <point x="223.43050505050508" y="860.9383838383839"/>
      <point x="363.1008080808081" y="996.8824242424242"/>
      <point x="623.0224242424242" y="996.8824242424242" type="curve" smooth="yes"/>
      <point x="699.050303030303" y="996.8824242424242"/>
      <point x="772.9329292929293" y="986.0444444444445"/>
      <point x="824.5753535353535" y="972.4969696969697" type="curve"/>
      <point x="824.5753535353535" y="229.19010101010102" type="line"/>
      <point x="756.240202020202" y="132.6985858585859"/>
      <point x="646.4246464646465" y="87.94444444444447"/>
    </contour>
  </outline>
</glyph>
<glyph name="r" format="2">
  <advance width="701.3242424242425"/>
  <unicode hex="0072"/>
  <anchor x="219.3967676767677" y="0.0" name="bottom"/>
  <anchor x="413.0391919191919" y="1200.0" name="top"/>
  <outline>
    <contour>
      <point x="159.39656565656566" y="0.0" type="line"/>
      <point x="279.2517171717172" y="0.0" type="line"/>
      <point x="279.2517171717172" y="811.3070707070707" type="line"/>
      <point x="354.7321212121212" y="923.8321212121211"/>
      <point x="489.0337373737374" y="977.3292929292929"/>
      <point x="598.8214141414142" y="977.3292929292929" type="curve" smooth="yes"/>
      <point x="632.1119191919192" y="977.3292929292929"/>
      <point x="659.3074747474748" y="976.1840404040404"/>
      <point x="688.6147474747474" y="971.6030303030303" type="curve"/>
      <point x="688.6147474747474" y="1085.2123232323233" type="line"/>
      <point x="662.0505050505051" y="1090.0670707070708"/>
      <point x="636.4527272727273" y="1092.3575757575757"/>
      <point x="603.5979797979799" y="1092.3575757575757" type="curve" smooth="yes"/>
      <point x="481.5979797979798" y="1092.3575757575757"/>
      <point x="357.2460606060606" y="1037.9553535353537"/>
      <point x="280.31313131313135" y="937.0670707070707" type="curve"/>
      <point x="270.8606060606061" y="937.0670707070707" type="line"/>
      <point x="260.9387878787879" y="1082.9050505050504" type="line"/>
      <point x="159.39656565656566" y="1082.9050505050504" type="line"/>
    </contour>
  </outline>
</glyph>
<glyph name="s" format="2">
  <advance width="881.2739393939394"/>
  <unicode hex="0073"/>
  <anchor x="446.34646464646465" y="0.0" name="bottom"/>
  <anchor x="446.34646464646465" y="1200.0" name="top"/>
  <outline>
    <contour>
      <point x="402.0224242424242" y="-18.5810101010101" type="curve" smooth="yes"/>
      <point x="669.4973737373738" y="-18.5810101010101"/>
      <point x="807.6650505050505" y="99.4860606060606"/>
      <point x="807.6650505050505" y="290.60343434343434" type="curve" smooth="yes"/>
      <point x="807.6650505050505" y="445.89959595959596"/>
      <point x="731.2739393939394" y="536.8828282828283"/>
      <point x="530.0169696969697" y="580.9945454545455" type="curve" smooth="yes"/>
      <point x="390.99454545454546" y="609.8660606060606" type="line" smooth="yes"/>
      <point x="258.5365656565657" y="639.0894949494949"/>
      <point x="212.91090909090912" y="702.0838383838384"/>
      <point x="212.91090909090912" y="798.3016161616162" type="curve" smooth="yes"/>
      <point x="212.91090909090912" y="911.2121212121212"/>
      <point x="292.3410101010101" y="998.7707070707071"/>
      <point x="505.91636363636366" y="998.7707070707071" type="curve" smooth="yes"/>
      <point x="590.8381818181819" y="998.7707070707071"/>
      <point x="662.6650505050505" y="989.7539393939394"/>
      <point x="750.7935353535354" y="965.8991919191919" type="curve"/>
      <point x="750.7935353535354" y="1068.178787878788" type="line"/>
      <point x="673.7767676767677" y="1088.469292929293"/>
      <point x="593.3856565656566" y="1099.1955555555555"/>
      <point x="504.0280808080808" y="1099.1955555555555" type="curve" smooth="yes"/>
      <point x="226.29050505050506" y="1099.1955555555555"/>
      <point x="95.28484848484848" y="970.2905050505051"/>
      <point x="95.28484848484848" y="794.430101010101" type="curve" smooth="yes"/>
      <point x="95.28484848484848" y="644.1842424242424"/>
      <point x="169.91616161616162" y="548.2959595959596"/>
      <point x="366.38545454545454" y="504.74848484848485" type="curve" smooth="yes"/>
      <point x="505.40787878787876" y="475.8769696969697" type="line" smooth="yes"/>
      <point x="637.8658585858586" y="446.65353535353535"/>
      <point x="690.0389898989899" y="393.7709090909091"/>
      <point x="690.0389898989899" y="283.44141414141416" type="curve" smooth="yes"/>
      <point x="690.0389898989899" y="155.2739393939394"/>
      <point x="602.3351515151516" y="81.8438383838384"/>
      <point x="403.42464646464646" y="81.8438383838384" type="curve" smooth="yes"/>
      <point x="308.03353535353534" y="81.8438383838384"/>
      <point x="219.89939393939392" y="94.15111111111113"/>
      <point x="113.89939393939393" y="126.15111111111113" type="curve"/>
      <point x="113.89939393939393" y="23.87151515151515" type="line"/>
      <point x="203.53070707070708" y="-5.0"/>
      <point x="297.50282828282826" y="-18.5810101010101"/>
    </contour>
  </outline>
</glyph>
<glyph name="t" format="2">
  <advance width="724.7935353535354"/>
  <unicode hex="0074"/>
  <anchor x="467.0056565656566" y="0.0" name="bottom"/>
  <anchor x="526.9387878787879" y="1616.0" name="caronalt"/>
  <anchor x="220.31838383838382" y="645.0389898989899" name="stroke"/>
  <anchor x="280.3185858585859" y="1485.810101010101" name="top"/>
  <anchor x="680.7878787878788" y="1616.0" name="topright"/>
  <outline>
    <contour>
      <point x="555.2179797979798" y="-18.435757575757577" type="curve" smooth="yes"/>
      <point x="608.2850505050505" y="-18.435757575757577"/>
      <point x="659.6761616161616" y="-12.4189898989899"/>
      <point x="712.8381818181819" y="-0.12848484848484754" type="curve"/>
      <point x="712.8381818181819" y="105.92767676767679" type="line"/>
      <point x="659.7264646464647" y="93.94444444444449"/>
      <point x="618.469494949495" y="88.23494949494952"/>
      <point x="576.3577777777778" y="88.23494949494952" type="curve" smooth="yes"/>
      <point x="420.9109090909091" y="88.23494949494952"/>
      <point x="340.1735353535354" y="156.15111111111113"/>
      <point x="340.1735353535354" y="346.54767676767676" type="curve" smooth="yes"/>
      <point x="340.1735353535354" y="1480.0" type="line"/>
      <point x="238.63131313131314" y="1480.0" type="line"/>
      <point x="220.31838383838382" y="1082.9050505050504" type="line"/>
      <point x="220.31838383838382" y="326.7040404040404" type="line" smooth="yes"/>
      <point x="220.31838383838382" y="84.51959595959596"/>
      <point x="344.2737373737374" y="-18.435757575757577"/>
    </contour>
    <contour>
      <point x="9.033535353535354" y="980.2678787878788" type="line"/>
      <point x="694.0337373737374" y="980.2678787878788" type="line"/>
      <point x="694.0337373737374" y="1082.9050505050504" type="line"/>
      <point x="9.033535353535354" y="1082.9050505050504" type="line"/>
    </contour>
  </outline>
</glyph>
<glyph name="u" format="2">
  <advance width="1105.17898989899"/>
  <unicode hex="0075"/>
  <anchor x="546.6705050505051" y="0.0" name="bottom"/>
  <anchor x="945.7824242424242" y="0.0" name="ogonek"/>
  <anchor x="546.6705050505051" y="1200.0" name="top"/>
  <anchor x="832.7541414141414" y="1082.9050505050504" name="topright"/>
  <outline>
    <contour>
      <point x="486.14525252525254" y="-18.145252525252527" type="curve" smooth="yes"/>
      <point x="612.2569696969697" y="-18.145252525252527"/>
      <point x="733.6256565656565" y="28.273737373737372"/>
      <point x="825.4468686868687" y="121.09494949494949" type="curve"/>
      <point x="834.6088888888889" y="121.09494949494949" type="line"/>
      <point x="843.8044444444445" y="0.0" type="line"/>
      <point x="945.7824242424242" y="0.0" type="line"/>
      <point x="945.7824242424242" y="1082.9050505050504" type="line"/>
      <point x="825.9272727272727" y="1082.9050505050504" type="line"/>
      <point x="825.9272727272727" y="249.83818181818182" type="line"/>
      <point x="741.9329292929293" y="135.9276767676768"/>
      <point x="611.1509090909091" y="90.9947474747475"/>
      <point x="506.73757575757577" y="90.9947474747475" type="curve" smooth="yes"/>
      <point x="364.39131313131315" y="90.9947474747475"/>
      <point x="266.4137373737374" y="157.74888888888893"/>
      <point x="266.4137373737374" y="357.17333333333335" type="curve" smooth="yes"/>
      <point x="266.4137373737374" y="1082.9050505050504" type="line"/>
      <point x="146.55858585858584" y="1082.9050505050504" type="line"/>
      <point x="146.55858585858584" y="353.52525252525254" type="line" smooth="yes"/>
      <point x="146.55858585858584" y="79.22909090909091"/>
      <point x="288.7709090909091" y="-18.145252525252527"/>
    </contour>
  </outline>
</glyph>
<glyph name="v" format="2">
  <advance width="1030.2963636363636"/>
  <unicode hex="0076"/>
  <anchor x="516.4303030303031" y="0.0" name="bottom"/>
  <anchor x="516.4303030303031" y="1200.0" name="top"/>
  <outline>
    <contour>
      <point x="436.91050505050504" y="0.0" type="line"/>
      <point x="593.2406060606061" y="0.0" type="line"/>
      <point x="1010.6707070707071" y="1082.9050505050504" type="line"/>
      <point x="887.8490909090909" y="1082.9050505050504" type="line"/>
      <point x="508.73757575757577" y="80.73777777777781" type="line"/>
      <point x="527.899595959596" y="80.73777777777781" type="line"/>
      <point x="148.78808080808085" y="1082.9050505050504" type="line"/>
      <point x="19.625656565656563" y="1082.9050505050504" type="line"/>
    </contour>
  </outline>
</glyph>
<glyph name="w" format="2">
  <advance width="1662.6371717171717"/>
  <unicode hex="0077"/>
  <anchor x="832.3185858585858" y="0.0" name="bottom"/>
  <anchor x="833.1733333333334" y="1200.0" name="top"/>
  <outline>
    <contour>
      <point x="387.92727272727274" y="0.0" type="line"/>
      <point x="535.3802020202021" y="0.0" type="line"/>
      <point x="841.0448484848484" y="990.7147474747475" type="line"/>
      <point x="823.7543434343435" y="990.7147474747475" type="line"/>
      <point x="1128.4022222222222" y="0.0" type="line"/>
      <point x="1275.8551515151516" y="0.0" type="line"/>
      <point x="1598.1567676767677" y="1082.9050505050504" type="line"/>
      <point x="1481.9832323232324" y="1082.9050505050504" type="line"/>
      <point x="1191.7878787878788" y="95.92222222222226" type="line"/>
      <point x="1208.949898989899" y="95.92222222222226" type="line"/>
      <point x="907.3523232323232" y="1082.9050505050504" type="line"/>
      <point x="759.8993939393939" y="1082.9050505050504" type="line"/>
      <point x="458.43030303030304" y="95.92222222222226" type="line"/>
      <point x="474.2850505050505" y="95.92222222222226" type="line"/>
      <point x="184.8327272727273" y="1082.9050505050504" type="line"/>
      <point x="64.48040404040404" y="1082.9050505050504" type="line"/>
    </contour>
  </outline>
</glyph>
<glyph name="x" format="2">
  <advance width="979.2014141414141"/>
  <unicode hex="0078"/>
  <anchor x="490.8828282828283" y="0.0" name="bottom"/>
  <anchor x="491.0280808080808" y="1200.0" name="top"/>
  <outline>
    <contour>
      <point x="819.7038383838384" y="0.0" type="line"/>
      <point x="960.4640404040404" y="0.0" type="line"/>
      <point x="561.8048484848485" y="547.8882828282829" type="line"/>
      <point x="491.6090909090909" y="637.1678787878789" type="line"/>
      <point x="169.20707070707073" y="1082.9050505050504" type="line"/>
      <point x="28.446868686868683" y="1082.9050505050504" type="line"/>
      <point x="417.81555555555553" y="545.4525252525252" type="line"/>
      <point x="488.73757575757577" y="457.3181818181818" type="line"/>
    </contour>
    <contour>
      <point x="21.446868686868683" y="0.0" type="line"/>
      <point x="159.46404040404042" y="0.0" type="line"/>
      <point x="488.73757575757577" y="457.3181818181818" type="line"/>
      <point x="561.8048484848485" y="547.8882828282829" type="line"/>
      <point x="950.7377777777779" y="1082.9050505050504" type="line"/>
      <point x="814.430101010101" y="1082.9050505050504" type="line"/>
      <point x="491.6090909090909" y="637.1678787878789" type="line"/>
      <point x="417.81555555555553" y="545.4525252525252" type="line"/>
    </contour>
  </outline>
</glyph>
<glyph name="y" format="2">
  <advance width="1030.2963636363636"/>
  <unicode hex="0079"/>
  <anchor x="774.8551515151515" y="0.0" name="bottom"/>
  <anchor x="516.4303030303031" y="1200.0" name="top"/>
  <outline>
    <contour>
      <point x="302.19555555555553" y="-440.0" type="line"/>
      <point x="423.87191919191923" y="-440.0" type="line"/>
      <point x="1010.6707070707071" y="1082.9050505050504" type="line"/>
      <point x="887.8490909090909" y="1082.9050505050504" type="line"/>
      <point x="508.73757575757577" y="80.73777777777781" type="line"/>
      <point x="472.5642424242424" y="0.0" type="line"/>
    </contour>
    <contour>
      <point x="436.91050505050504" y="0.0" type="line"/>
      <point x="553.6818181818182" y="0.0" type="line"/>
      <point x="148.78808080808085" y="1082.9050505050504" type="line"/>
      <point x="19.625656565656563" y="1082.9050505050504" type="line"/>
    </contour>
  </outline>
</glyph>
<glyph name="z" format="2">
  <advance width="895.5030303030303"/>
  <unicode hex="007A"/>
  <anchor x="451.4135353535354" y="0.0" name="bottom"/>
  <anchor x="451.4135353535354" y="1200.0" name="top"/>
  <outline>
    <contour>
      <point x="61.871515151515155" y="0.0" type="line"/>
      <point x="839.9555555555555" y="0.0" type="line"/>
      <point x="839.9555555555555" y="102.63717171717175" type="line"/>
      <point x="194.93898989898995" y="102.63717171717175" type="line"/>
      <point x="194.93898989898995" y="70.81030303030306" type="line"/>
      <point x="828.2460606060606" y="1009.4969696969697" type="line"/>
      <point x="828.2460606060606" y="1082.9050505050504" type="line"/>
      <point x="73.5810101010101" y="1082.9050505050504" type="line"/>
      <point x="73.5810101010101" y="980.2678787878788" type="line"/>
      <point x="695.1785858585858" y="980.2678787878788" type="line"/>
      <point x="695.1785858585858" y="1012.0947474747475" type="line"/>
      <point x="61.871515151515155" y="73.40808080808083" type="line"/>
    </contour>
  </outline>
</glyph>
<glyph name="braceleft" format="2">
  <advance width="684.5923232323232"/>
  <unicode hex="007B"/>
  <outline>
    <contour>
      <point x="591.3743434343435" y="-460.0" type="curve" smooth="yes"/>
      <point x="640.1676767676768" y="-460.0"/>
      <point x="688.6369696969697" y="-455.70949494949497"/>
      <point x="722.5587878787878" y="-449.4189898989899" type="curve"/>
      <point x="722.5587878787878" y="-354.78181818181815" type="line"/>
      <point x="599.2850505050505" y="-354.78181818181815" type="line" smooth="yes"/>
      <point x="437.82707070707073" y="-354.78181818181815"/>
      <point x="358.089696969697" y="-286.8991919191919"/>
      <point x="358.089696969697" y="-124.8769696969697" type="curve" smooth="yes"/>
      <point x="358.089696969697" y="387.8993939393939" type="line" smooth="yes"/>
      <point x="358.089696969697" y="532.6145454545455"/>
      <point x="303.0840404040404" y="609.8436363636364"/>
      <point x="177.77656565656565" y="632.0670707070707" type="curve"/>
      <point x="177.77656565656565" y="614.8379797979798" type="line"/>
      <point x="303.0840404040404" y="637.0614141414142"/>
      <point x="358.089696969697" y="714.2905050505051"/>
      <point x="358.089696969697" y="859.0056565656565" type="curve" smooth="yes"/>
      <point x="358.089696969697" y="1300.8769696969696" type="line" smooth="yes"/>
      <point x="358.089696969697" y="1462.899191919192"/>
      <point x="437.82707070707073" y="1530.7818181818182"/>
      <point x="599.2850505050505" y="1530.7818181818182" type="curve" smooth="yes"/>
      <point x="722.5587878787878" y="1530.7818181818182" type="line"/>
      <point x="722.5587878787878" y="1625.4189898989898" type="line"/>
      <point x="688.6369696969697" y="1631.709494949495"/>
      <point x="640.1676767676768" y="1636.0"/>
      <point x="591.3743434343435" y="1636.0" type="curve" smooth="yes"/>
      <point x="357.8993939393939" y="1636.0"/>
      <point x="238.23454545454544" y="1523.3351515151514"/>
      <point x="238.23454545454544" y="1297.2177777777779" type="curve" smooth="yes"/>
      <point x="238.23454545454544" y="849.5866666666667" type="line" smooth="yes"/>
      <point x="238.23454545454544" y="727.3185858585858"/>
      <point x="178.8490909090909" y="674.7711111111112"/>
      <point x="65.12848484848485" y="674.7711111111112" type="curve" smooth="yes"/>
      <point x="42.430101010101005" y="674.7711111111112" type="line"/>
      <point x="42.430101010101005" y="572.1339393939394" type="line"/>
      <point x="65.12848484848485" y="572.1339393939394" type="line" smooth="yes"/>
      <point x="178.8490909090909" y="572.1339393939394"/>
      <point x="238.23454545454544" y="519.5864646464646"/>
      <point x="238.23454545454544" y="397.31838383838385" type="curve" smooth="yes"/>
      <point x="238.23454545454544" y="-121.21777777777777" type="line" smooth="yes"/>
      <point x="238.23454545454544" y="-347.3351515151515"/>
      <point x="357.8993939393939" y="-460.0"/>
    </contour>
  </outline>
</glyph>
<glyph name="bar" format="2">
  <advance width="469.7878787878788"/>
  <unicode hex="007C"/>
  <outline>
    <contour>
      <point x="178.23454545454544" y="-440.0" type="line"/>
      <point x="291.55333333333334" y="-440.0" type="line"/>
      <point x="291.55333333333334" y="1616.0" type="line"/>
      <point x="178.23454545454544" y="1616.0" type="line"/>
    </contour>
  </outline>
</glyph>
<glyph name="braceright" format="2">
  <advance width="684.5923232323232"/>
  <unicode hex="007D"/>
  <outline>
    <contour>
      <point x="93.21797979797981" y="-460.0" type="curve" smooth="yes"/>
      <point x="326.6929292929293" y="-460.0"/>
      <point x="446.3577777777778" y="-347.3351515151515"/>
      <point x="446.3577777777778" y="-121.21777777777777" type="curve" smooth="yes"/>
      <point x="446.3577777777778" y="397.31838383838385" type="line" smooth="yes"/>
      <point x="446.3577777777778" y="519.5864646464646"/>
      <point x="505.74323232323235" y="572.1339393939394"/>
      <point x="619.4638383838384" y="572.1339393939394" type="curve" smooth="yes"/>
      <point x="642.1622222222222" y="572.1339393939394" type="line"/>
      <point x="642.1622222222222" y="674.7711111111112" type="line"/>
      <point x="619.4638383838384" y="674.7711111111112" type="line" smooth="yes"/>
      <point x="505.74323232323235" y="674.7711111111112"/>
      <point x="446.3577777777778" y="727.3185858585858"/>
      <point x="446.3577777777778" y="849.5866666666667" type="curve" smooth="yes"/>
      <point x="446.3577777777778" y="1297.2177777777779" type="line" smooth="yes"/>
      <point x="446.3577777777778" y="1523.3351515151514"/>
      <point x="326.6929292929293" y="1636.0"/>
      <point x="93.21797979797981" y="1636.0" type="curve" smooth="yes"/>
      <point x="44.42464646464647" y="1636.0"/>
      <point x="-4.04464646464646" y="1631.709494949495"/>
      <point x="-37.966464646464644" y="1625.4189898989898" type="curve"/>
      <point x="-37.966464646464644" y="1530.7818181818182" type="line"/>
      <point x="85.30727272727273" y="1530.7818181818182" type="line" smooth="yes"/>
      <point x="246.76525252525252" y="1530.7818181818182"/>
      <point x="326.5026262626262" y="1462.899191919192"/>
      <point x="326.5026262626262" y="1300.8769696969696" type="curve" smooth="yes"/>
      <point x="326.5026262626262" y="859.0056565656565" type="line" smooth="yes"/>
      <point x="326.5026262626262" y="714.2905050505051"/>
      <point x="381.9440404040404" y="637.0614141414142"/>
      <point x="506.8157575757576" y="614.8379797979798" type="curve"/>
      <point x="506.8157575757576" y="632.0670707070707" type="line"/>
      <point x="381.9440404040404" y="609.8436363636364"/>
      <point x="326.5026262626262" y="532.6145454545455"/>
      <point x="326.5026262626262" y="387.8993939393939" type="curve" smooth="yes"/>
      <point x="326.5026262626262" y="-124.8769696969697" type="line" smooth="yes"/>
      <point x="326.5026262626262" y="-286.8991919191919"/>
      <point x="246.76525252525252" y="-354.78181818181815"/>
      <point x="85.30727272727273" y="-354.78181818181815" type="curve" smooth="yes"/>
      <point x="-37.966464646464644" y="-354.78181818181815" type="line"/>
      <point x="-37.966464646464644" y="-449.4189898989899" type="line"/>
      <point x="-4.04464646464646" y="-455.70949494949497"/>
      <point x="44.42464646464647" y="-460.0"/>
    </contour>
  </outline>
</glyph>
<glyph name="exclamdown" format="2">
  <advance width="477.0840404040404"/>
  <unicode hex="00A1"/>
  <outline>
    <contour>
      <point x="199.72626262626264" y="731.7539393939394" type="line"/>
      <point x="174.9440404040404" y="175.61999999999998" type="line"/>
      <point x="174.9440404040404" y="-380.0" type="line"/>
      <point x="302.14000000000004" y="-380.0" type="line"/>
      <point x="302.14000000000004" y="175.61999999999998" type="line"/>
      <point x="278.0840404040404" y="731.7539393939394" type="line"/>
    </contour>
    <contour>
      <point x="238.5420202020202" y="1094.3575757575757" type="curve" smooth="yes"/>
      <point x="184.0949494949495" y="1094.3575757575757"/>
      <point x="146.61999999999998" y="1060.0446464646463"/>
      <point x="146.61999999999998" y="1005.1953535353535" type="curve" smooth="yes"/>
      <point x="146.61999999999998" y="950.3460606060605"/>
      <point x="183.51393939393938" y="914.3236363636363"/>
      <point x="238.5420202020202" y="914.3236363636363" type="curve" smooth="yes"/>
      <point x="293.57010101010104" y="914.3236363636363"/>
      <point x="330.4640404040404" y="950.9270707070707"/>
      <point x="330.4640404040404" y="1005.1953535353535" type="curve" smooth="yes"/>
      <point x="330.4640404040404" y="1059.4636363636364"/>
      <point x="292.9890909090909" y="1094.3575757575757"/>
    </contour>
  </outline>
</glyph>
<glyph name="cent" format="2">
  <advance width="859.0337373737374"/>
  <unicode hex="00A2"/>
  <outline>
    <contour>
      <point x="558.4806060606061" y="-18.5810101010101" type="curve" smooth="yes"/>
      <point x="644.8214141414142" y="-18.5810101010101"/>
      <point x="732.4359595959596" y="-3.5810101010101016"/>
      <point x="818.1286868686868" y="27.256969696969694" type="curve"/>
      <point x="818.1286868686868" y="133.31313131313135" type="line"/>
      <point x="721.2907070707071" y="100.34666666666669"/>
      <point x="644.0505050505051" y="86.92767676767679"/>
      <point x="574.3410101010102" y="86.92767676767679" type="curve" smooth="yes"/>
      <point x="346.0729292929293" y="86.92767676767679"/>
      <point x="225.02828282828284" y="207.06727272727275"/>
      <point x="225.02828282828284" y="544.8715151515152" type="curve" smooth="yes"/>
      <point x="225.02828282828284" y="876.24"/>
      <point x="349.6204040404041" y="993.6868686868687"/>
      <point x="608.3074747474748" y="993.6868686868687" type="curve" smooth="yes"/>
      <point x="676.1622222222222" y="993.6868686868687"/>
      <point x="744.8549494949496" y="984.2678787878788"/>
      <point x="818.1286868686868" y="964.8656565656565" type="curve"/>
      <point x="818.1286868686868" y="1070.9218181818183" type="line"/>
      <point x="746.9666666666667" y="1090.340808080808"/>
      <point x="674.9331313131313" y="1099.1955555555555"/>
      <point x="601.8660606060606" y="1099.1955555555555" type="curve" smooth="yes"/>
      <point x="276.759797979798" y="1099.1955555555555"/>
      <point x="100.0111111111111" y="936.6927272727273"/>
      <point x="100.0111111111111" y="541.0167676767677" type="curve" smooth="yes"/>
      <point x="100.0111111111111" y="145.5028282828283"/>
      <point x="264.59777777777776" y="-18.5810101010101"/>
    </contour>
    <contour>
      <point x="498.5921212121212" y="-240.0" type="line"/>
      <point x="605.5868686868687" y="-240.0" type="line"/>
      <point x="605.5868686868687" y="8.715151515151522" type="line"/>
      <point x="498.5921212121212" y="8.715151515151522" type="line"/>
    </contour>
    <contour>
      <point x="498.5921212121212" y="1074.189898989899" type="line"/>
      <point x="605.5868686868687" y="1074.189898989899" type="line"/>
      <point x="605.5868686868687" y="1322.9050505050504" type="line"/>
      <point x="498.5921212121212" y="1322.9050505050504" type="line"/>
    </contour>
  </outline>
</glyph>
<glyph name="sterling" format="2">
  <advance width="1247.1286868686868"/>
  <unicode hex="00A3"/>
  <outline>
    <contour>
      <point x="304.7038383838384" y="45.36323232323233" type="line"/>
      <point x="423.8327272727273" y="45.36323232323233" type="line"/>
      <point x="423.8327272727273" y="1055.5418181818181" type="line" smooth="yes"/>
      <point x="423.8327272727273" y="1298.6086868686868"/>
      <point x="556.9220202020202" y="1391.7650505050506"/>
      <point x="819.709696969697" y="1391.7650505050506" type="curve" smooth="yes"/>
      <point x="923.709696969697" y="1391.7650505050506"/>
      <point x="1029.0672727272727" y="1377.4745454545455"/>
      <point x="1131.888484848485" y="1345.7818181818182" type="curve"/>
      <point x="1131.888484848485" y="1454.3072727272727" type="line"/>
      <point x="1040.3074747474748" y="1483.1452525252525"/>
      <point x="925.2739393939394" y="1498.290505050505"/>
      <point x="817.7711111111112" y="1498.290505050505" type="curve" smooth="yes"/>
      <point x="482.2569696969697" y="1498.290505050505"/>
      <point x="304.7038383838384" y="1354.8826262626262"/>
      <point x="304.7038383838384" y="1052.9272727272728" type="curve" smooth="yes"/>
    </contour>
    <contour>
      <point x="78.54747474747475" y="0.0" type="line"/>
      <point x="1171.1957575757576" y="0.0" type="line"/>
      <point x="1171.1957575757576" y="104.38020202020205" type="line"/>
      <point x="78.54747474747475" y="104.38020202020205" type="line"/>
    </contour>
    <contour>
      <point x="78.54747474747475" y="700.1339393939394" type="line"/>
      <point x="957.5309090909091" y="700.1339393939394" type="line"/>
      <point x="957.5309090909091" y="799.8660606060606" type="line"/>
      <point x="78.54747474747475" y="799.8660606060606" type="line"/>
    </contour>
  </outline>
</glyph>
<glyph name="yen" format="2">
  <advance width="1192.0337373737375"/>
  <unicode hex="00A5"/>
  <outline>
    <contour>
      <point x="535.7987878787878" y="0.0" type="line"/>
      <point x="656.9612121212122" y="0.0" type="line"/>
      <point x="656.9612121212122" y="716.5866666666667" type="line"/>
      <point x="629.0840404040405" y="624.5472727272727" type="line"/>
      <point x="1190.4751515151515" y="1480.0" type="line"/>
      <point x="1060.7987878787878" y="1480.0" type="line"/>
      <point x="575.7319191919192" y="741.9331313131313" type="line"/>
      <point x="621.6426262626263" y="741.9331313131313" type="line"/>
      <point x="136.84949494949498" y="1480.0" type="line"/>
      <point x="-0.3296969696969789" y="1480.0" type="line"/>
      <point x="563.6759595959596" y="624.5472727272727" type="line"/>
      <point x="535.7987878787878" y="717.4581818181819" type="line"/>
    </contour>
    <contour>
      <point x="217.2513131313131" y="307.9440404040404" type="line"/>
      <point x="975.5086868686869" y="307.9440404040404" type="line"/>
      <point x="975.5086868686869" y="397.79898989898993" type="line"/>
      <point x="217.2513131313131" y="397.79898989898993" type="line"/>
    </contour>
    <contour>
      <point x="217.2513131313131" y="650.2010101010101" type="line"/>
      <point x="975.5086868686869" y="650.2010101010101" type="line"/>
      <point x="975.5086868686869" y="740.0559595959596" type="line"/>
      <point x="217.2513131313131" y="740.0559595959596" type="line"/>
    </contour>
  </outline>
</glyph>
<glyph name="brokenbar" format="2">
  <advance width="469.7878787878788"/>
  <unicode hex="00A6"/>
  <outline>
    <contour>
      <point x="178.23454545454544" y="836.0" type="line"/>
      <point x="291.55333333333334" y="836.0" type="line"/>
      <point x="291.55333333333334" y="1616.0" type="line"/>
      <point x="178.23454545454544" y="1616.0" type="line"/>
    </contour>
    <contour>
      <point x="178.23454545454544" y="-440.0" type="line"/>
      <point x="291.55333333333334" y="-440.0" type="line"/>
      <point x="291.55333333333334" y="340.0" type="line"/>
      <point x="178.23454545454544" y="340.0" type="line"/>
    </contour>
  </outline>
</glyph>
<glyph name="section" format="2">
  <advance width="990.7935353535354"/>
  <unicode hex="00A7"/>
  <outline>
    <contour>
      <point x="432.0224242424242" y="-18.5810101010101" type="curve" smooth="yes"/>
      <point x="703.4191919191919" y="-18.5810101010101"/>
      <point x="840.1343434343435" y="99.4860606060606"/>
      <point x="840.1343434343435" y="289.44141414141416" type="curve" smooth="yes"/>
      <point x="840.1343434343435" y="438.2012121212121"/>
      <point x="764.1789898989899" y="527.1844444444445"/>
      <point x="565.1008080808081" y="571.5866666666667" type="curve" smooth="yes"/>
      <point x="418.2347474747475" y="602.4917171717171" type="line" smooth="yes"/>
      <point x="282.2907070707071" y="632.5866666666667"/>
      <point x="232.519797979798" y="699.759797979798"/>
      <point x="232.519797979798" y="798.5921212121212" type="curve" smooth="yes"/>
      <point x="232.519797979798" y="866.9272727272727"/>
      <point x="263.76" y="925.9886868686868"/>
      <point x="329.25717171717173" y="968.0054545454545" type="curve"/>
      <point x="254.29050505050506" y="1025.0949494949496" type="line"/>
      <point x="172.3519191919192" y="970.7876767676768"/>
      <point x="125.28484848484848" y="889.6256565656565"/>
      <point x="125.28484848484848" y="792.6870707070707" type="curve" smooth="yes"/>
      <point x="125.28484848484848" y="642.0054545454545"/>
      <point x="203.11171717171717" y="547.1507070707071"/>
      <point x="392.6088888888889" y="504.89373737373734" type="curve" smooth="yes"/>
      <point x="539.329696969697" y="473.98868686868684" type="line" smooth="yes"/>
      <point x="671.3519191919191" y="444.7652525252525"/>
      <point x="724.1060606060606" y="391.5921212121212"/>
      <point x="724.1060606060606" y="280.97212121212124" type="curve" smooth="yes"/>
      <point x="724.1060606060606" y="153.24040404040406"/>
      <point x="636.8379797979798" y="79.37454545454548"/>
      <point x="433.71515151515155" y="79.37454545454548" type="curve" smooth="yes"/>
      <point x="340.5028282828283" y="79.37454545454548"/>
      <point x="254.2569696969697" y="90.81030303030306"/>
      <point x="147.8212121212121" y="122.22929292929295" type="curve"/>
      <point x="147.8212121212121" y="22.564242424242423" type="line"/>
      <point x="237.45252525252525" y="-5.435757575757576"/>
      <point x="331.42464646464646" y="-18.5810101010101"/>
    </contour>
    <contour>
      <point x="738.8717171717171" y="454.0167676767677" type="line"/>
      <point x="817.9890909090909" y="507.759797979798"/>
      <point x="865.5086868686869" y="586.9385858585858"/>
      <point x="865.5086868686869" y="690.1676767676768" type="curve" smooth="yes"/>
      <point x="865.5086868686869" y="842.8492929292929"/>
      <point x="789.5533333333334" y="934.4135353535354"/>
      <point x="591.7824242424242" y="978.2347474747475" type="curve" smooth="yes"/>
      <point x="443.6090909090909" y="1008.8492929292929" type="line" smooth="yes"/>
      <point x="311.5868686868687" y="1038.0727272727272"/>
      <point x="265.23494949494955" y="1101.2123232323233"/>
      <point x="265.23494949494955" y="1197.8658585858586" type="curve" smooth="yes"/>
      <point x="265.23494949494955" y="1310.4858585858585"/>
      <point x="345.5365656565657" y="1398.3349494949496"/>
      <point x="564.7767676767677" y="1398.3349494949496" type="curve" smooth="yes"/>
      <point x="646.6482828282828" y="1398.3349494949496"/>
      <point x="714.8438383838384" y="1390.3349494949496"/>
      <point x="803.2628282828283" y="1367.2064646464646" type="curve"/>
      <point x="803.2628282828283" y="1466.871515151515" type="line"/>
      <point x="726.2460606060606" y="1486.290505050505"/>
      <point x="647.3074747474748" y="1496.290505050505"/>
      <point x="559.9834343434344" y="1496.290505050505" type="curve" smooth="yes"/>
      <point x="278.3240404040404" y="1496.290505050505"/>
      <point x="149.20666666666665" y="1367.3854545454546"/>
      <point x="149.20666666666665" y="1191.960808080808" type="curve" smooth="yes"/>
      <point x="149.20666666666665" y="1046.6535353535353"/>
      <point x="226.7430303030303" y="953.9440404040404"/>
      <point x="419.29050505050503" y="911.2513131313132" type="curve" smooth="yes"/>
      <point x="566.0113131313132" y="880.3462626262626" type="line" smooth="yes"/>
      <point x="701.9553535353535" y="850.2513131313132"/>
      <point x="758.2737373737374" y="793.0446464646465"/>
      <point x="758.2737373737374" y="680.9721212121212" type="curve" smooth="yes"/>
      <point x="758.2737373737374" y="606.3632323232323"/>
      <point x="726.4525252525252" y="550.4470707070707"/>
      <point x="660.8882828282829" y="510.4135353535354" type="curve"/>
    </contour>
  </outline>
</glyph>
<glyph name="copyright" format="2">
  <advance width="1711.5082828282827"/>
  <unicode hex="00A9"/>
  <outline>
    <contour>
      <point x="855.7541414141414" y="-22.0" type="curve" smooth="yes"/>
      <point x="1302.6256565656565" y="-22.0"/>
      <point x="1600.6256565656565" y="282.0"/>
      <point x="1600.6256565656565" y="740.0" type="curve" smooth="yes"/>
      <point x="1600.6256565656565" y="1198.0"/>
      <point x="1302.6256565656565" y="1502.0"/>
      <point x="855.7541414141414" y="1502.0" type="curve" smooth="yes"/>
      <point x="408.8826262626263" y="1502.0"/>
      <point x="110.88262626262626" y="1198.0"/>
      <point x="110.88262626262626" y="740.0" type="curve" smooth="yes"/>
      <point x="110.88262626262626" y="282.0"/>
      <point x="408.8826262626263" y="-22.0"/>
    </contour>
    <contour>
      <point x="894.9832323232323" y="324.0" type="curve" smooth="yes"/>
      <point x="973.5642424242424" y="324.0"/>
      <point x="1045.5642424242424" y="336.0"/>
      <point x="1110.949696969697" y="364.2569696969697" type="curve"/>
      <point x="1110.949696969697" y="456.98343434343434" type="line"/>
      <point x="1029.530707070707" y="427.01696969696974"/>
      <point x="961.8882828282829" y="417.5979797979798"/>
      <point x="904.1787878787878" y="417.5979797979798" type="curve" smooth="yes"/>
      <point x="720.38" y="417.5979797979798"/>
      <point x="607.0951515151515" y="519.4638383838384"/>
      <point x="607.0951515151515" y="737.1284848484848" type="curve" smooth="yes"/>
      <point x="607.0951515151515" y="949.9551515151516"/>
      <point x="719.5084848484848" y="1050.4020202020201"/>
      <point x="924.7262626262626" y="1050.4020202020201" type="curve" smooth="yes"/>
      <point x="992.6927272727273" y="1050.4020202020201"/>
      <point x="1049.240202020202" y="1040.9830303030303"/>
      <point x="1110.949696969697" y="1024.1450505050504" type="curve"/>
      <point x="1110.949696969697" y="1116.871515151515" type="line"/>
      <point x="1048.1117171717171" y="1136.0"/>
      <point x="987.8212121212122" y="1144.0"/>
      <point x="918.949696969697" y="1144.0" type="curve" smooth="yes"/>
      <point x="652.6256565656565" y="1144.0"/>
      <point x="501.9775757575758" y="995.4189898989899"/>
      <point x="501.9775757575758" y="733.7094949494949" type="curve" smooth="yes"/>
      <point x="501.9775757575758" y="463.7430303030303"/>
      <point x="658.8826262626262" y="324.0"/>
    </contour>
    <contour>
      <point x="855.7541414141414" y="66.91636363636366" type="curve" smooth="yes"/>
      <point x="459.6313131313131" y="66.91636363636366"/>
      <point x="201.25151515151515" y="333.32969696969695"/>
      <point x="201.25151515151515" y="740.0" type="curve" smooth="yes"/>
      <point x="201.25151515151515" y="1146.670303030303"/>
      <point x="459.6313131313131" y="1413.0836363636363"/>
      <point x="855.7541414141414" y="1413.0836363636363" type="curve" smooth="yes"/>
      <point x="1251.8769696969696" y="1413.0836363636363"/>
      <point x="1510.2567676767676" y="1146.670303030303"/>
      <point x="1510.2567676767676" y="740.0" type="curve" smooth="yes"/>
      <point x="1510.2567676767676" y="333.32969696969695"/>
      <point x="1251.8769696969696" y="66.91636363636366"/>
    </contour>
  </outline>
</glyph>
<glyph name="ordfeminine" format="2">
  <advance width="850.3688888888889"/>
  <unicode hex="00AA"/>
  <outline>
    <contour>
      <point x="348.6591919191919" y="595.4189898989899" type="curve" smooth="yes"/>
      <point x="456.75414141414143" y="595.4189898989899"/>
      <point x="556.9943434343435" y="636.949696969697"/>
      <point x="618.670303030303" y="708.949696969697" type="curve"/>
      <point x="626.2680808080809" y="708.949696969697" type="line"/>
      <point x="635.4636363636364" y="610.0" type="line"/>
      <point x="730.5365656565657" y="610.0" type="line"/>
      <point x="730.5365656565657" y="1184.988686868687" type="line" smooth="yes"/>
      <point x="730.5365656565657" y="1417.6424242424243"/>
      <point x="613.8884848484848" y="1493.4525252525252"/>
      <point x="389.97212121212124" y="1493.4525252525252" type="curve" smooth="yes"/>
      <point x="305.9218181818182" y="1493.4525252525252"/>
      <point x="208.70949494949497" y="1479.7430303030303"/>
      <point x="132.06141414141413" y="1453.0335353535354" type="curve"/>
      <point x="132.06141414141413" y="1357.8042424242424" type="line"/>
      <point x="218.46363636363637" y="1386.3517171717172"/>
      <point x="305.48040404040404" y="1399.2064646464646"/>
      <point x="375.9329292929293" y="1399.2064646464646" type="curve" smooth="yes"/>
      <point x="537.480404040404" y="1399.2064646464646"/>
      <point x="619.0389898989899" y="1353.530505050505"/>
      <point x="619.0389898989899" y="1194.251313131313" type="curve" smooth="yes"/>
      <point x="619.0389898989899" y="798.7151515151515" type="line"/>
      <point x="551.6088888888889" y="718.6426262626263"/>
      <point x="461.3743434343435" y="685.1622222222222"/>
      <point x="376.43030303030304" y="685.1622222222222" type="curve" smooth="yes"/>
      <point x="252.21252525252527" y="685.1622222222222"/>
      <point x="190.1678787878788" y="741.2068686868687"/>
      <point x="190.1678787878788" y="843.7486868686868" type="curve" smooth="yes"/>
      <point x="190.1678787878788" y="940.7262626262626"/>
      <point x="252.63151515151517" y="994.2066666666667"/>
      <point x="405.6537373737374" y="1009.8826262626262" type="curve" smooth="yes"/>
      <point x="665.3351515151516" y="1036.1060606060605" type="line"/>
      <point x="655.6535353535353" y="1112.6816161616161" type="line"/>
      <point x="395.93858585858584" y="1086.1676767676768" type="line" smooth="yes"/>
      <point x="171.04464646464646" y="1064.910707070707"/>
      <point x="76.2680808080808" y="981.1676767676768"/>
      <point x="76.2680808080808" y="831.6480808080809" type="curve" smooth="yes"/>
      <point x="76.2680808080808" y="686.3408080808081"/>
      <point x="179.55858585858584" y="595.4189898989899"/>
    </contour>
  </outline>
</glyph>
<glyph name="logicalnot" format="2">
  <advance width="1333.709494949495"/>
  <unicode hex="00AC"/>
  <outline>
    <contour>
      <point x="1080.5137373737373" y="193.16202020202022" type="line"/>
      <point x="1187.1509090909092" y="193.16202020202022" type="line"/>
      <point x="1187.1509090909092" y="810.5923232323232" type="line"/>
      <point x="156.6870707070707" y="810.5923232323232" type="line"/>
      <point x="156.6870707070707" y="709.4076767676768" type="line"/>
      <point x="1080.5137373737373" y="709.4076767676768" type="line"/>
    </contour>
  </outline>
</glyph>
<glyph name="registered" format="2">
  <advance width="1518.7931313131312"/>
  <unicode hex="00AE"/>
  <outline>
    <contour>
      <point x="759.3965656565656" y="268.0" type="curve" smooth="yes"/>
      <point x="1121.3965656565656" y="268.0"/>
      <point x="1369.3965656565656" y="518.0"/>
      <point x="1369.3965656565656" y="882.0" type="curve" smooth="yes"/>
      <point x="1369.3965656565656" y="1246.0"/>
      <point x="1121.3965656565656" y="1498.0"/>
      <point x="759.3965656565656" y="1498.0" type="curve" smooth="yes"/>
      <point x="397.39656565656566" y="1498.0"/>
      <point x="149.39656565656566" y="1246.0"/>
      <point x="149.39656565656566" y="882.0" type="curve" smooth="yes"/>
      <point x="149.39656565656566" y="518.0"/>
      <point x="397.39656565656566" y="268.0"/>
    </contour>
    <contour>
      <point x="926.9383838383839" y="600.0" type="line"/>
      <point x="1018.3351515151516" y="600.0" type="line"/>
      <point x="845.8212121212122" y="854.189898989899" type="line"/>
      <point x="770.7149494949495" y="828.189898989899" type="line"/>
    </contour>
    <contour>
      <point x="759.3965656565656" y="347.07272727272726" type="curve" smooth="yes"/>
      <point x="440.11171717171715" y="347.07272727272726"/>
      <point x="231.9218181818182" y="557.8436363636364"/>
      <point x="231.9218181818182" y="882.0" type="curve" smooth="yes"/>
      <point x="231.9218181818182" y="1206.4468686868686"/>
      <point x="440.11171717171715" y="1418.9272727272728"/>
      <point x="759.3965656565656" y="1418.9272727272728" type="curve" smooth="yes"/>
      <point x="1078.681414141414" y="1418.9272727272728"/>
      <point x="1286.8713131313132" y="1206.4468686868686"/>
      <point x="1286.8713131313132" y="882.0" type="curve" smooth="yes"/>
      <point x="1286.8713131313132" y="557.8436363636364"/>
      <point x="1078.681414141414" y="347.07272727272726"/>
    </contour>
    <contour>
      <point x="549.3630303030303" y="600.0" type="line"/>
      <point x="629.8882828282829" y="600.0" type="line"/>
      <point x="630.759797979798" y="820.189898989899" type="line"/>
      <point x="746.2680808080808" y="820.189898989899" type="line" smooth="yes"/>
      <point x="910.8826262626262" y="820.189898989899"/>
      <point x="993.1731313131313" y="885.8993939393939"/>
      <point x="993.1731313131313" y="1005.0949494949494" type="curve" smooth="yes"/>
      <point x="993.1731313131313" y="1124.290505050505"/>
      <point x="908.8826262626262" y="1192.0"/>
      <point x="746.2680808080808" y="1192.0" type="curve" smooth="yes"/>
      <point x="549.3630303030303" y="1192.0" type="line"/>
    </contour>
    <contour>
      <point x="630.759797979798" y="892.3575757575758" type="line"/>
      <point x="630.759797979798" y="1119.8323232323232" type="line"/>
      <point x="760.3016161616162" y="1119.8323232323232" type="line" smooth="yes"/>
      <point x="863.0054545454545" y="1119.8323232323232"/>
      <point x="913.2288888888888" y="1082.1563636363637"/>
      <point x="913.2288888888888" y="1005.0949494949494" type="curve" smooth="yes"/>
      <point x="913.2288888888888" y="928.0335353535354"/>
      <point x="865.0054545454545" y="892.3575757575758"/>
      <point x="760.3016161616162" y="892.3575757575758" type="curve" smooth="yes"/>
    </contour>
  </outline>
</glyph>
<glyph name="degree" format="2">
  <advance width="981.3854545454545"/>
  <unicode hex="00B0"/>
  <outline>
    <contour>
      <point x="490.69272727272727" y="816.0222222222222" type="curve" smooth="yes"/>
      <point x="689.6313131313132" y="816.0222222222222"/>
      <point x="831.9888888888889" y="959.5082828282829"/>
      <point x="831.9888888888889" y="1156.4468686868686" type="curve" smooth="yes"/>
      <point x="831.9888888888889" y="1353.3854545454546"/>
      <point x="689.6313131313132" y="1496.5810101010102"/>
      <point x="490.69272727272727" y="1496.5810101010102" type="curve" smooth="yes"/>
      <point x="291.75414141414143" y="1496.5810101010102"/>
      <point x="149.39656565656566" y="1353.3854545454546"/>
      <point x="149.39656565656566" y="1156.4468686868686" type="curve" smooth="yes"/>
      <point x="149.39656565656566" y="959.5082828282829"/>
      <point x="291.75414141414143" y="816.0222222222222"/>
    </contour>
    <contour>
      <point x="490.69272727272727" y="905.1509090909091" type="curve" smooth="yes"/>
      <point x="346.44141414141416" y="905.1509090909091"/>
      <point x="243.41353535353537" y="1002.4692929292929"/>
      <point x="243.41353535353537" y="1156.4468686868686" type="curve" smooth="yes"/>
      <point x="243.41353535353537" y="1310.569696969697"/>
      <point x="346.7319191919192" y="1407.4523232323231"/>
      <point x="490.69272727272727" y="1407.4523232323231" type="curve" smooth="yes"/>
      <point x="634.6535353535353" y="1407.4523232323231"/>
      <point x="737.9719191919191" y="1310.569696969697"/>
      <point x="737.9719191919191" y="1156.4468686868686" type="curve" smooth="yes"/>
      <point x="737.9719191919191" y="1002.4692929292929"/>
      <point x="634.9440404040404" y="905.1509090909091"/>
    </contour>
  </outline>
</glyph>
<glyph name="plusminus" format="2">
  <advance width="1069.8436363636363"/>
  <unicode hex="00B1"/>
  <outline>
    <contour>
      <point x="481.6032323232323" y="327.9107070707071" type="line"/>
      <point x="588.2404040404041" y="327.9107070707071" type="line"/>
      <point x="588.2404040404041" y="667.1620202020202" type="line"/>
      <point x="913.1565656565657" y="667.1620202020202" type="line"/>
      <point x="913.1565656565657" y="768.3466666666667" type="line"/>
      <point x="588.2404040404041" y="768.3466666666667" type="line"/>
      <point x="588.2404040404041" y="1107.5979797979799" type="line"/>
      <point x="481.6032323232323" y="1107.5979797979799" type="line"/>
      <point x="481.6032323232323" y="768.3466666666667" type="line"/>
      <point x="156.6870707070707" y="768.3466666666667" type="line"/>
      <point x="156.6870707070707" y="667.1620202020202" type="line"/>
      <point x="481.6032323232323" y="667.1620202020202" type="line"/>
    </contour>
    <contour>
      <point x="156.6870707070707" y="0.14525252525252536" type="line"/>
      <point x="913.1565656565657" y="0.14525252525252536" type="line"/>
      <point x="913.1565656565657" y="101.32989898989902" type="line"/>
      <point x="156.6870707070707" y="101.32989898989902" type="line"/>
    </contour>
  </outline>
</glyph>
<glyph name="paragraph" format="2">
  <advance width="1211.4527272727273"/>
  <unicode hex="00B6"/>
  <outline>
    <contour>
      <point x="701.8545454545455" y="0.0" type="line"/>
      <point x="802.5363636363636" y="0.0" type="line"/>
      <point x="802.5363636363636" y="1480.0" type="line"/>
      <point x="722.3743434343435" y="1488.7262626262627"/>
      <point x="629.6313131313132" y="1494.871515151515"/>
      <point x="533.3408080808081" y="1494.871515151515" type="curve" smooth="yes"/>
      <point x="244.33515151515152" y="1494.871515151515"/>
      <point x="93.62565656565656" y="1341.1117171717171"/>
      <point x="93.62565656565656" y="997.9943434343435" type="curve" smooth="yes"/>
      <point x="93.62565656565656" y="674.7317171717172"/>
      <point x="235.4971717171717" y="499.55292929292926"/>
      <point x="555.6535353535353" y="499.55292929292926" type="curve" smooth="yes"/>
      <point x="609.5696969696969" y="499.55292929292926"/>
      <point x="652.5026262626262" y="502.26242424242423"/>
      <point x="701.8545454545455" y="508.24565656565653" type="curve"/>
    </contour>
    <contour>
      <point x="932.5363636363636" y="0.0" type="line"/>
      <point x="1033.2181818181818" y="0.0" type="line"/>
      <point x="1033.2181818181818" y="1480.0" type="line"/>
      <point x="932.5363636363636" y="1480.0" type="line"/>
    </contour>
  </outline>
</glyph>
<glyph name="periodcentered" format="2">
  <advance width="437.0840404040404"/>
  <unicode hex="00B7"/>
  <anchor x="218.5420202020202" y="560.0" name="_periodcentered"/>
  <outline>
    <contour>
      <point x="218.5420202020202" y="469.1282828282828" type="curve" smooth="yes"/>
      <point x="272.9890909090909" y="469.1282828282828"/>
      <point x="310.4640404040404" y="504.02222222222224"/>
      <point x="310.4640404040404" y="558.2905050505051" type="curve" smooth="yes"/>
      <point x="310.4640404040404" y="612.5587878787879"/>
      <point x="273.57010101010104" y="649.1622222222222"/>
      <point x="218.5420202020202" y="649.1622222222222" type="curve" smooth="yes"/>
      <point x="163.51393939393938" y="649.1622222222222"/>
      <point x="126.61999999999999" y="613.139797979798"/>
      <point x="126.61999999999999" y="558.2905050505051" type="curve" smooth="yes"/>
      <point x="126.61999999999999" y="503.4412121212121"/>
      <point x="164.0949494949495" y="469.1282828282828"/>
    </contour>
  </outline>
</glyph>
<glyph name="ordmasculine" format="2">
  <advance width="925.7878787878788"/>
  <unicode hex="00BA"/>
  <outline>
    <contour>
      <point x="462.8939393939394" y="595.4189898989899" type="curve" smooth="yes"/>
      <point x="691.8717171717171" y="595.4189898989899"/>
      <point x="843.3745454545455" y="733.9553535353535"/>
      <point x="843.3745454545455" y="1046.1452525252525" type="curve" smooth="yes"/>
      <point x="843.3745454545455" y="1358.3351515151514"/>
      <point x="691.8717171717171" y="1493.4525252525252"/>
      <point x="462.8939393939394" y="1493.4525252525252" type="curve" smooth="yes"/>
      <point x="233.91616161616162" y="1493.4525252525252"/>
      <point x="82.41333333333333" y="1359.0614141414142"/>
      <point x="82.41333333333333" y="1046.1452525252525" type="curve" smooth="yes"/>
      <point x="82.41333333333333" y="733.2290909090909"/>
      <point x="233.91616161616162" y="595.4189898989899"/>
    </contour>
    <contour>
      <point x="462.8939393939394" y="690.519797979798" type="curve" smooth="yes"/>
      <point x="302.1622222222222" y="690.519797979798"/>
      <point x="197.47515151515154" y="780.5141414141415"/>
      <point x="197.47515151515154" y="1046.1452525252525" type="curve" smooth="yes"/>
      <point x="197.47515151515154" y="1311.9216161616162"/>
      <point x="302.1622222222222" y="1398.3517171717172"/>
      <point x="462.8939393939394" y="1398.3517171717172" type="curve" smooth="yes"/>
      <point x="623.9161616161616" y="1398.3517171717172"/>
      <point x="728.3127272727272" y="1311.9216161616162"/>
      <point x="728.3127272727272" y="1046.1452525252525" type="curve" smooth="yes"/>
      <point x="728.3127272727272" y="780.5141414141415"/>
      <point x="623.9161616161616" y="690.519797979798"/>
    </contour>
  </outline>
</glyph>
<glyph name="questiondown" format="2">
  <advance width="881.6147474747474"/>
  <unicode hex="00BF"/>
  <outline>
    <contour>
      <point x="524.519797979798" y="749.2064646464646" type="line"/>
      <point x="446.1620202020202" y="749.2064646464646" type="line"/>
      <point x="433.40222222222224" y="399.3575757575758" type="line"/>
      <point x="159.95535353535354" y="292.4917171717172"/>
      <point x="61.24020202020202" y="166.18444444444447"/>
      <point x="61.24020202020202" y="-37.849090909090904" type="curve" smooth="yes"/>
      <point x="61.24020202020202" y="-264.67595959595957"/>
      <point x="220.05030303030304" y="-400.0"/>
      <point x="510.91636363636366" y="-400.0" type="curve" smooth="yes"/>
      <point x="626.5309090909091" y="-400.0"/>
      <point x="747.3577777777778" y="-380.4189898989899"/>
      <point x="840.2292929292929" y="-345.85474747474746" type="curve"/>
      <point x="840.2292929292929" y="-240.2343434343434" type="line"/>
      <point x="735.3913131313132" y="-278.50808080808076"/>
      <point x="628.6147474747474" y="-296.0890909090909"/>
      <point x="519.3242424242425" y="-296.0890909090909" type="curve" smooth="yes"/>
      <point x="297.05616161616166" y="-296.0890909090909"/>
      <point x="181.0618181818182" y="-200.8042424242424"/>
      <point x="181.0618181818182" y="-32.32949494949494" type="curve" smooth="yes"/>
      <point x="181.0618181818182" y="135.4189898989899"/>
      <point x="270.14000000000004" y="240.72060606060606"/>
      <point x="545.3802020202021" y="332.1339393939394" type="curve"/>
    </contour>
    <contour>
      <point x="485.26828282828285" y="1094.3575757575757" type="curve" smooth="yes"/>
      <point x="429.11171717171715" y="1094.3575757575757"/>
      <point x="393.3462626262626" y="1058.3351515151514"/>
      <point x="393.3462626262626" y="1007.0836363636364" type="curve" smooth="yes"/>
      <point x="393.3462626262626" y="954.1226262626262"/>
      <point x="430.240202020202" y="918.100202020202"/>
      <point x="485.26828282828285" y="918.100202020202" type="curve" smooth="yes"/>
      <point x="540.2963636363636" y="918.100202020202"/>
      <point x="577.1903030303031" y="953.5416161616162"/>
      <point x="577.1903030303031" y="1007.0836363636364" type="curve" smooth="yes"/>
      <point x="577.1903030303031" y="1058.9161616161616"/>
      <point x="539.7153535353535" y="1094.3575757575757"/>
    </contour>
  </outline>
</glyph>
<glyph name="AE" format="2">
  <advance width="1806.8551515151516"/>
  <unicode hex="00C6"/>
  <anchor x="971.9163636363637" y="0.0" name="bottom"/>
  <anchor x="894.1343434343435" y="1520.0" name="top"/>
  <outline>
    <contour>
      <point x="32.20666666666666" y="0.0" type="line"/>
      <point x="156.04505050505054" y="0.0" type="line"/>
      <point x="667.6369696969697" y="1373.910303030303" type="line"/>
      <point x="890.1175757575758" y="1373.910303030303" type="line"/>
      <point x="891.8270707070708" y="1480.0" type="line"/>
      <point x="587.0333333333333" y="1480.0" type="line"/>
    </contour>
    <contour>
      <point x="302.0559595959596" y="500.4020202020202" type="line"/>
      <point x="941.8046464646465" y="500.4020202020202" type="line"/>
      <point x="941.8046464646465" y="606.4917171717171" type="line"/>
      <point x="332.36888888888893" y="606.4917171717171" type="line"/>
    </contour>
    <contour>
      <point x="930.3464646464647" y="0.0" type="line"/>
      <point x="1735.709898989899" y="0.0" type="line"/>
      <point x="1735.709898989899" y="106.089696969697" type="line"/>
      <point x="1044.0060606060606" y="106.089696969697" type="line"/>
      <point x="958.039595959596" y="1373.910303030303" type="line"/>
      <point x="1725.709898989899" y="1373.910303030303" type="line"/>
      <point x="1725.709898989899" y="1480.0" type="line"/>
      <point x="832.8604040404041" y="1480.0" type="line"/>
    </contour>
    <contour>
      <point x="955.7153535353535" y="707.0836363636364" type="line"/>
      <point x="1629.2573737373737" y="707.0836363636364" type="line"/>
      <point x="1629.2573737373737" y="813.1733333333334" type="line"/>
      <point x="955.7153535353535" y="813.1733333333334" type="line"/>
    </contour>
  </outline>
</glyph>
<glyph name="multiply" format="2">
  <advance width="989.3632323232323"/>
  <unicode hex="00D7"/>
  <outline>
    <contour>
      <point x="196.26828282828285" y="391.1507070707071" type="line"/>
      <point x="494.68161616161615" y="689.5640404040404" type="line"/>
      <point x="793.0949494949494" y="391.1507070707071" type="line"/>
      <point x="863.5309090909091" y="461.5866666666667" type="line"/>
      <point x="565.1175757575758" y="760.0" type="line"/>
      <point x="863.5309090909091" y="1058.4133333333334" type="line"/>
      <point x="793.0949494949494" y="1128.849292929293" type="line"/>
      <point x="494.68161616161615" y="830.4359595959596" type="line"/>
      <point x="196.26828282828285" y="1128.849292929293" type="line"/>
      <point x="125.83232323232322" y="1058.4133333333334" type="line"/>
      <point x="424.24565656565653" y="760.0" type="line"/>
      <point x="125.83232323232322" y="461.5866666666667" type="line"/>
    </contour>
  </outline>
</glyph>
<glyph name="Thorn" format="2">
  <advance width="1221.4527272727273"/>
  <unicode hex="00DE"/>
  <outline>
    <contour>
      <point x="178.23454545454544" y="0.0" type="line"/>
      <point x="299.39696969696973" y="0.0" type="line"/>
      <point x="299.39696969696973" y="272.1060606060606" type="line"/>
      <point x="372.1511111111111" y="265.2680808080808"/>
      <point x="433.7935353535354" y="262.4133333333333"/>
      <point x="507.27393939393943" y="262.4133333333333" type="curve" smooth="yes"/>
      <point x="929.5644444444445" y="262.4133333333333"/>
      <point x="1117.8270707070708" y="437.30161616161615"/>
      <point x="1117.8270707070708" y="760.8547474747475" type="curve" smooth="yes"/>
      <point x="1117.8270707070708" y="1103.9721212121212"/>
      <point x="919.0169696969697" y="1257.7319191919191"/>
      <point x="541.620202020202" y="1257.7319191919191" type="curve" smooth="yes"/>
      <point x="442.9834343434344" y="1257.7319191919191"/>
      <point x="362.13434343434346" y="1248.8939393939395"/>
      <point x="299.39696969696973" y="1238.6369696969698" type="curve"/>
      <point x="299.39696969696973" y="1480.8547474747475" type="line"/>
      <point x="178.23454545454544" y="1480.8547474747475" type="line"/>
    </contour>
    <contour>
      <point x="509.83818181818185" y="365.30747474747477" type="curve" smooth="yes"/>
      <point x="432.5030303030303" y="365.30747474747477"/>
      <point x="367.31313131313135" y="369.01696969696974"/>
      <point x="299.39696969696973" y="378.1454545454546" type="curve"/>
      <point x="299.39696969696973" y="1134.8713131313132" type="line"/>
      <point x="374.9890909090909" y="1147.7092929292928"/>
      <point x="453.4191919191919" y="1154.8377777777778"/>
      <point x="546.7040404040404" y="1154.8377777777778" type="curve" smooth="yes"/>
      <point x="848.3351515151516" y="1154.8377777777778"/>
      <point x="995.4244444444445" y="1035.2624242424242"/>
      <point x="995.4244444444445" y="758.0" type="curve" smooth="yes"/>
      <point x="995.4244444444445" y="493.6872727272727"/>
      <point x="851.7541414141414" y="365.30747474747477"/>
    </contour>
  </outline>
</glyph>
<glyph name="germandbls" format="2">
  <advance width="1345.810505050505"/>
  <unicode hex="00DF"/>
  <outline>
    <contour>
      <point x="864.3466666666667" y="-18.5810101010101" type="curve" smooth="yes"/>
      <point x="1134.0339393939394" y="-18.5810101010101"/>
      <point x="1272.2016161616161" y="99.4860606060606"/>
      <point x="1272.2016161616161" y="290.60343434343434" type="curve" smooth="yes"/>
      <point x="1272.2016161616161" y="445.89959595959596"/>
      <point x="1197.52" y="536.0280808080809"/>
      <point x="994.5535353535354" y="580.9945454545455" type="curve" smooth="yes"/>
      <point x="855.5311111111112" y="609.8660606060606" type="line" smooth="yes"/>
      <point x="724.7826262626263" y="639.0894949494949"/>
      <point x="677.4474747474748" y="702.0838383838384"/>
      <point x="677.4474747474748" y="798.3016161616162" type="curve" smooth="yes"/>
      <point x="677.4474747474748" y="911.2121212121212"/>
      <point x="756.8775757575759" y="998.7707070707071"/>
      <point x="973.7937373737375" y="998.7707070707071" type="curve" smooth="yes"/>
      <point x="1040.1959595959597" y="998.7707070707071"/>
      <point x="1081.52" y="992.4969696969697"/>
      <point x="1120.9725252525252" y="984.9327272727272" type="curve"/>
      <point x="1134.4250505050506" y="1036.7428282828282"/>
      <point x="1147.0060606060606" y="1119.3070707070706"/>
      <point x="1147.0060606060606" y="1188.519393939394" type="curve" smooth="yes"/>
      <point x="1147.0060606060606" y="1505.5921212121211"/>
      <point x="958.9836363636364" y="1636.0"/>
      <point x="706.8270707070707" y="1636.0" type="curve" smooth="yes"/>
      <point x="406.5531313131313" y="1636.0"/>
      <point x="228.31838383838382" y="1471.20101010101"/>
      <point x="228.31838383838382" y="1128.759595959596" type="curve" smooth="yes"/>
      <point x="228.31838383838382" y="0.0" type="line"/>
      <point x="348.1735353535354" y="0.0" type="line"/>
      <point x="348.1735353535354" y="1124.6478787878789" type="line" smooth="yes"/>
      <point x="348.1735353535354" y="1422.7539393939394"/>
      <point x="481.3634343434344" y="1538.0444444444445"/>
      <point x="711.7656565656566" y="1538.0444444444445" type="curve" smooth="yes"/>
      <point x="904.2628282828283" y="1538.0444444444445"/>
      <point x="1049.3074747474748" y="1449.8042424242424"/>
      <point x="1048.4527272727273" y="1191.1842424242425" type="curve" smooth="yes"/>
      <point x="1048.4527272727273" y="1142.5529292929293"/>
      <point x="1041.7264646464646" y="1087.9551515151516"/>
      <point x="1030.5644444444445" y="1040.1953535353534" type="curve"/>
      <point x="1096.760202020202" y="1086.3240404040405" type="line"/>
      <point x="1053.1959595959597" y="1092.8882828282829"/>
      <point x="1003.7880808080808" y="1095.7430303030303"/>
      <point x="964.6428282828283" y="1095.7430303030303" type="curve" smooth="yes"/>
      <point x="690.9723232323232" y="1095.7430303030303"/>
      <point x="559.8214141414142" y="969.4357575757575"/>
      <point x="559.8214141414142" y="792.7206060606061" type="curve" smooth="yes"/>
      <point x="559.8214141414142" y="644.1842424242424"/>
      <point x="634.4527272727273" y="547.4412121212121"/>
      <point x="830.9220202020202" y="504.74848484848485" type="curve" smooth="yes"/>
      <point x="969.9444444444445" y="475.8769696969697" type="line" smooth="yes"/>
      <point x="1102.4024242424243" y="446.65353535353535"/>
      <point x="1154.5755555555556" y="393.7709090909091"/>
      <point x="1154.5755555555556" y="283.44141414141416" type="curve" smooth="yes"/>
      <point x="1154.5755555555556" y="155.2739393939394"/>
      <point x="1066.8717171717171" y="81.8438383838384"/>
      <point x="864.329898989899" y="81.8438383838384" type="curve" smooth="yes"/>
      <point x="771.9890909090909" y="81.8438383838384"/>
      <point x="682.9834343434344" y="93.15111111111113"/>
      <point x="578.4359595959596" y="123.98909090909093" type="curve"/>
      <point x="578.4359595959596" y="21.70949494949495" type="line"/>
      <point x="668.0672727272728" y="-6.29050505050505"/>
      <point x="762.4751515151515" y="-18.5810101010101"/>
    </contour>
    <contour>
      <point x="17.033535353535356" y="977.6868686868687" type="line"/>
      <point x="292.27939393939397" y="977.6868686868687" type="line"/>
      <point x="292.27939393939397" y="1082.9050505050504" type="line"/>
      <point x="17.033535353535356" y="1082.9050505050504" type="line"/>
    </contour>
  </outline>
</glyph>
<glyph name="ae" format="2">
  <advance width="1640.0616161616163"/>
  <unicode hex="00E6"/>
  <anchor x="803.2347474747475" y="0.0" name="bottom"/>
  <anchor x="803.2347474747475" y="1200.0" name="top"/>
  <outline>
    <contour>
      <point x="1226.2515151515152" y="-18.5810101010101" type="curve" smooth="yes"/>
      <point x="1314.4470707070707" y="-18.5810101010101"/>
      <point x="1403.6426262626262" y="-5.3072727272727285"/>
      <point x="1503.8549494949496" y="26.385454545454543" type="curve"/>
      <point x="1503.8549494949496" y="129.6818181818182" type="line"/>
      <point x="1404.1622222222222" y="99.00585858585862"/>
      <point x="1317.6929292929294" y="83.58686868686871"/>
      <point x="1238.3856565656565" y="83.58686868686871" type="curve" smooth="yes"/>
      <point x="990.2571717171718" y="83.58686868686871"/>
      <point x="861.0561616161617" y="201.24040404040406"/>
      <point x="861.0561616161617" y="526.1395959595959" type="curve" smooth="yes"/>
      <point x="861.0561616161617" y="564.38" type="line" smooth="yes"/>
      <point x="861.0561616161617" y="890.910505050505"/>
      <point x="974.2739393939394" y="1005.8713131313131"/>
      <point x="1153.2961616161617" y="1005.8713131313131" type="curve" smooth="yes"/>
      <point x="1332.1731313131313" y="1005.8713131313131"/>
      <point x="1438.4076767676768" y="892.4747474747475"/>
      <point x="1438.4076767676768" y="559.1062626262626" type="curve"/>
      <point x="1470.3462626262626" y="588.9274747474748" type="line"/>
      <point x="828.1008080808081" y="588.9274747474748" type="line"/>
      <point x="828.1008080808081" y="498.5250505050505" type="line"/>
      <point x="1556.0337373737375" y="498.5250505050505" type="line"/>
      <point x="1556.0337373737375" y="541.2737373737374" type="line" smooth="yes"/>
      <point x="1556.0337373737375" y="931.9329292929293"/>
      <point x="1405.0951515151514" y="1100.050303030303"/>
      <point x="1156.9274747474747" y="1100.050303030303" type="curve" smooth="yes"/>
      <point x="910.8882828282829" y="1100.050303030303"/>
      <point x="758.240202020202" y="932.0446464646465"/>
      <point x="758.240202020202" y="555.3575757575758" type="curve"/>
      <point x="743.379797979798" y="543.3072727272727" type="line"/>
      <point x="743.379797979798" y="142.7430303030303"/>
      <point x="911.7206060606061" y="-18.5810101010101"/>
    </contour>
    <contour>
      <point x="428.6480808080808" y="-16.87151515151515" type="curve" smooth="yes"/>
      <point x="570.2290909090909" y="-16.87151515151515"/>
      <point x="711.5028282828283" y="33.40222222222222"/>
      <point x="835.4525252525252" y="207.97757575757575" type="curve"/>
      <point x="785.7038383838384" y="287.8436363636364" type="line"/>
      <point x="692.6591919191919" y="131.56444444444446"/>
      <point x="565.4581818181819" y="81.519797979798"/>
      <point x="447.33535353535353" y="81.519797979798" type="curve" smooth="yes"/>
      <point x="300.40808080808085" y="81.519797979798"/>
      <point x="222.38020202020203" y="151.5476767676768"/>
      <point x="222.38020202020203" y="282.8939393939394" type="curve" smooth="yes"/>
      <point x="222.38020202020203" y="408.12848484848485"/>
      <point x="295.84383838383843" y="499.83232323232323"/>
      <point x="508.2179797979798" y="499.83232323232323" type="curve" smooth="yes"/>
      <point x="779.3351515151516" y="499.83232323232323" type="line"/>
      <point x="779.3351515151516" y="588.9274747474748" type="line"/>
      <point x="505.810101010101" y="588.9274747474748" type="line" smooth="yes"/>
      <point x="211.65919191919193" y="588.9274747474748"/>
      <point x="98.70383838383837" y="457.4749494949495"/>
      <point x="98.70383838383837" y="272.8268686868687" type="curve" smooth="yes"/>
      <point x="98.70383838383837" y="89.21232323232323"/>
      <point x="226.01111111111112" y="-16.87151515151515"/>
    </contour>
    <contour>
      <point x="743.379797979798" y="543.3072727272727" type="line"/>
      <point x="846.3410101010102" y="526.2123232323232" type="line"/>
      <point x="846.3410101010102" y="730.5529292929293" type="line" smooth="yes"/>
      <point x="846.3410101010102" y="1006.189898989899"/>
      <point x="712.8717171717171" y="1099.1955555555555"/>
      <point x="463.97212121212124" y="1099.1955555555555" type="curve" smooth="yes"/>
      <point x="366.6480808080808" y="1099.1955555555555"/>
      <point x="252.34080808080807" y="1082.7765656565657"/>
      <point x="162.94969696969696" y="1050.7765656565657" type="curve"/>
      <point x="162.94969696969696" y="947.1896969696969" type="line"/>
      <point x="265.78767676767677" y="982.7371717171717"/>
      <point x="372.5307070707071" y="996.7371717171717"/>
      <point x="454.6759595959596" y="996.7371717171717" type="curve" smooth="yes"/>
      <point x="642.3519191919193" y="996.7371717171717"/>
      <point x="743.379797979798" y="940.9159595959595"/>
      <point x="743.379797979798" y="732.5864646464646" type="curve" smooth="yes"/>
    </contour>
  </outline>
</glyph>
<glyph name="eth" format="2">
  <advance width="1088.2125252525252"/>
  <unicode hex="00F0"/>
  <outline>
    <contour>
      <point x="545.8157575757576" y="-18.87151515151515" type="curve" smooth="yes"/>
      <point x="812.9555555555555" y="-18.87151515151515"/>
      <point x="986.6371717171718" y="160.3240404040404"/>
      <point x="986.9276767676768" y="577.4078787878788" type="curve" smooth="yes"/>
      <point x="987.2181818181818" y="979.4525252525252"/>
      <point x="761.2181818181818" y="1407.240202020202"/>
      <point x="476.47515151515154" y="1616.0" type="curve"/>
      <point x="323.2288888888889" y="1616.0" type="line"/>
      <point x="591.1953535353535" y="1415.759797979798"/>
      <point x="738.2680808080808" y="1178.1620202020201"/>
      <point x="812.1228282828283" y="936.5642424242424" type="curve"/>
      <point x="867.759797979798" y="903.7319191919191" type="line"/>
      <point x="787.9385858585858" y="1052.5977777777778"/>
      <point x="668.9553535353535" y="1097.7430303030303"/>
      <point x="538.1509090909091" y="1097.7430303030303" type="curve" smooth="yes"/>
      <point x="276.12848484848485" y="1097.7430303030303"/>
      <point x="100.0111111111111" y="934.9664646464646"/>
      <point x="100.0111111111111" y="540.8715151515152" type="curve" smooth="yes"/>
      <point x="100.0111111111111" y="144.51959595959596"/>
      <point x="276.12848484848485" y="-18.87151515151515"/>
    </contour>
    <contour>
      <point x="545.8157575757576" y="83.4416161616162" type="curve" smooth="yes"/>
      <point x="347.7935353535354" y="83.4416161616162"/>
      <point x="223.43050505050508" y="197.709696969697"/>
      <point x="223.43050505050508" y="543.2905050505051" type="curve" smooth="yes"/>
      <point x="223.43050505050508" y="883.8880808080808"/>
      <point x="348.0840404040404" y="996.7371717171717"/>
      <point x="544.1062626262626" y="996.7371717171717" type="curve" smooth="yes"/>
      <point x="740.1284848484848" y="996.7371717171717"/>
      <point x="864.7820202020202" y="883.8880808080808"/>
      <point x="864.7820202020202" y="537.8715151515152" type="curve" smooth="yes"/>
      <point x="864.7820202020202" y="210.53090909090912"/>
      <point x="738.7094949494949" y="83.4416161616162"/>
    </contour>
    <contour>
      <point x="208.33515151515152" y="1234.4915151515152" type="line"/>
      <point x="963.8941414141415" y="1359.8044444444445" type="line"/>
      <point x="949.6650505050505" y="1441.7711111111112" type="line"/>
      <point x="194.1060606060606" y="1316.4581818181819" type="line"/>
    </contour>
  </outline>
</glyph>
<glyph name="divide" format="2">
  <advance width="1069.8436363636363"/>
  <unicode hex="00F7"/>
  <outline>
    <contour>
      <point x="156.6870707070707" y="709.4076767676768" type="line"/>
      <point x="913.1565656565657" y="709.4076767676768" type="line"/>
      <point x="913.1565656565657" y="810.5923232323232" type="line"/>
      <point x="156.6870707070707" y="810.5923232323232" type="line"/>
    </contour>
    <contour>
      <point x="534.9218181818181" y="329.0723232323232" type="curve" smooth="yes"/>
      <point x="587.0448484848484" y="329.0723232323232"/>
      <point x="623.0672727272728" y="362.51373737373734"/>
      <point x="623.0672727272728" y="414.6032323232323" type="curve" smooth="yes"/>
      <point x="623.0672727272728" y="466.69272727272727"/>
      <point x="587.6258585858586" y="501.8436363636364"/>
      <point x="534.9218181818181" y="501.8436363636364" type="curve" smooth="yes"/>
      <point x="482.21777777777777" y="501.8436363636364"/>
      <point x="446.7763636363636" y="467.2737373737374"/>
      <point x="446.7763636363636" y="414.6032323232323" type="curve" smooth="yes"/>
      <point x="446.7763636363636" y="361.9327272727272"/>
      <point x="482.7987878787879" y="329.0723232323232"/>
    </contour>
    <contour>
      <point x="534.9218181818181" y="1018.1563636363636" type="curve" smooth="yes"/>
      <point x="587.0448484848484" y="1018.1563636363636"/>
      <point x="623.0672727272728" y="1051.5977777777778"/>
      <point x="623.0672727272728" y="1103.6872727272728" type="curve" smooth="yes"/>
      <point x="623.0672727272728" y="1155.7767676767678"/>
      <point x="587.6258585858586" y="1190.9276767676768"/>
      <point x="534.9218181818181" y="1190.9276767676768" type="curve" smooth="yes"/>
      <point x="482.21777777777777" y="1190.9276767676768"/>
      <point x="446.7763636363636" y="1156.3577777777778"/>
      <point x="446.7763636363636" y="1103.6872727272728" type="curve" smooth="yes"/>
      <point x="446.7763636363636" y="1051.0167676767676"/>
      <point x="482.7987878787879" y="1018.1563636363636"/>
    </contour>
  </outline>
</glyph>
<glyph name="thorn" format="2">
  <advance width="1103.8270707070708"/>
  <unicode hex="00FE"/>
  <outline>
    <contour>
      <point x="159.39656565656566" y="-440.0" type="line"/>
      <point x="279.2517171717172" y="-440.0" type="line"/>
      <point x="279.2517171717172" y="-3.3240404040404057" type="line"/>
      <point x="334.6036363636364" y="-11.307272727272728"/>
      <point x="403.3577777777778" y="-18.435757575757577"/>
      <point x="468.83818181818185" y="-18.435757575757577" type="curve" smooth="yes"/>
      <point x="818.5868686868687" y="-18.435757575757577"/>
      <point x="1003.8159595959596" y="167.79333333333335"/>
      <point x="1003.8159595959596" y="561.5977777777778" type="curve" smooth="yes"/>
      <point x="1003.8159595959596" y="959.3854545454545"/>
      <point x="817.4919191919192" y="1099.1955555555555"/>
      <point x="592.4751515151515" y="1099.1955555555555" type="curve" smooth="yes"/>
      <point x="458.23494949494955" y="1099.1955555555555"/>
      <point x="354.2684848484849" y="1045.229090909091"/>
      <point x="287.14000000000004" y="967.9385858585858" type="curve"/>
      <point x="279.2517171717172" y="967.9385858585858" type="line"/>
      <point x="279.2517171717172" y="1616.0" type="line"/>
      <point x="159.39656565656566" y="1616.0" type="line"/>
    </contour>
    <contour>
      <point x="471.25717171717173" y="84.02262626262629" type="curve" smooth="yes"/>
      <point x="405.21252525252527" y="84.02262626262629"/>
      <point x="330.8941414141415" y="92.29636363636365"/>
      <point x="279.2517171717172" y="104.8438383838384" type="curve"/>
      <point x="279.2517171717172" y="846.5696969696969" type="line"/>
      <point x="347.29636363636365" y="947.9159595959595"/>
      <point x="457.4024242424243" y="992.8153535353536"/>
      <point x="563.5084848484848" y="992.8153535353536" type="curve" smooth="yes"/>
      <point x="743.4525252525252" y="992.8153535353536"/>
      <point x="880.3965656565656" y="895.5137373737374"/>
      <point x="880.3965656565656" y="550.1117171717171" type="curve" smooth="yes"/>
      <point x="880.3965656565656" y="219.9666666666667"/>
      <point x="741.5977777777778" y="84.02262626262629"/>
    </contour>
  </outline>
</glyph>
